<svg width="138" height="137" viewBox="0 0 138 137" fill="none" xmlns="http://www.w3.org/2000/svg">
<path d="M53.4999 2.00006L54.7348 5.10948H58.7307L55.4979 7.03121L56.7328 10.1406L53.4999 8.21891L50.2671 10.1406L51.5019 7.03121L48.2691 5.10948H52.2651L53.4999 2.00006Z" fill="#FEFEFE"/>
<path d="M34.4999 7.00006L36.1838 11.8369H41.6329L37.2245 14.8263L38.9083 19.6632L34.4999 16.6738L30.0915 19.6632L31.7754 14.8263L27.367 11.8369H32.8161L34.4999 7.00006Z" fill="#FEFEFE"/>
<path d="M31.9999 21.0001L32.898 23.4185H35.8042L33.453 24.9132L34.3511 27.3316L31.9999 25.8369L29.6488 27.3316L30.5469 24.9132L28.1957 23.4185H31.1019L31.9999 21.0001Z" fill="#FEFEFE"/>
<path d="M15 39.0001L15.8981 41.4185H18.8042L16.4531 42.9132L17.3511 45.3316L15 43.8369L12.6489 45.3316L13.5469 42.9132L11.1958 41.4185H14.1019L15 39.0001Z" fill="#FEFEFE"/>
<path d="M8 45.0001L8.89806 47.4185H11.8042L9.45308 48.9132L10.3511 51.3316L8 49.8369L5.64886 51.3316L6.54692 48.9132L4.19577 47.4185H7.10194L8 45.0001Z" fill="#FEFEFE"/>
<path d="M67.2036 2.12112L69.7541 6.56246L75.1089 5.55325L71.3304 9.30736L73.881 13.7487L68.9952 11.6275L65.2167 15.3816L65.9756 10.3166L61.0899 8.19538L66.4447 7.18618L67.2036 2.12112Z" fill="#FEFEFE"/>
<path d="M11.5 50.0001L13.1839 54.8369H18.6329L14.2245 57.8263L15.9084 62.6632L11.5 59.6738L7.09161 62.6632L8.77547 57.8263L4.36708 54.8369H9.81614L11.5 50.0001Z" fill="#FEFEFE"/>
<path d="M24.5 102L26.1839 106.837H31.6329L27.2245 109.826L28.9084 114.663L24.5 111.674L20.0916 114.663L21.7755 109.826L17.3671 106.837H22.8161L24.5 102Z" fill="#FEFEFE"/>
<path d="M59 123L60.3471 126.8H64.7063L61.1796 129.149L62.5267 132.95L59 130.601L55.4733 132.95L56.8204 129.149L53.2937 126.8H57.6529L59 123Z" fill="#FEFEFE"/>
<path d="M9 76.0001L9.89806 78.764H12.8042L10.4531 80.4722L11.3511 83.2361L9 81.5279L6.64886 83.2361L7.54692 80.4722L5.19577 78.764H8.10194L9 76.0001Z" fill="#FEFEFE"/>
<path d="M14 100L14.8981 102.764H17.8042L15.4531 104.472L16.3511 107.236L14 105.528L11.6489 107.236L12.5469 104.472L10.1958 102.764H13.1019L14 100Z" fill="#FEFEFE"/>
<path d="M3.5 61.0001L4.2858 63.073H6.8287L4.77145 64.3542L5.55725 66.4271L3.5 65.146L1.44275 66.4271L2.22855 64.3542L0.171302 63.073H2.7142L3.5 61.0001Z" fill="#FEFEFE"/>
<path d="M27.5 116L28.2858 118.073H30.8287L28.7714 119.354L29.5572 121.427L27.5 120.146L25.4428 121.427L26.2286 119.354L24.1713 118.073H26.7142L27.5 116Z" fill="#FEFEFE"/>
<path d="M34.5 116L35.2858 118.073H37.8287L35.7714 119.354L36.5572 121.427L34.5 120.146L32.4428 121.427L33.2286 119.354L31.1713 118.073H33.7142L34.5 116Z" fill="#FEFEFE"/>
<path d="M47.5 122L48.2858 124.073H50.8287L48.7714 125.354L49.5572 127.427L47.5 126.146L45.4428 127.427L46.2286 125.354L44.1713 124.073H46.7142L47.5 122Z" fill="#FEFEFE"/>
<path d="M66.5 131L67.2858 133.073H69.8287L67.7714 134.354L68.5572 136.427L66.5 135.146L64.4428 136.427L65.2286 134.354L63.1713 133.073H65.7142L66.5 131Z" fill="#FEFEFE"/>
<path d="M72.5 126L73.2858 128.073H75.8287L73.7714 129.354L74.5572 131.427L72.5 130.146L70.4428 131.427L71.2286 129.354L69.1713 128.073H71.7142L72.5 126Z" fill="#FEFEFE"/>
<path d="M50.5 129L51.2858 131.073H53.8287L51.7714 132.354L52.5572 134.427L50.5 133.146L48.4428 134.427L49.2286 132.354L47.1713 131.073H49.7142L50.5 129Z" fill="#FEFEFE"/>
<path d="M38 122L39.1226 125.455H42.7553L39.8164 127.59L40.9389 131.045L38 128.91L35.0611 131.045L36.1836 127.59L33.2447 125.455H36.8774L38 122Z" fill="#FEFEFE"/>
<path d="M8.5 66.0001L9.06129 67.7275H10.8776L9.40818 68.7951L9.96946 70.5226L8.5 69.455L7.03054 70.5226L7.59182 68.7951L6.12236 67.7275H7.93871L8.5 66.0001Z" fill="#FEFEFE"/>
<path d="M78.5 131L79.0613 132.728H80.8776L79.4082 133.795L79.9695 135.523L78.5 134.455L77.0305 135.523L77.5918 133.795L76.1224 132.728H77.9387L78.5 131Z" fill="#FEFEFE"/>
<path d="M13.5 91.0001L14.0613 92.7275H15.8776L14.4082 93.7951L14.9695 95.5226L13.5 94.455L12.0305 95.5226L12.5918 93.7951L11.1224 92.7275H12.9387L13.5 91.0001Z" fill="#FEFEFE"/>
<path d="M10.5 97.0001L10.8368 98.0365H11.9266L11.0449 98.6771L11.3817 99.7136L10.5 99.073L9.61832 99.7136L9.95509 98.6771L9.07342 98.0365H10.1632L10.5 97.0001Z" fill="#FEFEFE"/>
<path d="M7.50002 85.0001L8.56232 88.0558H12L9.21886 89.9444L10.2812 93.0001L7.50002 91.1115L4.71886 93.0001L5.78117 89.9444L3.00002 88.0558H6.43771L7.50002 85.0001Z" fill="#FEFEFE"/>
<path d="M3.5 71.0001L4.2858 73.4185H6.8287L4.77145 74.9132L5.55725 77.3316L3.5 75.8369L1.44275 77.3316L2.22855 74.9132L0.171302 73.4185H2.7142L3.5 71.0001Z" fill="#FEFEFE"/>
<path d="M22.9999 17.0001L23.898 19.4185H26.8042L24.453 20.9132L25.3511 23.3316L22.9999 21.8369L20.6488 23.3316L21.5469 20.9132L19.1957 19.4185H22.1019L22.9999 17.0001Z" fill="#FEFEFE"/>
<path d="M13.9999 28.0001L15.347 31.8005H19.7063L16.1796 34.1492L17.5267 37.9497L13.9999 35.6009L10.4732 37.9497L11.8203 34.1492L8.2936 31.8005H12.6529L13.9999 28.0001Z" fill="#FEFEFE"/>
<path d="M22.9999 25.0001L23.898 27.4185H26.8042L24.453 28.9132L25.3511 31.3316L22.9999 29.8369L20.6488 31.3316L21.5469 28.9132L19.1957 27.4185H22.1019L22.9999 25.0001Z" fill="#FEFEFE"/>
<path d="M45.9999 11.0001L46.898 13.4185H49.8042L47.453 14.9132L48.3511 17.3316L45.9999 15.8369L43.6488 17.3316L44.5469 14.9132L42.1957 13.4185H45.1019L45.9999 11.0001Z" fill="#FEFEFE"/>
<path d="M83 132L82.1019 129.236H79.1958L81.5469 127.528L80.6489 124.764L83 126.472L85.3511 124.764L84.4531 127.528L86.8042 129.236H83.8981L83 132Z" fill="#FEFEFE"/>
<path d="M105.5 129L104.265 125.891H100.269L103.502 123.969L102.267 120.859L105.5 122.781L108.733 120.859L107.498 123.969L110.731 125.891H106.735L105.5 129Z" fill="#FEFEFE"/>
<path d="M107 120L106.102 117.582H103.196L105.547 116.087L104.649 113.668L107 115.163L109.351 113.668L108.453 116.087L110.804 117.582H107.898L107 120Z" fill="#FEFEFE"/>
<path d="M123 99L122.102 96.5816H119.196L121.547 95.0869L120.649 92.6684L123 94.1631L125.351 92.6684L124.453 95.0869L126.804 96.5816H123.898L123 99Z" fill="#FEFEFE"/>
<path d="M130 93L129.102 90.5816H126.196L128.547 89.0869L127.649 86.6684L130 88.1631L132.351 86.6684L131.453 89.0869L133.804 90.5816H130.898L130 93Z" fill="#FEFEFE"/>
<path d="M97 127L96.3265 124.582H94.1468L95.9102 123.087L95.2366 120.668L97 122.163L98.7634 120.668L98.0898 123.087L99.8532 124.582H97.6735L97 127Z" fill="#FEFEFE"/>
<path d="M126.397 88.0462L125.535 82.9977L120.161 82.098L125.002 79.8775L124.14 74.829L127.994 78.5052L132.836 76.2847L130.376 80.7772L134.231 84.4533L128.856 83.5537L126.397 88.0462Z" fill="#FEFEFE"/>
<path d="M113.5 36L111.816 31.1631L106.367 31.1631L110.775 28.1738L109.092 23.3369L113.5 26.3262L117.908 23.3369L116.225 28.1738L120.633 31.1631H115.184L113.5 36Z" fill="#FEFEFE"/>
<path d="M129 62L128.102 59.2361H125.196L127.547 57.5279L126.649 54.7639L129 56.4721L131.351 54.7639L130.453 57.5279L132.804 59.2361H129.898L129 62Z" fill="#FEFEFE"/>
<path d="M124 38L123.102 35.2361H120.196L122.547 33.5279L121.649 30.7639L124 32.4721L126.351 30.7639L125.453 33.5279L127.804 35.2361H124.898L124 38Z" fill="#FEFEFE"/>
<path d="M134.5 77L133.714 74.9271H131.171L133.229 73.6459L132.443 71.5729L134.5 72.8541L136.557 71.5729L135.771 73.6459L137.829 74.9271H135.286L134.5 77Z" fill="#FEFEFE"/>
<path d="M110.5 22L109.714 19.9271H107.171L109.229 18.6459L108.443 16.5729L110.5 17.8541L112.557 16.5729L111.771 18.6459L113.829 19.9271H111.286L110.5 22Z" fill="#FEFEFE"/>
<path d="M103.5 22L102.714 19.9271H100.171L102.229 18.6459L101.443 16.5729L103.5 17.8541L105.557 16.5729L104.771 18.6459L106.829 19.9271H104.286L103.5 22Z" fill="#FEFEFE"/>
<path d="M90.5 16L89.7142 13.9271L87.1713 13.9271L89.2286 12.6459L88.4428 10.5729L90.5 11.8541L92.5572 10.5729L91.7714 12.6459L93.8287 13.9271H91.2858L90.5 16Z" fill="#FEFEFE"/>
<path d="M80.5 14L79.7142 11.9271L77.1713 11.9271L79.2286 10.6459L78.4428 8.57295L80.5 9.8541L82.5572 8.57295L81.7714 10.6459L83.8287 11.9271H81.2858L80.5 14Z" fill="#FEFEFE"/>
<path d="M76.5 8L75.7142 5.92705L73.1713 5.92705L75.2286 4.6459L74.4428 2.57295L76.5 3.8541L78.5572 2.57295L77.7714 4.6459L79.8287 5.92705H77.2858L76.5 8Z" fill="#FEFEFE"/>
<path d="M87.5 9L86.7142 6.92705L84.1713 6.92705L86.2286 5.6459L85.4428 3.57295L87.5 4.8541L89.5572 3.57295L88.7714 5.6459L90.8287 6.92705H88.2858L87.5 9Z" fill="#FEFEFE"/>
<path d="M100 16L98.8774 12.5451L95.2447 12.5451L98.1836 10.4098L97.0611 6.95492L100 9.09017L102.939 6.95492L101.816 10.4098L104.755 12.5451H101.123L100 16Z" fill="#FEFEFE"/>
<path d="M129.5 72L128.939 70.2725H127.122L128.592 69.2049L128.031 67.4775L129.5 68.5451L130.969 67.4775L130.408 69.2049L131.878 70.2725H130.061L129.5 72Z" fill="#FEFEFE"/>
<path d="M59.5 7L58.9387 5.27254L57.1224 5.27254L58.5918 4.20492L58.0305 2.47746L59.5 3.54508L60.9695 2.47746L60.4082 4.20492L61.8776 5.27254H60.0613L59.5 7Z" fill="#FEFEFE"/>
<path d="M124.5 47L123.939 45.2725H122.122L123.592 44.2049L123.031 42.4775L124.5 43.5451L125.969 42.4775L125.408 44.2049L126.878 45.2725H125.061L124.5 47Z" fill="#FEFEFE"/>
<path d="M127.5 41L127.163 39.9635H126.073L126.955 39.3229L126.618 38.2865L127.5 38.9271L128.382 38.2865L128.045 39.3229L128.927 39.9635H127.837L127.5 41Z" fill="#FEFEFE"/>
<path d="M130.5 53L129.438 49.9443H126L128.781 48.0557L127.719 45L130.5 46.8885L133.281 45L132.219 48.0557L135 49.9443H131.562L130.5 53Z" fill="#FEFEFE"/>
<path d="M134.5 67L133.714 64.5816H131.171L133.229 63.0869L132.443 60.6684L134.5 62.1631L136.557 60.6684L135.771 63.0869L137.829 64.5816H135.286L134.5 67Z" fill="#FEFEFE"/>
<path d="M114 118L113.326 116.273H111.147L112.91 115.205L112.237 113.477L114 114.545L115.763 113.477L115.09 115.205L116.853 116.273H114.674L114 118Z" fill="#FEFEFE"/>
<path d="M124 110L122.653 106.2H118.294L121.82 103.851L120.473 100.05L124 102.399L127.527 100.05L126.18 103.851L129.706 106.2H125.347L124 110Z" fill="#FEFEFE"/>
<path d="M115 113L114.102 110.582H111.196L113.547 109.087L112.649 106.668L115 108.163L117.351 106.668L116.453 109.087L118.804 110.582H115.898L115 113Z" fill="#FEFEFE"/>
<path d="M91.5 134L90.2652 130.891H86.2692L89.502 128.969L88.2672 125.859L91.5 127.781L94.7328 125.859L93.498 128.969L96.7308 130.891H92.7348L91.5 134Z" fill="#FEFEFE"/>
</svg>
