<svg width="120" height="139" viewBox="0 0 120 139" fill="none" xmlns="http://www.w3.org/2000/svg">
<path d="M53.4999 3.26801L54.7348 6.37743H58.7307L55.4979 8.29916L56.7328 11.4086L53.4999 9.48685L50.2671 11.4086L51.5019 8.29916L48.2691 6.37743H52.2651L53.4999 3.26801Z" fill="#FEFEFE"/>
<path d="M34.4999 8.26801L36.1838 13.1049H41.6329L37.2245 16.0942L38.9083 20.9311L34.4999 17.9418L30.0915 20.9311L31.7754 16.0942L27.367 13.1049H32.8161L34.4999 8.26801Z" fill="#FEFEFE"/>
<path d="M31.9999 22.268L32.898 24.6864H35.8042L33.453 26.1811L34.3511 28.5996L31.9999 27.1049L29.6488 28.5996L30.5469 26.1811L28.1957 24.6864H31.1019L31.9999 22.268Z" fill="#FEFEFE"/>
<path d="M15 40.268L15.8981 42.6864H18.8042L16.4531 44.1811L17.3511 46.5996L15 45.1049L12.6489 46.5996L13.5469 44.1811L11.1958 42.6864H14.1019L15 40.268Z" fill="#FEFEFE"/>
<path d="M8 46.268L8.89806 48.6864H11.8042L9.45308 50.1811L10.3511 52.5996L8 51.1049L5.64886 52.5996L6.54692 50.1811L4.19577 48.6864H7.10194L8 46.268Z" fill="#FEFEFE"/>
<path d="M67.2036 1.75614L69.7541 6.19748L75.1089 5.18827L71.3304 8.94238L73.881 13.3837L68.9952 11.2625L65.2167 15.0166L65.9756 9.95158L61.0899 7.8304L66.4447 6.8212L67.2036 1.75614Z" fill="#FEFEFE"/>
<path d="M11.5 51.268L13.1839 56.1049H18.6329L14.2245 59.0942L15.9084 63.9311L11.5 60.9418L7.09161 63.9311L8.77547 59.0942L4.36708 56.1049H9.81614L11.5 51.268Z" fill="#FEFEFE"/>
<path d="M24.5 103.268L26.1839 108.105H31.6329L27.2245 111.094L28.9084 115.931L24.5 112.942L20.0916 115.931L21.7755 111.094L17.3671 108.105H22.8161L24.5 103.268Z" fill="#FEFEFE"/>
<path d="M59 124.268L60.3471 128.068H64.7063L61.1796 130.417L62.5267 134.218L59 131.869L55.4733 134.218L56.8204 130.417L53.2937 128.068H57.6529L59 124.268Z" fill="#FEFEFE"/>
<path d="M9 77.268L9.89806 80.0319H12.8042L10.4531 81.7401L11.3511 84.5041L9 82.7959L6.64886 84.5041L7.54692 81.7401L5.19577 80.0319H8.10194L9 77.268Z" fill="#FEFEFE"/>
<path d="M14 101.268L14.8981 104.032H17.8042L15.4531 105.74L16.3511 108.504L14 106.796L11.6489 108.504L12.5469 105.74L10.1958 104.032H13.1019L14 101.268Z" fill="#FEFEFE"/>
<path d="M3.5 62.268L4.2858 64.341H6.8287L4.77145 65.6221L5.55725 67.6951L3.5 66.4139L1.44275 67.6951L2.22855 65.6221L0.171302 64.341H2.7142L3.5 62.268Z" fill="#FEFEFE"/>
<path d="M27.5 117.268L28.2858 119.341H30.8287L28.7714 120.622L29.5572 122.695L27.5 121.414L25.4428 122.695L26.2286 120.622L24.1713 119.341H26.7142L27.5 117.268Z" fill="#FEFEFE"/>
<path d="M34.5 117.268L35.2858 119.341H37.8287L35.7714 120.622L36.5572 122.695L34.5 121.414L32.4428 122.695L33.2286 120.622L31.1713 119.341H33.7142L34.5 117.268Z" fill="#FEFEFE"/>
<path d="M47.5 123.268L48.2858 125.341H50.8287L48.7714 126.622L49.5572 128.695L47.5 127.414L45.4428 128.695L46.2286 126.622L44.1713 125.341H46.7142L47.5 123.268Z" fill="#FEFEFE"/>
<path d="M66.5 132.268L67.2858 134.341H69.8287L67.7714 135.622L68.5572 137.695L66.5 136.414L64.4428 137.695L65.2286 135.622L63.1713 134.341H65.7142L66.5 132.268Z" fill="#FEFEFE"/>
<path d="M72.5 127.268L73.2858 129.341H75.8287L73.7714 130.622L74.5572 132.695L72.5 131.414L70.4428 132.695L71.2286 130.622L69.1713 129.341H71.7142L72.5 127.268Z" fill="#FEFEFE"/>
<path d="M50.5 130.268L51.2858 132.341H53.8287L51.7714 133.622L52.5572 135.695L50.5 134.414L48.4428 135.695L49.2286 133.622L47.1713 132.341H49.7142L50.5 130.268Z" fill="#FEFEFE"/>
<path d="M38 123.268L39.1226 126.723H42.7553L39.8164 128.858L40.9389 132.313L38 130.178L35.0611 132.313L36.1836 128.858L33.2447 126.723H36.8774L38 123.268Z" fill="#FEFEFE"/>
<path d="M8.5 67.268L9.06129 68.9955H10.8776L9.40818 70.0631L9.96946 71.7905L8.5 70.7229L7.03054 71.7905L7.59182 70.0631L6.12236 68.9955H7.93871L8.5 67.268Z" fill="#FEFEFE"/>
<path d="M78.5 132.268L79.0613 133.995H80.8776L79.4082 135.063L79.9695 136.791L78.5 135.723L77.0305 136.791L77.5918 135.063L76.1224 133.995H77.9387L78.5 132.268Z" fill="#FEFEFE"/>
<path d="M13.5 92.268L14.0613 93.9955H15.8776L14.4082 95.0631L14.9695 96.7905L13.5 95.7229L12.0305 96.7905L12.5918 95.0631L11.1224 93.9955H12.9387L13.5 92.268Z" fill="#FEFEFE"/>
<path d="M10.5 98.268L10.8368 99.3045H11.9266L11.0449 99.9451L11.3817 100.982L10.5 100.341L9.61832 100.982L9.95509 99.9451L9.07342 99.3045H10.1632L10.5 98.268Z" fill="#FEFEFE"/>
<path d="M7.50002 86.268L8.56232 89.3238H12L9.21886 91.2123L10.2812 94.268L7.50002 92.3795L4.71886 94.268L5.78117 91.2123L3.00002 89.3238H6.43771L7.50002 86.268Z" fill="#FEFEFE"/>
<path d="M3.5 72.268L4.2858 74.6864H6.8287L4.77145 76.1811L5.55725 78.5996L3.5 77.1049L1.44275 78.5996L2.22855 76.1811L0.171302 74.6864H2.7142L3.5 72.268Z" fill="#FEFEFE"/>
<path d="M22.9999 18.268L23.898 20.6864H26.8042L24.453 22.1811L25.3511 24.5996L22.9999 23.1049L20.6488 24.5996L21.5469 22.1811L19.1957 20.6864H22.1019L22.9999 18.268Z" fill="#FEFEFE"/>
<path d="M13.9999 29.268L15.347 33.0684H19.7063L16.1796 35.4172L17.5267 39.2176L13.9999 36.8688L10.4732 39.2176L11.8203 35.4172L8.2936 33.0684H12.6529L13.9999 29.268Z" fill="#FEFEFE"/>
<path d="M22.9999 26.268L23.898 28.6864H26.8042L24.453 30.1811L25.3511 32.5996L22.9999 31.1049L20.6488 32.5996L21.5469 30.1811L19.1957 28.6864H22.1019L22.9999 26.268Z" fill="#FEFEFE"/>
<path d="M45.9999 12.268L46.898 14.6864H49.8042L47.453 16.1811L48.3511 18.5996L45.9999 17.1049L43.6488 18.5996L44.5469 16.1811L42.1957 14.6864H45.1019L45.9999 12.268Z" fill="#FEFEFE"/>
<path d="M83 133.268L82.1019 130.504H79.1958L81.5469 128.796L80.6489 126.032L83 127.74L85.3511 126.032L84.4531 128.796L86.8042 130.504H83.8981L83 133.268Z" fill="#FEFEFE"/>
<path d="M105.5 130.268L104.265 127.159H100.269L103.502 125.237L102.267 122.127L105.5 124.049L108.733 122.127L107.498 125.237L110.731 127.159H106.735L105.5 130.268Z" fill="#FEFEFE"/>
<path d="M108 122L107.102 119.582H104.196L106.547 118.087L105.649 115.668L108 117.163L110.351 115.668L109.453 118.087L111.804 119.582H108.898L108 122Z" fill="#FEFEFE"/>
<path d="M97 128.268L96.3265 125.85H94.1468L95.9102 124.355L95.2366 121.936L97 123.431L98.7634 121.936L98.0898 124.355L99.8532 125.85H97.6735L97 128.268Z" fill="#FEFEFE"/>
<path d="M82.5 13L81.7142 10.9271L79.1713 10.9271L81.2286 9.6459L80.4428 7.57295L82.5 8.8541L84.5572 7.57295L83.7714 9.6459L85.8287 10.9271H83.2858L82.5 13Z" fill="#FEFEFE"/>
<path d="M78.5 7L77.7142 4.92705L75.1713 4.92705L77.2286 3.6459L76.4428 1.57295L78.5 2.8541L80.5572 1.57295L79.7714 3.6459L81.8287 4.92705H79.2858L78.5 7Z" fill="#FEFEFE"/>
<path d="M60.5 6L59.9387 4.27254L58.1224 4.27254L59.5918 3.20492L59.0305 1.47746L60.5 2.54508L61.9695 1.47746L61.4082 3.20492L62.8776 4.27254H61.0613L60.5 6Z" fill="#FEFEFE"/>
<path d="M115 120L114.326 118.273H112.147L113.91 117.205L113.237 115.477L115 116.545L116.763 115.477L116.09 117.205L117.853 118.273H115.674L115 120Z" fill="#FEFEFE"/>
<path d="M116 114L115.102 111.582H112.196L114.547 110.087L113.649 107.668L116 109.163L118.351 107.668L117.453 110.087L119.804 111.582H116.898L116 114Z" fill="#FEFEFE"/>
<path d="M91.5 135.268L90.2652 132.159H86.2692L89.502 130.237L88.2672 127.127L91.5 129.049L94.7328 127.127L93.498 130.237L96.7308 132.159H92.7348L91.5 135.268Z" fill="#FEFEFE"/>
</svg>
