<!-- Generated by IcoMoon.io -->
<svg version="1.1" xmlns="http://www.w3.org/2000/svg" width="1024" height="1024" stroke-width="10px" viewBox="0 0 1024 1024">
<title></title>
<g id="icomoon-ignore">
</g>
<path fill="#FFFFFF" d="M810.085 343.26c0-9.201-11.991-27.703-18.502-27.703 6.51 0 19.432-18.502 19.432-27.703 0 9.201 11.991 27.703 18.502 27.703-6.51 0-19.432 18.502-19.432 27.703z"></path>
<path fill="#FFFFFF" d="M218.623 411.634c0-9.201-11.991-27.703-18.502-27.703 6.51 0 19.432-18.502 19.432-27.703 0 9.201 11.991 27.703 18.502 27.703-6.51 0-19.432 18.502-19.432 27.703z"></path>
<path fill="#FFFFFF" d="M370.158 76.169c0-9.201-11.991-27.703-18.502-27.703 6.51 0 19.432-18.502 19.432-27.703 0 9.201 11.991 27.703 18.502 27.703-6.51 0-19.432 18.502-19.432 27.703z"></path>
<path fill="#FFFFFF" d="M702.893 627.876v-0.93z"></path>
<path fill="#FFFFFF" d="M715.815 581.671c3.72-15.712 7.34-36.073-3.72-49.925 0-0.93 0.93-1.86 0.93-2.79 6.51-15.712 0.93-32.353-8.271-45.275-4.65-6.51-9.201-12.922-14.782-19.432 2.79-20.362-1.86-40.625-9.201-60.986-3.72-11.061-5.58-23.052-10.131-34.213-4.65-10.131-10.131-19.432-15.712-28.633 0.93-3.72 0.93-7.34 1.86-11.061 2.79-14.782 5.58-30.493 8.271-45.275 3.72-14.782 7.34-29.563 11.061-45.275 3.72-19.432 6.51-39.695 7.34-60.056 5.58-87.76-44.345-38.865-54.476 11.061-4.65 17.572-7.34 35.143-9.201 52.715-0.93 12.922-1.86 25.843-4.65 38.865-6.51-9.201-13.852-17.572-21.292-25.843-11.061-13.852-23.052-26.773-34.213-40.625-11.991-15.712-24.913-30.493-43.415-37.934-10.131-3.72-22.222-8.271-28.633 3.72-3.72 5.58-4.65 12.922-3.72 20.362 0 9.201 3.72 17.572 8.271 24.913 5.58 10.131 14.782 17.572 23.052 26.773 12.922 11.991 23.052 26.773 36.073 39.695 20.362 19.432 30.493 36.073 37.003 63.777 0.93 4.65 1.86 9.201 2.79 14.782-1.86-1.86-4.65-2.79-6.51-4.65-10.131-7.34-22.222-11.991-33.283-14.782-30.493-10.131-60.986-20.362-90.55-31.423-2.79-0.93-5.58-1.86-8.271-3.72-5.58-9.201-11.061-17.572-19.432-23.983-7.34-3.72-14.782-8.271-23.052-6.51-6.51 1.86-11.991 3.72-15.712 9.201-8.271 0.93-17.572 4.65-21.292 12.922-1.86 6.51 2.79 13.852 5.58 19.432 1.86 3.72 4.65 6.51 7.34 8.271 0 0 0 0 0 0 1.86 9.201 4.65 18.502 6.51 27.703 9.201 31.423 21.292 61.916 25.843 94.27 0 0.93 0 2.79 0 3.72-9.201 0.93-18.502 4.65-24.913 12.922-1.86 1.86-2.79 4.65-2.79 6.51 0 2.79-0.93 6.51 0 9.201 1.86 5.58 7.34 10.131 11.991 12.922 5.58 2.79 11.991 5.58 17.572 7.34-0.93 15.712 0 30.493 0.93 46.205 0 10.131-0.93 20.362 0 30.493s2.79 20.362 5.58 30.493c3.72 11.991 7.34 24.913 11.061 37.003 2.79 9.201 6.51 18.502 8.271 28.633 7.34 37.934 5.58 78.558-8.271 114.632-7.34 17.572-17.572 32.353-27.703 48.995-11.991 19.432-21.292 38.865-34.213 57.266-6.51 9.201-12.922 19.432-19.432 28.633-8.271 12.922-14.782 25.843-23.052 37.934-5.58 9.201-12.922 18.502-16.642 28.633-0.93 2.79-0.93 5.58-0.93 8.271 1.86-1.86 3.72-4.65 4.65-6.51 5.58-12.922 13.852-23.983 21.292-36.073 12.922-23.052 27.703-44.345 42.485-65.637 11.991-18.502 22.222-38.865 34.213-58.196 7.34-12.922 16.642-24.913 22.222-38.865 16.642-42.485 18.502-89.62 6.51-133.964-3.72-12.922-8.271-25.843-11.991-39.695-6.51-19.432-11.061-39.695-9.201-60.986 0.93-17.572-0.93-34.213-0.93-51.785 0-1.86 0-4.65 0-6.51 10.131 2.79 21.292 5.58 31.423 8.271 32.353 8.271 63.777 17.572 94.27 30.493 18.502 8.271 37.003 16.642 53.645 29.563 0.93 0 0.93 0.93 1.86 0.93-1.86 1.86-2.79 3.72-4.65 5.58-36.073 40.625-51.785 95.2-62.847 146.886-0.93 5.58-0.93 11.061-0.93 16.642 3.72-6.51 5.58-14.782 7.34-22.222 9.201-43.415 22.222-87.76 48.995-124.763 4.65-7.34 11.061-12.922 16.642-19.432 9.201 7.34 17.572 15.712 25.843 23.983 1.86 0.93 3.72 2.79 5.58 3.72-1.86-5.58-4.65-9.201-9.201-12.922-11.991-11.991-24.913-23.052-39.695-32.353-24.913-14.782-52.715-25.843-80.418-35.143-19.432-6.51-37.934-11.991-57.266-16.642-17.572-4.65-34.213-8.271-50.855-15.712-5.58-3.72-11.991-8.271-10.131-15.712 0-2.79 0.93-5.58 2.79-7.34s4.65-4.65 6.51-6.51c2.79-1.86 6.51-2.79 9.201-3.72 11.991-2.79 23.983-0.93 37.003 0 15.712 1.86 32.353 3.72 48.065 5.58 60.986 7.34 124.763 15.712 180.169 43.415 34.213 16.642 41.555 22.222 34.213 61.916-3.72 17.572-8.271 34.213-14.782 50.855-7.34 17.572-18.502 33.283-27.703 49.925-5.58 11.061-11.061 22.222-16.642 32.353-11.061 18.502-23.052 35.143-32.353 54.476-11.061 21.292-20.362 44.345-31.423 65.637-9.201 18.502-20.362 36.073-29.563 55.406-12.922 24.913-23.052 50.855-35.143 75.768-11.061 21.292-23.052 42.485-33.283 63.777 4.65-11.061-1.86 3.72-16.642 48.995-3.72 12.922-9.201 25.843-10.131 39.695 7.34-12.922 10.131-27.703 15.712-42.485 4.65-13.852 9.201-27.703 14.782-41.555 10.131-23.052 23.983-45.275 35.143-68.427 9.201-18.502 17.572-37.934 25.843-57.266 11.991-24.913 25.843-49.925 38.865-73.908 9.201-18.502 17.572-37.003 25.843-55.406 11.061-23.052 26.773-44.345 39.695-66.567 6.51-11.991 12.922-25.843 19.432-37.934 8.271-14.782 17.572-29.563 23.983-45.275 4.65-10.131 8.271-24.913 11.991-40.625zM624.335 236.015c2.79-22.222 7.34-44.345 14.782-65.637 4.65-9.201 10.131-19.432 16.642-27.703 3.72-3.72 9.201-9.201 14.782-7.34 13.852 11.061 5.58 56.336 4.65 72.978-3.72 33.283-14.782 65.637-20.362 97.99-1.86 9.201-3.72 18.502-4.65 27.703-9.201-16.642-20.362-31.423-32.353-47.135 3.72-16.642 3.72-34.213 6.51-50.855zM591.982 355.254c-7.34-36.073-19.432-48.995-43.415-73.908-7.34-8.271-13.852-16.642-21.292-24.913-8.271-9.201-18.502-17.572-26.773-27.703-6.51-9.201-12.922-20.362-11.991-32.353-0.93-4.65 0.93-8.271 2.79-11.991 1.86-2.79 2.79-5.58 5.58-7.34 6.51-1.86 13.852 1.86 20.362 4.65 20.362 9.201 33.283 27.703 46.205 44.345 15.712 18.502 31.423 36.073 46.205 54.476 13.852 17.572 26.773 35.143 37.934 54.476 6.51 11.991 14.782 23.052 20.362 35.143 5.58 14.782 8.271 30.493 13.852 45.275 3.72 13.852 7.34 28.633 5.58 43.415-4.65-4.65-8.271-9.201-12.922-13.852-8.271-9.201-16.642-17.572-24.913-25.843-16.642-16.642-34.213-33.283-53.645-46.205-1.86-5.58-2.79-11.061-3.72-17.572zM397.961 293.341c3.72-2.79 9.201-4.65 13.852-4.65 6.51 0.93 11.991 3.72 17.572 7.34 4.65 4.65 9.201 9.201 12.922 14.782 0 0 0 0.93 0.93 0.93-5.58-2.79-11.991-5.58-17.572-8.271-7.34-3.72-14.782-7.34-22.222-8.271-1.86-0.93-3.72-0.93-5.58-1.86 0 0.93 0 0.93 0 0zM421.944 460.628c-0.93-8.271-2.79-17.572-4.65-25.843-4.65-16.642-9.201-33.283-14.782-49.925-4.65-11.991-8.271-24.913-11.061-37.934-0.93-1.86-0.93-4.65-1.86-6.51 7.34 5.58 14.782 11.061 22.222 15.712 13.852 9.201 29.563 14.782 44.345 20.362 1.86 0.93 2.79 0.93 4.65 1.86 0.93 11.991 1.86 23.983 2.79 36.073 1.86 16.642 4.65 35.143 11.991 49.925-7.34-0.93-14.782-1.86-21.292-2.79-9.201 0.93-21.292-0.93-32.353-0.93zM482.93 466.163c-0.93-2.79-2.79-4.65-3.72-7.34-3.72-9.201-6.51-18.502-7.34-27.703-1.86-12.922-3.72-26.773-4.65-39.695 0-3.72 0-6.51-0.93-10.131 24.913 11.061 52.715 18.502 74.838 35.143 7.34 5.58 13.852 11.991 20.362 19.432 0 0-0.93 0.93-0.93 0.93-6.51 11.061-12.922 21.292-22.222 30.493-1.86 1.86-3.72 3.72-6.51 5.58-8.271-0.93-16.642-1.86-23.983-3.72-8.271-0.93-16.642-1.86-24.913-2.79zM565.209 439.337c12.922 14.782 23.983 30.493 36.073 45.275-20.362-4.65-41.555-8.271-61.916-11.061 10.131-9.201 18.502-21.292 25.843-33.283-0.93-0.93-0.93-0.93 0-0.93zM667.75 505.903c-19.432-8.271-38.865-14.782-59.126-20.362-3.72-3.72-7.34-8.271-10.131-12.922-6.51-7.34-11.991-16.642-18.502-23.983-7.34-9.201-14.782-17.572-23.052-25.843-11.061-11.061-24.913-20.362-39.695-26.773-11.061-4.65-22.222-9.201-33.283-12.922-8.271-3.72-16.642-7.34-25.843-11.061-7.34-2.79-14.782-4.65-21.292-7.34-9.201-3.72-17.572-8.271-25.843-13.852-7.34-4.65-13.852-9.201-20.362-14.782-3.72-3.72-8.271-6.51-11.061-11.991-1.86-4.65-5.58-9.201-5.58-13.852 1.86-7.34 10.131-10.131 17.572-11.061 12.922-1.86 24.913 5.58 37.003 11.061 13.852 7.34 28.633 12.922 43.415 18.502 23.052 8.271 45.275 15.712 68.427 23.983 9.201 3.72 19.432 5.58 27.703 10.131 29.563 15.712 53.645 37.934 77.628 61.916 17.572 16.642 33.283 33.283 48.065 51.785 13.852 18.502 21.292 33.283 13.852 51.785-11.061-9.201-25.843-14.782-39.695-22.222z"></path>
<path fill="#FFFFFF" d="M443.236 481.874c-4.65 0.93-13.852 0-19.432-0.93-20.362-1.86-29.563-3.72-47.135-9.201-5.58-1.86-10.131-3.72-11.991-6.51-0.93-2.79-2.79-5.58 1.86-6.51 14.782-2.79 31.423-2.79 47.135-0.93 7.34 0.93 15.712 1.86 23.052 3.72 5.58 0.93 12.922 1.86 17.572 4.65 6.51 3.72-0.93 13.852-11.061 15.712z"></path>
<path fill="#FFFFFF" d="M526.345 206.452c-3.72-2.79-11.061-9.201-13.852-12.922-13.852-14.782-20.362-22.222-29.563-37.934-2.79-4.65-5.58-10.131-4.65-12.922s1.86-6.51 6.51-3.72c13.852 7.34 25.843 17.572 37.003 28.633 5.58 5.58 10.131 11.061 15.712 17.572 3.72 4.65 8.271 10.131 10.131 15.712 0 6.51-11.991 10.131-21.292 5.58z"></path>
<path fill="#FFFFFF" d="M667.75 174.099c-0.93-4.65 0-12.922 0.93-18.502 1.86-18.502 3.72-27.703 9.201-45.275 1.86-4.65 3.72-10.131 5.58-11.061 2.79-0.93 5.58-2.79 5.58 1.86 1.86 14.782 1.86 29.563 0.93 44.345-0.93 7.34-1.86 14.782-3.72 22.222-0.93 5.58-1.86 12.922-4.65 16.642-3.72 6.51-12.922 0-13.852-10.131z"></path>
<path fill="#FFFFFF" d="M411.813 287.801c5.58-0.93 11.061 1.86 15.712 5.58 0 0 0 0 0 0 1.86 0.93 3.72 1.86 5.58 2.79 0 0 0 0 0 0-5.58-12.922-13.852-34.213-22.222-33.283-18.502 0.93-21.292 13.852-19.432 32.353 6.51-3.72 12.922-7.34 20.362-7.34z"></path>
<path fill="#FFFFFF" d="M418.224 320.154c-4.65-0.93-13.852-3.72-18.502-5.58-18.502-7.34-27.703-11.061-43.415-21.292-4.65-2.79-9.201-6.51-9.201-9.201s-0.93-6.51 3.72-5.58c15.712 0.93 30.493 5.58 46.205 10.131 7.34 2.79 14.782 5.58 21.292 9.201 4.65 2.79 11.991 5.58 15.712 9.201 4.65 5.58-4.65 13.852-15.712 12.922z"></path>
<path fill="#FFFFFF" d="M-114.943 1560.395c-0.93 0-1.86 0.93-1.86 0.93-1.86 1.86-3.72 4.65-5.58 6.51-5.58 6.51-11.991 11.991-18.502 17.572-3.72 2.79-7.34 5.58-11.061 8.271-3.72 1.86-7.34 3.72-11.991 4.65-2.79 0.93-4.65 0.93-7.34 0.93-4.65-0.93-9.201-2.79-11.061-7.34-1.86-2.79-2.79-5.58-2.79-8.271-0.93-6.51 0-13.852 0.93-20.362 0.93-3.72 1.86-7.34 1.86-11.991 0 0 0-0.93 0-0.93s0-0.93-0.93-0.93c0 0-0.93 0-0.93 0-1.86 0.93-2.79 2.79-3.72 3.72-6.51 8.271-14.782 15.712-22.222 22.222-4.65 3.72-10.131 8.271-15.712 11.061-3.72 2.79-8.271 4.65-12.922 6.51-6.51 2.79-11.991 4.65-18.502 5.58-1.86 0-4.65 0-6.51 0s-2.79-0.93-4.65-0.93c-6.51-1.86-10.131-6.51-12.922-11.991-2.79-7.34-2.79-15.712-1.86-23.983 0-2.79 0.93-4.65 0.93-7.34 0-0.93 0-1.86-0.93-0.93 0 0-0.93 0-0.93 0-1.86 1.86-3.72 3.72-5.58 5.58-9.201 10.131-19.432 18.502-30.493 25.843-3.72 2.79-7.34 4.65-11.061 6.51-6.51 3.72-13.852 5.58-21.292 6.51-2.79 0-4.65 0.93-7.34 0.93-12.922 0.93-22.222-4.65-29.563-14.782-3.72-4.65-5.58-10.131-7.34-15.712-2.79-10.131-2.79-20.362-0.93-31.423 2.79-16.642 8.271-31.423 16.642-46.205 8.271-15.712 20.362-28.633 34.213-40.625 8.271-6.51 17.572-11.991 27.703-14.782 9.201-3.72 18.502-4.65 28.633-3.72 4.65 0 8.271 1.86 12.922 2.79 1.86 0.93 3.72 1.86 5.58 2.79 6.51 4.65 9.201 13.852 7.34 20.362-0.93 4.65-2.79 8.271-4.65 11.991-2.79 3.72-5.58 7.34-8.271 11.061-5.58 6.51-11.991 12.922-19.432 18.502-6.51 5.58-13.852 10.131-21.292 14.782-11.991 7.34-23.983 14.782-37.003 21.292-4.65 1.86-8.271 4.65-12.922 6.51-0.93 0.93-1.86 0.93-2.79 1.86s-1.86 1.86-1.86 3.72c0 3.72 0 8.271 0.93 11.991 0.93 2.79 1.86 4.65 2.79 7.34 2.79 3.72 5.58 6.51 9.201 9.201 5.58 3.72 11.991 4.65 18.502 3.72 4.65-0.93 9.201-2.79 12.922-4.65 4.65-2.79 9.201-5.58 13.852-8.271 7.34-5.58 14.782-11.991 21.292-18.502 7.34-8.271 14.782-16.642 21.292-25.843 1.86-2.79 3.72-5.58 5.58-8.271 10.131-18.502 22.222-35.143 37.934-49.925 6.51-6.51 13.852-11.991 21.292-17.572 7.34-4.65 14.782-9.201 23.052-11.991 7.34-1.86 13.852-2.79 21.292-2.79 1.86 0 3.72 0.93 5.58 0.93 3.72 0.93 7.34 1.86 11.061 4.65 1.86 0.93 3.72 2.79 4.65 4.65 0.93 0.93 2.79 0.93 3.72 0 1.86-1.86 3.72-3.72 5.58-5.58s3.72-2.79 6.51-3.72c1.86-0.93 4.65-0.93 6.51 0 2.79 0.93 5.58 2.79 6.51 4.65 1.86 2.79 2.79 4.65 3.72 8.271 0 1.86 0.93 3.72 0.93 5.58 0.93 4.65 0 8.271-0.93 12.922 0 0 0 0.93-0.93 0.93s-0.93 0.93-1.86 0.93c-0.93 0-1.86 0-1.86-0.93-0.93-1.86-0.93-3.72-1.86-5.58 0-0.93-1.86-1.86-2.79-0.93s-1.86 0.93-2.79 1.86c-3.72 3.72-7.34 7.34-9.201 11.991-1.86 3.72-3.72 7.34-5.58 11.061-8.271 17.572-13.852 36.073-18.502 55.406-0.93 4.65-1.86 8.271-2.79 12.922-1.86 4.65-1.86 10.131-2.79 14.782 0 2.79 0 4.65 0.93 7.34s3.72 3.72 5.58 3.72c1.86 0 3.72 0 5.58-0.93 3.72-1.86 6.51-2.79 9.201-5.58 1.86-1.86 4.65-3.72 6.51-5.58 10.131-9.201 18.502-19.432 26.773-29.563 0.93-1.86 1.86-2.79 2.79-4.65 6.51-15.712 14.782-30.493 21.292-46.205 2.79-5.58 5.58-11.061 8.271-16.642 1.86-3.72 3.72-7.34 5.58-11.061 0-0.93 0.93-1.86 0.93-2.79 0.93-1.86-0.93-3.72-2.79-3.72-1.86 0.93-3.72 0.93-6.51 1.86-0.93 0-1.86 0-1.86-0.93-0.93 0-0.93-0.93-0.93-1.86s0.93-1.86 0.93-1.86c6.51-5.58 12.922-10.131 20.362-13.852 1.86-0.93 3.72-0.93 5.58-0.93 2.79 0 4.65 0.93 7.34 2.79 0.93 0.93 1.86 1.86 1.86 2.79 0.93 2.79 1.86 5.58 1.86 8.271-0.93 6.51-1.86 11.991-4.65 17.572-2.79 7.34-5.58 14.782-9.201 22.222-6.51 12.922-12.922 26.773-18.502 40.625-2.79 7.34-6.51 14.782-8.271 22.222-0.93 2.79-1.86 6.51-2.79 9.201-0.93 4.65-1.86 10.131-0.93 14.782 0 1.86 0.93 3.72 2.79 4.65 0.93 0.93 2.79 1.86 3.72 0.93 1.86-0.93 3.72-0.93 4.65-1.86 2.79-1.86 5.58-3.72 7.34-5.58 7.34-5.58 13.852-12.922 20.362-19.432 14.782-15.712 29.563-33.283 42.485-50.855 0.93-1.86 1.86-2.79 3.72-4.65s2.79-4.65 3.72-6.51 3.72-10.131 6.51-14.782c2.79-8.271 6.51-16.642 11.061-24.913 1.86-4.65 4.65-8.271 7.34-11.991 0.93-1.86 2.79-3.72 4.65-4.65 2.79-2.79 6.51-3.72 11.061-3.72 2.79 0 4.65 0.93 6.51 2.79s3.72 3.72 4.65 6.51c2.79 6.51 3.72 12.922 2.79 20.362 0 1.86-0.93 3.72-2.79 4.65 0 0-1.86 0-1.86 0-0.93 0-0.93-0.93-1.86-1.86s-0.93-2.79-1.86-3.72c-0.93-0.93-1.86-0.93-2.79 0-0.93 0-0.93 0.93-1.86 0.93-3.72 2.79-6.51 7.34-8.271 11.061-2.79 3.72-4.65 8.271-6.51 12.922-5.58 11.991-9.201 23.983-12.922 37.003-2.79 8.271-4.65 16.642-6.51 24.913-1.86 4.65-1.86 10.131-3.72 14.782-0.93 2.79-0.93 5.58 0 8.271 0 1.86 0.93 3.72 1.86 5.58s1.86 1.86 3.72 1.86 4.65 0 7.34-0.93c3.72-1.86 7.34-3.72 10.131-6.51 0.93-0.93 0.93-0.93 1.86-1.86 15.712-15.712 30.493-32.353 44.345-50.855 0.93-1.86 2.79-3.72 3.72-5.58 2.79-3.72 4.65-7.34 5.58-11.991 2.79-8.271 5.58-15.712 7.34-23.983 5.58-16.642 11.991-32.353 19.432-48.065 11.061-24.913 22.222-49.925 34.213-74.838 0.93-1.86 2.79-4.65 2.79-7.34 0-0.93 0-1.86-0.93-1.86s-1.86 0-1.86 0c-5.58 0-11.061 0-16.642 0.93-3.72 0-7.34 0.93-11.061 0.93-4.65 0-9.201 0.93-13.852 1.86-1.86 0-2.79 0-4.65 0.93-4.65 0-10.131 0.93-14.782 1.86-6.51 0.93-11.991 1.86-18.502 2.79-11.991 1.86-23.983 3.72-36.073 6.51-18.502 3.72-36.073 7.34-54.476 11.061-19.432 4.65-37.934 9.201-56.336 13.852-1.86 0.93-3.72 0.93-5.58 0.93-0.93 0-1.86 0-1.86 0-0.93 0-1.86-0.93-1.86-1.86s0.93-1.86 0.93-1.86c11.061-4.65 21.292-8.271 32.353-11.061 23.983-7.34 48.995-13.852 72.978-19.432 15.712-3.72 31.423-6.51 47.135-9.201 10.131-1.86 20.362-3.72 31.423-5.58 6.51-0.93 13.852-1.86 20.362-2.79 8.271-0.93 16.642-2.79 24.913-3.72 3.72-0.93 8.271-0.93 11.991-0.93 1.86 0 2.79-0.93 4.65-0.93 0.93 0 0.93-0.93 1.86-0.93 0.93-0.93 0.93-1.86 1.86-2.79 1.86-3.72 3.72-7.34 5.58-11.061 11.991-23.983 23.983-48.065 37.003-71.118 12.922-23.983 26.773-47.135 42.485-69.357 11.991-17.572 24.913-35.143 38.865-51.785 11.061-12.922 23.052-24.913 35.143-37.003 2.79-2.79 5.58-5.58 9.201-7.34 5.58-2.79 10.131-4.65 16.642-2.79 3.72 0.93 6.51 2.79 8.271 4.65 0 0 0.93 0.93 0.93 0.93 4.65 5.58 7.34 17.572 2.79 24.913 0 0-0.93 0.93-0.93 0.93-0.93 0.93-2.79 0-2.79 0-0.93-1.86-0.93-3.72-1.86-4.65 0-0.93-1.86-1.86-2.79-0.93-0.93 0-1.86 0.93-2.79 0.93-4.65 2.79-9.201 6.51-13.852 10.131-10.131 8.271-19.432 17.572-27.703 26.773-11.061 12.922-22.222 25.843-31.423 39.695-5.58 8.271-11.061 15.712-16.642 23.983-12.922 19.432-23.983 39.695-35.143 60.056-10.131 18.502-20.362 37.934-29.563 56.336-0.93 1.86-1.86 4.65-2.79 6.51 0 0.93 0 1.86 0.93 2.79 1.86 0.93 3.72 0 5.58 0 10.131 0 19.432-0.93 29.563-0.93 23.052-0.93 47.135 0 70.188 0 5.58 0 11.991 0.93 17.572 0.93 3.72 0 6.51 0 10.131 0 0.93 0 1.86-0.93 2.79-1.86 0.93-1.86 1.86-3.72 3.72-5.58 8.271-15.712 15.712-30.493 23.983-46.205 15.712-28.633 32.353-56.336 49.925-84.138 8.271-12.922 17.572-25.843 26.773-37.934 11.061-14.782 23.983-28.633 37.003-41.555 5.58-5.58 11.991-11.061 18.502-15.712 2.79-1.86 5.58-3.72 9.201-5.58 2.79-1.86 5.58-2.79 9.201-3.72 2.79-0.93 6.51-0.93 9.201 0s4.65 1.86 6.51 3.72c1.86 1.86 2.79 4.65 3.72 7.34 0.93 3.72 0.93 8.271 0.93 11.991-0.93 11.061-1.86 22.222-3.72 33.283-4.65 23.983-11.991 47.135-22.222 69.357-7.34 17.572-16.642 35.143-26.773 52.715-11.061 19.432-23.983 38.865-37.003 57.266-1.86 2.79-3.72 5.58-5.58 8.271-0.93 0.93 0 3.72 0.93 3.72 1.86 0 3.72 0 5.58 0 17.572 0.93 35.143 0 53.645-0.93 3.72 0 7.34-0.93 11.061-0.93 2.79 0 4.65-0.93 7.34-0.93 8.271 0 15.712-1.86 23.983-2.79 9.201-1.86 17.572-3.72 26.773-6.51 14.782-4.65 28.633-10.131 41.555-17.572 1.86-0.93 3.72-2.79 4.65-4.65 1.86-2.79 3.72-6.51 4.65-9.201 17.572-33.283 36.073-65.637 56.336-97.99 11.061-17.572 22.222-34.213 35.143-50.855 10.131-13.852 21.292-25.843 34.213-37.934 4.65-4.65 9.201-8.271 13.852-11.991 3.72-2.79 7.34-5.58 11.061-8.271 3.72-1.86 7.34-3.72 11.061-4.65 2.79-0.93 4.65-0.93 7.34-0.93 4.65 0 8.271 2.79 11.061 6.51 0.93 1.86 2.79 4.65 2.79 7.34 0.93 2.79 0.93 6.51 0.93 10.131 0 7.34-0.93 14.782-1.86 21.292-3.72 26.773-11.061 51.785-21.292 75.768-6.51 16.642-14.782 32.353-23.052 48.065-11.991 22.222-25.843 43.415-39.695 62.847-23.052 31.423-47.135 60.986-72.978 88.69-5.58 6.51-11.061 11.991-17.572 18.502-13.852 13.852-26.773 26.773-40.625 40.625-11.991 11.061-23.052 23.052-35.143 34.213-1.86 1.86-2.79 3.72-3.72 5.58-1.86 6.51-4.65 12.922-5.58 20.362-0.93 4.65-1.86 10.131-2.79 14.782s-1.86 10.131-1.86 14.782c0 2.79 0 5.58 0 8.271 0 8.271 3.72 15.712 7.34 22.222 0.93 1.86 2.79 3.72 4.65 4.65 0.93 0.93 1.86 0.93 2.79 1.86 3.72 0.93 7.34 1.86 11.061 0.93 8.271-0.93 15.712-3.72 23.052-8.271 3.72-1.86 6.51-4.65 10.131-6.51 8.271-6.51 15.712-13.852 22.222-22.222 11.061-12.922 21.292-26.773 31.423-41.555 1.86-2.79 3.72-5.58 5.58-8.271 0-0.93 0.93-0.93 1.86-1.86s1.86-0.93 1.86 0c0.93 0 0.93 0.93 1.86 1.86 0.93 1.86 0.93 4.65 0 6.51 0 0.93-0.93 1.86-0.93 2.79-10.131 16.642-21.292 33.283-34.213 47.135-10.131 11.991-22.222 23.052-35.143 31.423-6.51 4.65-13.852 8.271-22.222 11.061-4.65 1.86-10.131 2.79-14.782 2.79-4.65 0.93-10.131 0-14.782-0.93-7.34-1.86-12.922-5.58-16.642-11.061-5.58-6.51-8.271-14.782-9.201-23.052-0.93-4.65-0.93-10.131 0-14.782 0-3.72 0.93-7.34 0.93-11.061 0 0 0-0.93-0.93-0.93 0 0-0.93 0-0.93 0-0.93 0.93-1.86 1.86-2.79 2.79-10.131 12.922-21.292 24.913-33.283 37.003-3.72 3.72-7.34 7.34-11.991 11.061-2.79 2.79-6.51 4.65-9.201 7.34-1.86 1.86-4.65 2.79-6.51 3.72-3.72 1.86-6.51 2.79-10.131 1.86-0.93 0-1.86 0-3.72 0-3.72 0-6.51-1.86-9.201-5.58-0.93-1.86-1.86-3.72-2.79-5.58-1.86-5.58-1.86-11.061-1.86-15.712 0.93-8.271 2.79-17.572 4.65-25.843 1.86-5.58 2.79-11.991 4.65-17.572 0 0 0-0.93 0-0.93s-0.93 0-1.86 0c-1.86 0.93-2.79 2.79-4.65 4.65-8.271 11.061-17.572 22.222-27.703 32.353-5.58 6.51-11.991 11.991-18.502 17.572-4.65 3.72-8.271 6.51-12.922 9.201-3.72 1.86-6.51 3.72-10.131 5.58-4.65 1.86-10.131 2.79-14.782 1.86s-8.271-3.72-11.061-7.34c-1.86-2.79-2.79-5.58-2.79-9.201s0-7.34 0.93-11.061c0.93-3.72 0.93-7.34 1.86-11.991 0 0 0-0.93 0-0.93-0.93-0.93-0.93 0-1.86 0-1.86 1.86-2.79 2.79-4.65 4.65-9.201 10.131-20.362 19.432-31.423 28.633-10.131 8.271-22.222 15.712-34.213 21.292-1.86 0.93-3.72 0.93-4.65 1.86s-1.86 1.86-1.86 2.79-1.86 3.72-1.86 4.65c-11.991 35.143-26.773 69.357-43.415 102.541-4.65 10.131-10.131 19.432-14.782 28.633-0.93 1.86-1.86 2.79-2.79 4.65-0.93 0.93-1.86 0.93-2.79 1.86-3.72 0-8.271 0-11.991-0.93-0.93 0-1.86-1.86-1.86-3.72s0.93-3.72 1.86-4.65c5.58-11.061 11.061-22.222 16.642-33.283 11.991-23.983 21.292-49.925 27.703-75.768 0.93-1.86 0.93-4.65 0.93-6.51 0-0.93-0.93-0.93-1.86-0.93 0 0-0.93 0-0.93 0-1.86 0.93-3.72 1.86-6.51 2.79-14.782 6.51-29.563 13.852-43.415 22.222-8.271 4.65-15.712 10.131-23.983 14.782-12.922 8.271-25.843 17.572-37.934 27.703-7.34 6.51-13.852 11.991-21.292 18.502-9.201 8.271-17.572 17.572-25.843 26.773-1.86 2.79-4.65 4.65-6.51 7.34-0.93 0.93-1.86 0.93-2.79 0.93s-1.86 0-1.86 0c-5.58-0.93-11.061-1.86-15.712-2.79 0 0-0.93 0-0.93-0.93-0.93-0.93-1.86-2.79-0.93-3.72 0.93-1.86 1.86-2.79 3.72-4.65 11.991-12.922 23.983-24.913 37.934-36.073 24.913-20.362 50.855-37.934 79.488-52.715 20.362-11.061 41.555-21.292 61.916-31.423 3.72-1.86 7.34-3.72 11.061-5.58 0.93-0.93 2.79-1.86 2.79-2.79 1.86-7.34 3.72-13.852 5.58-21.292 4.65-15.712 9.201-30.493 14.782-45.275 0.93-0.93 0.93-2.79 0.93-3.72s0-1.86 0-2.79c0 0 0.93 0 0.93 0s0-0.93 0-0.93c-0.93 0-0.93 0 0 0.93-0.93 0-1.86 0-1.86 0-0.93 0.93-1.86 1.86-2.79 2.79-5.58 6.51-11.991 12.922-17.572 19.432-6.51 7.34-12.922 13.852-20.362 19.432-3.72 2.79-7.34 5.58-11.061 7.34-2.79 1.86-6.51 2.79-10.131 4.65-2.79 0.93-4.65 0.93-7.34 0.93-5.58 0-9.201-2.79-11.061-7.34-1.86-3.72-2.79-7.34-2.79-11.991s0-8.271 0.93-12.922c0.93-4.65 1.86-10.131 1.86-14.782 0 0 0-0.93 0-0.93s-0.93 0-0.93 0-1.86 0.93-2.79 1.86c-4.65 5.58-9.201 11.061-14.782 15.712-6.51 7.34-13.852 13.852-21.292 20.362-2.79 2.79-6.51 4.65-9.201 7.34-2.79 1.86-4.65 2.79-7.34 3.72s-4.65 0.93-7.34 0.93-7.34-2.79-9.201-6.51c-1.86-2.79-2.79-6.51-2.79-10.131 0-5.58 0-11.061 0.93-16.642 1.86-7.34 2.79-15.712 4.65-23.052 0-1.86 0.93-3.72 0.93-5.58 0-0.93 0-0.93-0.93-1.86 0 0-0.93 0-0.93 0-1.86 1.86-2.79 2.79-4.65 4.65-7.34 9.201-16.642 18.502-24.913 27.703-5.58 6.51-11.991 11.991-18.502 17.572-2.79 2.79-6.51 4.65-9.201 7.34-2.79 1.86-5.58 3.72-8.271 4.65-1.86 0.93-3.72 0.93-6.51 0.93-1.86 0-3.72 0-5.58 0-3.72 0-6.51-1.86-8.271-4.65-1.86-1.86-2.79-4.65-3.72-6.51-0.93-4.65-1.86-10.131-0.93-14.782 0.93-11.991 3.72-23.052 6.51-34.213 0.93-3.72 1.86-7.34 2.79-10.131 0 0 0-0.93 0-0.93s-0.93 0-1.86 0c-1.86 0.93-2.79 2.79-3.72 3.72-6.51 8.271-13.852 16.642-21.292 24.913-5.58 5.58-10.131 11.061-15.712 16.642-6.51 6.51-14.782 12.922-23.052 18.502-4.65 2.79-8.271 5.58-13.852 6.51-4.65 1.86-9.201 1.86-13.852 0.93-5.58-0.93-9.201-4.65-11.061-9.201-1.86-3.72-1.86-7.34-1.86-11.991 0-1.86 0.93-4.65 0.93-6.51 0-2.79 0.93-5.58 0.93-8.271-11.991 0.93-12.922 0-12.922-0.93 0 0 0 0.93 0 0v0zM441.376 1349.635c-9.201 0-18.502 0-26.773-0.93-1.86 0-3.72 0-5.58 0s-2.79 0.93-3.72 1.86c-0.93 0.93-2.79 2.79-3.72 3.72-3.72 4.65-7.34 9.201-11.991 13.852-16.642 20.362-34.213 39.695-52.715 58.196-7.34 7.34-14.782 13.852-21.292 21.292-8.271 8.271-17.572 16.642-25.843 24.913-2.79 2.79-6.51 5.58-9.201 9.201-4.65 5.58-9.201 10.131-14.782 14.782-1.86 1.86-2.79 3.72-3.72 5.58-6.51 14.782-11.061 28.633-14.782 44.345-3.72 16.642-7.34 33.283-12.922 48.995 0 0.93-0.93 2.79-0.93 4.65 0 0.93 0 1.86 0.93 1.86 0 0 0.93 0 0.93 0 1.86-0.93 3.72-0.93 4.65-1.86 14.782-8.271 27.703-17.572 40.625-29.563s23.983-25.843 35.143-39.695c0.93-1.86 1.86-2.79 2.79-4.65 4.65-10.131 10.131-20.362 14.782-30.493s9.201-20.362 14.782-30.493c1.86-2.79 2.79-6.51 4.65-10.131 0-0.93 0-0.93 0.93-1.86 0-0.93-0.93-2.79-1.86-2.79-1.86 0-3.72 0.93-5.58 0.93-0.93 0-1.86 0-2.79 0s-1.86-1.86-1.86-2.79c0-0.93 0.93-0.93 0.93-1.86 4.65-4.65 10.131-8.271 15.712-11.061 1.86-0.93 3.72-1.86 5.58-2.79s3.72-0.93 5.58-0.93 7.34 2.79 8.271 7.34c0 1.86 0.93 4.65 0 6.51 0 5.58-1.86 11.061-3.72 16.642-2.79 7.34-5.58 13.852-9.201 21.292s-7.34 13.852-10.131 21.292c-5.58 11.991-11.061 23.983-14.782 36.073-1.86 4.65-3.72 9.201-4.65 14.782-1.86 5.58-1.86 11.061-0.93 17.572 0 1.86 0.93 3.72 2.79 4.65 0.93 0.93 1.86 0.93 2.79 0.93 1.86 0 3.72-0.93 4.65-1.86 2.79-1.86 5.58-3.72 8.271-6.51 7.34-6.51 14.782-13.852 22.222-21.292 9.201-10.131 18.502-21.292 27.703-32.353 5.58-6.51 10.131-12.922 15.712-19.432 1.86-2.79 3.72-5.58 5.58-9.201 1.86-4.65 3.72-10.131 5.58-14.782 2.79-8.271 6.51-15.712 11.061-23.983 1.86-3.72 4.65-7.34 6.51-11.061 0.93-1.86 2.79-3.72 4.65-4.65 2.79-2.79 5.58-3.72 10.131-3.72 3.72 0 7.34 0.93 9.201 4.65 1.86 1.86 2.79 3.72 3.72 5.58 1.86 5.58 3.72 11.991 2.79 18.502 0 1.86-0.93 4.65-1.86 6.51-0.93 0.93-1.86 0.93-2.79 0-1.86-0.93-1.86-2.79-2.79-4.65-0.93-0.93-2.79-1.86-3.72-0.93-0.93 0-0.93 0.93-1.86 0.93-3.72 2.79-5.58 6.51-8.271 10.131s-4.65 8.271-6.51 12.922c-5.58 11.991-9.201 23.983-12.922 37.003-2.79 10.131-5.58 20.362-8.271 30.493-0.93 2.79-0.93 6.51-1.86 9.201-0.93 3.72-0.93 7.34 0 11.061 0 0.93 0.93 1.86 0.93 2.79 0.93 1.86 2.79 2.79 4.65 2.79s4.65 0 6.51-0.93c4.65-1.86 8.271-4.65 11.991-7.34 9.201-9.201 18.502-18.502 26.773-28.633 8.271-9.201 15.712-19.432 23.052-28.633 1.86-1.86 2.79-4.65 3.72-6.51 1.86-5.58 3.72-10.131 5.58-15.712 4.65-11.991 9.201-23.052 14.782-35.143 18.502-40.625 37.003-81.348 57.266-121.043 0.93-1.86 1.86-3.72 2.79-5.58 0 0 0-0.93 0-0.93 0-0.93-0.93-0.93-1.86-0.93s-1.86 0.93-2.79 0.93c-20.362 10.131-42.485 15.712-65.637 19.432-8.271 0.93-17.572 2.79-25.843 2.79-2.79 0-4.65 0-7.34 0.93-6.51 0.93-12.922 0.93-19.432 0.93-9.201 0-14.782-0.93-20.362-0.93zM243.635 1341.364c-19.432 0-38.865 0-57.266 0-3.72 0-6.51 0-10.131 0-0.93 0-1.86 0.93-2.79 1.86-2.79 2.79-4.65 6.51-6.51 10.131-10.131 21.292-21.292 42.485-30.493 63.777-6.51 14.782-12.922 29.563-19.432 45.275-2.79 7.34-6.51 14.782-8.271 22.222-3.72 11.061-7.34 22.222-11.061 33.283-2.79 10.131-5.58 21.292-8.271 31.423-0.93 5.58-1.86 11.061-1.86 15.712 0 2.79 0 5.58 0.93 8.271 0.93 1.86 2.79 2.79 3.72 2.79 1.86 0 4.65 0 6.51-0.93 2.79-0.93 4.65-2.79 7.34-4.65 2.79-2.79 5.58-5.58 8.271-8.271 4.65-5.58 10.131-10.131 14.782-15.712 5.58-5.58 10.131-11.991 14.782-18.502 1.86-2.79 3.72-5.58 4.65-8.271 2.79-8.271 5.58-15.712 8.271-23.052 4.65-13.852 11.061-27.703 17.572-40.625 2.79-5.58 5.58-10.131 9.201-14.782 1.86-2.79 3.72-4.65 5.58-6.51 2.79-2.79 5.58-3.72 9.201-4.65 0.93 0 1.86 0 1.86 0 2.79 0 5.58 1.86 7.34 3.72s2.79 3.72 3.72 5.58c2.79 6.51 2.79 12.922 1.86 20.362 0 0.93 0 0.93-0.93 1.86 0 0.93-0.93 1.86-2.79 1.86-0.93 0-1.86-0.93-2.79-1.86s-0.93-1.86-0.93-2.79c-0.93-1.86-2.79-1.86-4.65-0.93-0.93 0.93-1.86 1.86-2.79 2.79-3.72 3.72-6.51 8.271-8.271 12.922-1.86 2.79-2.79 6.51-4.65 10.131-6.51 14.782-11.061 29.563-15.712 45.275-3.72 11.991-3.72 14.782-5.58 26.773-0.93 3.72-0.93 7.34 0 11.061 0 1.86 0.93 2.79 1.86 3.72 1.86 1.86 3.72 1.86 5.58 1.86 3.72-0.93 7.34-2.79 11.061-4.65s7.34-4.65 10.131-8.271c3.72-3.72 8.271-7.34 11.991-11.061 10.131-11.061 20.362-22.222 28.633-35.143 1.86-2.79 2.79-4.65 3.72-7.34 3.72-10.131 7.34-20.362 11.991-30.493 4.65-11.061 9.201-21.292 13.852-31.423 12.922-29.563 26.773-58.196 40.625-87.76 0.93-2.79 2.79-5.58 3.72-7.34 1.86-3.72 0.93-4.65-2.79-4.65s-6.51 0-10.131 0c-15.712-2.79-34.213-2.79-50.855-2.79zM635.397 1257.225c-1.86 4.65-4.65 9.201-6.51 13.852-0.93 1.86-1.86 3.72-2.79 5.58 0 0 0 0.93 0 0.93s0.93 0 0.93 0c0 0 0.93 0 0.93 0 1.86-0.93 3.72-2.79 5.58-3.72 0.93 0 0.93-0.93 1.86-0.93s0.93 0 1.86 0 0.93 1.86 0.93 2.79c-0.93 0.93-0.93 1.86-1.86 2.79-5.58 7.34-11.991 13.852-18.502 19.432-3.72 2.79-5.58 6.51-7.34 10.131-3.72 8.271-7.34 16.642-11.061 24.913-12.922 28.633-25.843 57.266-38.865 85.899-5.58 11.991-11.061 23.983-16.642 37.003-0.93 1.86-1.86 3.72-1.86 6.51 0 0 0 0.93 0.93 0.93 0 0 0.93 0 0.93 0 1.86-0.93 2.79-1.86 4.65-3.72 22.222-21.292 43.415-43.415 64.707-65.637 15.712-17.572 31.423-35.143 45.275-54.476 24.913-32.353 46.205-67.497 62.847-104.401 15.712-34.213 27.703-71.118 34.213-108.121 0.93-6.51 1.86-13.852 0.93-20.362 0-0.93 0-1.86-0.93-2.79-0.93-3.72-3.72-5.58-7.34-3.72-0.93 0-1.86 0.93-2.79 0.93-2.79 1.86-4.65 2.79-7.34 4.65-2.79 2.79-5.58 4.65-8.271 7.34-8.271 8.271-15.712 16.642-23.052 25.843-9.201 11.991-17.572 24.913-26.773 37.003-8.271 12.922-16.642 25.843-23.052 38.865-7.34 13.852-13.852 27.703-21.292 42.485zM376.669 1329.273c1.86 0 6.51 0.93 10.131 0.93s8.271 0 11.991 0.93c2.79 0 3.72-0.93 5.58-2.79 0.93-0.93 1.86-2.79 2.79-3.72 17.572-25.843 33.283-53.645 47.135-81.348 15.712-34.213 26.773-69.357 34.213-106.261 0.93-7.34 1.86-14.782 0.93-21.292 0-0.93 0-1.86 0-2.79 0-1.86-0.93-2.79-1.86-3.72s-1.86-1.86-3.72-1.86c-1.86 0-3.72 0.93-4.65 1.86-2.79 1.86-4.65 3.72-6.51 5.58-3.72 3.72-7.34 7.34-11.061 10.131-7.34 7.34-12.922 14.782-19.432 23.052-11.061 14.782-21.292 29.563-32.353 45.275-3.72 5.58-7.34 11.061-11.061 17.572-6.51 11.061-11.991 21.292-17.572 32.353-7.34 14.782-14.782 29.563-22.222 45.275-5.58 11.061-11.061 22.222-15.712 33.283-0.93 0.93-0.93 2.79-1.86 3.72 0 0.93 0.93 1.86 1.86 2.79 3.72 0.93 8.271 0.93 11.991 0.93 5.58-0.93 12.922-0.93 21.292 0zM-260.067 1556.676c0 1.86 0 2.79 0 3.72 0.93 5.58 2.79 10.131 6.51 12.922 2.79 2.79 6.51 3.72 10.131 3.72 1.86 0 4.65 0 6.51-0.93 4.65-0.93 8.271-2.79 11.991-4.65 4.65-2.79 10.131-6.51 13.852-10.131 11.061-9.201 20.362-20.362 28.633-32.353 2.79-3.72 4.65-8.271 7.34-11.991 6.51-11.991 11.061-23.983 16.642-37.003 2.79-5.58 3.72-11.991 4.65-17.572 0.93-3.72 0-8.271-0.93-11.991-2.79-8.271-10.131-11.991-17.572-11.061-5.58 0-11.061 1.86-15.712 4.65-6.51 2.79-11.991 7.34-16.642 11.061-13.852 11.061-23.983 24.913-32.353 39.695-6.51 11.991-11.991 23.983-15.712 37.003-1.86 5.58-2.79 11.061-3.72 16.642-3.72 3.72-3.72 6.51-3.72 8.271zM340.596 1344.055c-9.201-0.93-8.271 0-11.061 5.58-0.93 1.86-1.86 4.65-2.79 6.51-15.712 34.213-31.423 69.357-47.135 103.471-1.86 3.72-2.79 6.51-4.65 10.131 0 0.93 0 1.86 0.93 1.86 0 0 0.93 0 0.93 0 0.93-0.93 2.79-1.86 3.72-2.79 23.983-23.052 47.135-46.205 69.357-71.118 11.991-13.852 23.983-27.703 34.213-41.555 0.93-1.86 2.79-3.72 3.72-5.58 0.93-0.93 0-2.79-0.93-2.79-5.58-0.93-11.061-1.86-17.572-1.86-8.271-0.93-16.642-0.93-24.913-1.86-1.86 0-3.72 0-3.72 0zM-369.119 1531.664c14.782-6.51 28.633-13.852 42.485-23.983 9.201-6.51 17.572-14.782 24.913-23.983 2.79-3.72 5.58-6.51 7.34-11.061 2.79-4.65 4.65-10.131 5.58-14.782 0.93-3.72 0-6.51-0.93-9.201-1.86-5.58-6.51-7.34-11.991-8.271-3.72 0-6.51 0.93-9.201 1.86-11.991 4.65-23.052 11.991-31.423 22.222s-15.712 21.292-20.362 33.283c-3.72 10.131-7.34 21.292-9.201 32.353 0 0.93 0 1.86 0.93 1.86 0 0.93 0.93 0 1.86 0z"></path>
<path fill="#FFFFFF" d="M-671.314 993.848c-7.34 0-14.782 0-23.052 0-6.51 0-13.852 0-20.362 1.86-5.58 0.93-11.061 0.93-15.712 2.79-11.061 1.86-21.292 4.65-31.423 7.34-19.432 5.58-37.934 11.991-56.336 19.432-15.712 6.51-30.493 14.782-45.275 23.983-20.362 13.852-38.865 30.493-54.476 49.925-4.65 5.58-8.271 11.991-11.991 18.502s-5.58 12.922-7.34 19.432c-1.86 7.34-1.86 14.782-0.93 22.222 0.93 4.65 2.79 9.201 6.51 12.922 2.79 2.79 5.58 5.58 9.201 7.34 6.51 3.72 12.922 5.58 20.362 6.51 8.271 0.93 17.572 0.93 25.843 0 5.58-0.93 11.061-1.86 15.712-2.79 7.34-1.86 13.852-4.65 20.362-6.51 8.271-3.72 17.572-7.34 25.843-11.991 5.58-2.79 11.061-7.34 14.782-11.991 1.86-1.86 2.79-4.65 2.79-6.51 0-0.93 0-1.86 0-1.86-0.93-3.72-2.79-4.65-5.58-5.58-0.93 0-2.79-0.93-4.65-0.93s-3.72 0-5.58-0.93c-0.93 0-1.86-1.86-1.86-2.79s0.93-0.93 0.93-1.86c0 0 0.93-0.93 0.93-0.93 7.34-2.79 14.782-5.58 23.052-5.58 3.72 0 8.271 0 11.991 0.93 6.51 1.86 10.131 5.58 11.061 11.991 0 0.93 0 1.86 0 1.86 0 2.79-0.93 5.58-2.79 8.271-0.93 1.86-2.79 3.72-4.65 5.58-4.65 4.65-9.201 8.271-13.852 11.991-11.991 8.271-24.913 15.712-37.934 21.292s-25.843 9.201-39.695 11.991c-6.51 0.93-13.852 1.86-20.362 2.79-4.65 0-10.131 0-14.782-0.93-5.58-0.93-11.061-0.93-15.712-2.79-10.131-2.79-17.572-7.34-23.983-15.712-1.86-2.79-4.65-5.58-5.58-9.201-3.72-7.34-4.65-14.782-4.65-23.052 0.93-9.201 2.79-17.572 6.51-25.843 2.79-5.58 5.58-10.131 8.271-14.782 16.642-25.843 37.934-47.135 62.847-63.777 22.222-14.782 45.275-26.773 70.188-36.073 18.502-7.34 37.934-13.852 57.266-18.502 12.922-2.79 24.913-5.58 37.934-7.34 8.271-1.86 16.642-1.86 24.913-3.72 2.79 0 5.58-0.93 8.271-0.93 14.782-0.93 29.563-0.93 44.345 0 3.72 0 8.271 0.93 11.991 0.93 1.86 0 2.79 0 4.65 0.93 10.131 0.93 19.432 2.79 28.633 3.72 1.86 0 2.79 0 3.72-0.93s1.86-1.86 3.72-2.79c9.201-9.201 19.432-17.572 28.633-26.773 2.79-2.79 5.58-5.58 9.201-8.271 8.271-7.34 17.572-12.922 26.773-17.572 3.72-1.86 8.271-3.72 11.991-4.65s7.34-0.93 11.061-0.93c1.86 0 3.72 0.93 5.58 2.79 0.93 0.93 0.93 1.86 1.86 2.79 0.93 1.86 0.93 4.65 0.93 6.51 0 5.58-0.93 10.131-2.79 14.782-3.72 11.061-10.131 20.362-19.432 28.633-0.93 0.93-0.93 0.93-1.86 0-0.93 0-1.86-1.86-0.93-2.79 0 0 0-0.93 0-0.93 1.86-3.72 2.79-7.34 1.86-11.061 0-2.79-0.93-4.65-2.79-7.34s-3.72-4.65-6.51-4.65c-0.93 0-1.86 0-1.86 0-1.86 0.93-4.65 0.93-6.51 1.86-8.271 3.72-15.712 7.34-22.222 12.922-7.34 6.51-14.782 12.922-22.222 19.432 0 0 0 0.93-0.93 0.93-0.93 0.93 0 2.79 0.93 2.79 7.34 2.79 14.782 4.65 21.292 7.34 6.51 1.86 11.991 3.72 18.502 6.51 21.292 8.271 40.625 21.292 57.266 37.003 2.79 1.86 4.65 4.65 6.51 7.34 7.34 8.271 12.922 18.502 15.712 29.563 0.93 4.65 1.86 9.201 1.86 13.852 0.93 11.061-1.86 21.292-6.51 30.493-5.58 11.061-12.922 22.222-22.222 30.493-4.65 4.65-10.131 9.201-15.712 13.852-6.51 5.58-12.922 10.131-20.362 13.852-7.34 4.65-14.782 8.271-21.292 11.991-0.93 0-0.93 0.93-0.93 1.86 0 0 0 0.93 0.93 0.93s0.93 0.93 1.86 0.93c0.93 0 0.93 0 1.86 0.93 15.712 3.72 31.423 8.271 46.205 14.782 24.913 11.061 44.345 27.703 59.126 50.855 8.271 12.922 13.852 25.843 17.572 40.625 1.86 7.34 1.86 13.852 3.72 21.292 0.93 13.852 0.93 28.633-0.93 42.485 0 2.79-0.93 6.51-0.93 10.131 0 0.93 0.93 1.86 1.86 2.79 2.79 0.93 4.65 1.86 7.34 1.86 19.432 3.72 39.695 8.271 59.126 12.922 9.201 2.79 18.502 4.65 26.773 7.34 0.93 0 2.79 0.93 3.72 1.86 0 0 0.93 0.93 0.93 0.93 0.93 0.93 0 2.79-0.93 2.79s-1.86 0-2.79 0c-10.131-2.79-19.432-4.65-29.563-6.51-12.922-2.79-26.773-4.65-39.695-6.51-6.51-0.93-13.852-1.86-20.362-3.72-2.79 0-4.65-0.93-7.34-0.93-0.93 0-2.79 0.93-2.79 1.86-0.93 2.79-1.86 5.58-1.86 8.271-6.51 24.913-16.642 48.995-29.563 72.048-9.201 17.572-21.292 34.213-33.283 49.925s-24.913 30.493-38.865 44.345c-19.432 19.432-38.865 37.003-60.056 52.715-9.201 7.34-19.432 13.852-29.563 20.362-19.432 11.991-38.865 23.983-59.126 34.213-21.292 11.061-43.415 19.432-67.497 23.983-8.271 1.86-16.642 3.72-25.843 4.65s-18.502 0.93-26.773 0c-10.131-0.93-19.432-4.65-27.703-9.201-12.922-7.34-22.222-19.432-27.703-33.283-2.79-7.34-4.65-14.782-5.58-23.052-0.93-7.34 0-14.782 0-21.292 0.93-5.58 1.86-11.061 3.72-15.712 3.72-12.922 8.271-25.843 13.852-37.934 22.222-52.715 58.196-93.34 106.261-123.833 24.913-15.712 51.785-27.703 79.488-36.073 19.432-5.58 38.865-11.061 59.126-14.782 11.061-2.79 23.052-4.65 34.213-6.51 1.86 0 4.65-0.93 6.51-0.93 2.79 0 5.58-0.93 8.271-0.93s6.51-0.93 9.201-0.93c4.65 0 8.271-0.93 12.922-0.93 1.86 0 2.79 0 4.65 0 14.782-0.93 29.563-1.86 44.345-0.93 5.58 0 11.061 0.93 16.642 0.93 0.93 0 1.86 0 3.72 0 0.93 0 2.79-0.93 2.79-2.79 0.93-7.34 2.79-13.852 2.79-21.292 0-4.65 0-9.201 0-13.852 0-23.983-6.51-46.205-19.432-67.497-6.51-10.131-13.852-19.432-23.983-26.773-3.72-2.79-7.34-5.58-11.061-7.34-15.712-10.131-33.283-18.502-50.855-24.913-5.58-1.86-11.991-3.72-17.572-4.65-3.72-0.93-6.51 0-9.201 0.93-1.86 0.93-3.72 1.86-6.51 2.79-27.703 11.061-55.406 22.222-83.208 31.423-15.712 5.58-32.353 10.131-48.995 14.782-9.201 2.79-18.502 4.65-28.633 6.51-1.86 0-2.79 0.93-3.72 2.79-1.86 2.79-2.79 5.58-4.65 8.271-14.782 27.703-28.633 55.406-43.415 82.278-11.991 22.222-23.052 44.345-35.143 66.567-27.703 51.785-59.126 100.681-95.2 147.816-10.131 13.852-21.292 27.703-32.353 40.625-16.642 19.432-34.213 37.934-53.645 55.406-26.773 23.983-57.266 41.555-91.48 53.645-9.201 2.79-18.502 5.58-28.633 7.34-5.58 0.93-11.061 1.86-17.572 1.86-16.642 0.93-32.353-1.86-48.065-7.34-10.131-3.72-19.432-9.201-27.703-16.642-12.922-11.991-22.222-26.773-27.703-43.415-2.79-8.271-4.65-16.642-5.58-24.913-0.93-7.34-1.86-14.782-1.86-21.292 0-13.852 0.93-27.703 4.65-40.625 10.131-43.415 28.633-83.208 56.336-119.183 20.362-26.773 45.275-50.855 72.048-71.118 10.131-7.34 21.292-14.782 31.423-20.362 30.493-17.572 62.847-32.353 97.060-43.415 17.572-5.58 34.213-10.131 51.785-14.782 8.271-1.86 16.642-3.72 24.913-4.65 13.852-1.86 27.703-2.79 41.555-0.93 3.72 0 7.34 1.86 10.131 2.79 1.86 0.93 2.79 1.86 4.65 2.79 0.93 0.93 1.86 1.86 1.86 3.72 0.93 4.65 0.93 8.271-1.86 12.922-1.86 3.72-5.58 7.34-8.271 10.131-7.34 6.51-16.642 11.991-25.843 15.712-0.93 0.93-2.79 0.93-4.65 0.93-0.93 0-1.86 0-2.79-1.86 0-0.93 0-1.86 0-1.86 1.86-1.86 2.79-2.79 4.65-4.65 2.79-3.72 5.58-7.34 5.58-11.061 0 0 0-0.93 0-0.93 0.93-3.72-0.93-6.51-4.65-8.271s-6.51-2.79-10.131-2.79c-10.131 0-21.292 0-31.423 0.93-6.51 0.93-11.991 1.86-18.502 2.79-19.432 3.72-38.865 8.271-58.196 14.782-8.271 2.79-16.642 5.58-23.983 9.201-26.773 11.991-51.785 26.773-75.768 44.345-12.922 10.131-25.843 20.362-37.003 31.423-30.493 30.493-51.785 65.637-65.637 106.261-4.65 14.782-8.271 29.563-10.131 44.345-0.93 10.131-2.79 21.292-1.86 31.423 0 16.642 2.79 32.353 8.271 48.065 4.65 13.852 11.991 24.913 23.052 35.143 11.991 10.131 25.843 17.572 41.555 21.292 12.922 2.79 25.843 3.72 38.865 1.86 22.222-2.79 42.485-10.131 60.986-21.292 11.061-6.51 20.362-12.922 30.493-21.292 11.991-10.131 23.052-21.292 34.213-33.283 29.563-34.213 55.406-70.188 78.558-109.051 17.572-30.493 35.143-61.916 50.855-93.34 21.292-41.555 42.485-82.278 62.847-123.833 6.51-11.991 11.991-23.983 18.502-36.073 0-0.93 0-0.93 0-1.86s-0.93-0.93-0.93-1.86c0 0-0.93 0-0.93 0-5.58 0.93-11.061 1.86-17.572 2.79-4.65 0.93-8.271 0.93-12.922 0.93-5.58 0-10.131-0.93-14.782-2.79-6.51-1.86-9.201-8.271-8.271-14.782 0.93-3.72 1.86-6.51 4.65-8.271 1.86-2.79 4.65-4.65 7.34-6.51 6.51-4.65 12.922-8.271 19.432-11.061 11.991-5.58 23.983-11.061 37.003-14.782 4.65-1.86 9.201-2.79 13.852-4.65 1.86-0.93 3.72-1.86 6.51-1.86 0.93 0 1.86-0.93 2.79-1.86 1.86-2.79 3.72-5.58 4.65-8.271 16.642-30.493 35.143-60.056 52.715-89.62 20.362-33.283 43.415-63.777 69.357-93.34 1.86-1.86 3.72-3.72 4.65-5.58 0-0.93 0-1.86-0.93-1.86-2.79-0.93-5.58-1.86-8.271-2.79-6.51-1.86-20.362-3.72-26.773-4.65-5.58 0-11.061-0.93-16.642-0.93 1.86-6.51-5.58-6.51-12.922-6.51zM-821.048 1628.724c0 7.34 0 14.782 1.86 21.292 0.93 4.65 2.79 9.201 4.65 12.922 4.65 9.201 11.991 16.642 22.222 20.362 5.58 1.86 11.061 3.72 16.642 4.65 10.131 1.86 20.362 1.86 30.493 0 1.86 0 3.72-0.93 5.58-0.93 5.58 0 11.061-1.86 16.642-2.79 16.642-4.65 33.283-10.131 48.995-17.572 23.052-11.061 44.345-23.983 64.707-38.865 21.292-15.712 41.555-32.353 60.056-50.855 11.061-10.131 21.292-21.292 30.493-32.353 17.572-21.292 33.283-44.345 46.205-69.357 14.782-26.773 26.773-55.406 37.003-84.138 0-0.93 0.93-1.86 0.93-2.79s-0.93-1.86-1.86-2.79c-2.79-0.93-4.65-0.93-7.34-0.93-14.782-0.93-29.563-0.93-44.345 0-12.922 0.93-24.913 0.93-37.934 2.79-7.34 0-14.782 1.86-22.222 2.79-11.991 2.79-23.983 4.65-36.073 8.271-37.934 10.131-73.908 24.913-107.191 45.275-42.485 24.913-75.768 59.126-101.611 100.681-11.061 17.572-19.432 37.003-23.983 58.196-1.86 7.34-3.72 16.642-3.72 25.843zM-603.858 1187.038c6.51 0 15.712 0 24.913 0s7.34 0.93 16.642-3.72c2.79-0.93 4.65-1.86 7.34-2.79 14.782-7.34 29.563-15.712 42.485-25.843 9.201-7.34 17.572-14.782 24.913-23.983 5.58-6.51 10.131-13.852 13.852-22.222 1.86-4.65 2.79-10.131 3.72-15.712 0-0.93 0-1.86 0-3.72-0.93-4.65-1.86-10.131-3.72-14.782-1.86-3.72-3.72-7.34-6.51-11.061-3.72-5.58-9.201-10.131-13.852-14.782-8.271-7.34-17.572-13.852-27.703-19.432-7.34-4.65-14.782-8.271-23.052-11.991-11.061-5.58-23.052-9.201-36.073-11.991-1.86-0.93-3.72 0-4.65 0.93-3.72 2.79-5.58 6.51-8.271 10.131-20.362 27.703-39.695 56.336-55.406 86.829-14.782 27.703-30.493 55.406-45.275 83.208-0.93 1.86-1.86 3.72-2.79 5.58 0 0.93 0 0.93-0.93 1.86 0 0.93 0 1.86 0.93 1.86 6.51-0.93 12.922-1.86 19.432-2.79 8.271-0.93 17.572-2.79 25.843-2.79 1.86 0 4.65-0.93 6.51-0.93 3.72 0 8.271-0.93 11.991-0.93 9.201-0.93 18.502-0.93 29.563-0.93zM-718.449 1246.164c0 0.93 0 0.93 0 0 3.72-0.93 7.34-1.86 10.131-2.79 22.222-6.51 43.415-12.922 64.707-21.292 13.852-5.58 26.773-11.061 39.695-17.572 1.86-0.93 3.72-1.86 4.65-2.79 0 0 0-0.93 0-0.93s0-0.93-0.93-0.93-1.86-0.93-2.79-0.93c-7.34 0-14.782 0-23.052 0-5.58 0-11.991 0.93-17.572 0.93-6.51 0-11.991 0.93-18.502 1.86-7.34 0.93-14.782 1.86-22.222 2.79-6.51 0.93-12.922 1.86-19.432 2.79-0.93 0-1.86 0.93-2.79 1.86 0 0 0 0.93-0.93 0.93-5.58 11.061-11.061 23.052-16.642 34.213 0 0.93 0 1.86 0 1.86 0 0.93 0.93 0.93 1.86 0.93 1.86 0 2.79 0 3.72-0.93zM-794.233 1258.155c7.34 0 14.782-0.93 21.292-2.79 3.72-0.93 7.34-1.86 11.991-1.86 0.93 0 1.86 0 1.86-0.93 0.93-0.93 1.86-0.93 2.79-1.86 0.93 0 0.93-0.93 0.93-1.86 5.58-10.131 11.061-20.362 15.712-30.493 0 0 0-0.93 0-0.93 0-0.93-0.93-0.93-0.93-0.93-0.93 0-1.86 0-2.79 0.93-10.131 2.79-20.362 6.51-29.563 10.131-7.34 2.79-13.852 6.51-20.362 10.131-3.72 2.79-7.34 5.58-11.061 8.271-0.93 0.93-1.86 1.86-2.79 2.79s-0.93 0.93-0.93 1.86c-0.93 1.86 0 3.72 1.86 4.65 2.79 2.79 7.34 3.72 11.991 2.79z"></path>
<path fill="#FFFFFF" d="M1221.368 1503.031c0 0.93 0.93 0.93 0 0z"></path>
</svg>
