<!-- Generated by IcoMoon.io -->
<svg version="1.1" xmlns="http://www.w3.org/2000/svg" style="stroke-width: 2px;" width="1024" height="1024" viewBox="0 0 1024 1024">
<title></title>
<g id="icomoon-ignore">
</g>
<path fill="#FFFFFF" d="M767.368 377.681c0-6.479-8.446-19.515-13.035-19.515 4.589 0 13.691-13.035 13.691-19.515 0 6.479 8.446 19.515 13.035 19.515-4.589 0-13.691 13.035-13.691 19.515z"></path>
<path fill="#bc2140" d="M350.702 425.888c0-6.479-8.446-19.515-13.035-19.515 4.589 0 13.691-13.035 13.691-19.515 0 6.479 8.446 19.515 13.035 19.515-4.589 0-13.691 13.035-13.691 19.515z"></path>
<path fill="#bc2140" d="M457.471 189.522c0-6.479-8.446-19.515-13.035-19.515 4.589 0 13.691-13.035 13.691-19.515 0 6.479 8.446 19.515 13.035 19.515-4.589 0-13.691 13.035-13.691 19.515z"></path>
<path fill="#bc2140" d="M691.856 578.223v-0.656z"></path>
<path fill="#bc2140" d="M700.957 545.673c2.622-11.069 5.244-25.414-2.622-35.172 0-0.656 0.656-1.311 0.656-1.967 4.589-11.069 0.656-22.792-5.824-31.894-3.278-4.589-6.479-9.102-10.413-13.691 1.967-14.346-1.311-28.617-6.479-42.962-2.622-7.79-3.933-16.313-7.135-24.103-3.278-7.135-7.135-13.691-11.069-20.17 0.656-2.622 0.656-5.244 1.311-7.79 1.967-10.413 3.933-21.481 5.824-31.894 2.622-10.413 5.244-20.826 7.79-31.894 2.622-13.691 4.589-27.961 5.244-42.307 3.933-61.822-31.239-27.305-38.374 7.79-3.278 12.38-5.244 24.759-6.479 37.138-0.656 9.102-1.311 18.203-3.278 27.305-4.589-6.479-9.758-12.38-15.002-18.203-7.79-9.758-16.313-18.859-24.103-28.617-8.446-11.069-17.548-21.481-30.583-26.726-7.135-2.622-15.657-5.824-20.17 2.622-2.622 3.933-3.278 9.102-2.622 14.346 0 6.479 2.622 12.38 5.824 17.548 3.933 7.135 10.413 12.38 16.313 18.859 9.102 8.446 16.313 18.859 25.414 27.961 14.346 13.691 21.481 25.414 26.070 44.929 0.656 3.278 1.311 6.479 1.967 10.413-1.311-1.311-3.278-1.967-4.589-3.278-7.135-5.244-15.657-8.446-23.448-10.413-21.481-7.135-42.962-14.346-63.788-22.137-1.967-0.656-3.933-1.311-5.824-2.622-3.933-6.479-7.79-12.38-13.691-16.892-5.244-2.622-10.413-5.824-16.313-4.589-4.589 1.311-8.446 2.622-11.069 6.479-5.824 0.656-12.38 3.278-15.002 9.102-1.311 4.589 1.967 9.758 3.933 13.691 1.311 2.622 3.278 4.589 5.244 5.824 0 0 0 0 0 0 1.311 6.479 3.278 13.035 4.589 19.515 6.479 22.137 15.002 43.618 18.203 66.41 0 0.656 0 1.967 0 2.622-6.479 0.656-13.035 3.278-17.548 9.102-1.311 1.311-1.967 3.278-1.967 4.589 0 1.967-0.656 4.589 0 6.479 1.311 3.933 5.244 7.135 8.446 9.102 3.933 1.967 8.446 3.933 12.38 5.244-0.656 11.069 0 21.481 0.656 32.55 0 7.135-0.656 14.346 0 21.481s1.967 14.346 3.933 21.481c2.622 8.446 5.244 17.548 7.79 26.070 1.967 6.479 4.589 13.035 5.824 20.17 5.244 26.726 3.933 55.342-5.824 80.757-5.244 12.38-12.38 22.792-19.515 34.516-8.446 13.691-15.002 27.305-24.103 40.34-4.589 6.479-9.102 13.691-13.691 20.17-5.824 9.102-10.413 18.203-16.313 26.726-3.933 6.479-9.102 13.035-11.724 20.17-0.656 1.967-0.656 3.933-0.656 5.824 1.311-1.311 2.622-3.278 3.278-4.589 3.933-9.102 9.758-16.892 15.002-25.414 9.102-16.313 19.515-31.239 29.928-46.24 8.446-13.035 15.657-27.305 24.103-40.996 5.244-9.102 11.724-17.548 15.657-27.305 11.724-29.928 13.035-63.133 4.589-94.371-2.622-9.102-5.824-18.203-8.446-27.961-4.589-13.691-7.79-27.961-6.479-42.962 0.656-12.38-0.656-24.103-0.656-36.483 0-1.311 0-3.278 0-4.589 7.135 1.967 15.002 3.933 22.137 5.824 22.792 5.824 44.929 12.38 66.41 21.481 13.035 5.824 26.070 11.724 37.794 20.826 0.656 0 0.656 0.656 1.311 0.656-1.311 1.311-1.967 2.622-3.278 3.933-25.414 28.617-36.483 67.066-44.274 103.473-0.656 3.933-0.656 7.79-0.656 11.724 2.622-4.589 3.933-10.413 5.244-15.657 6.479-30.583 15.657-61.822 34.516-87.892 3.278-5.244 7.79-9.102 11.724-13.691 6.479 5.244 12.38 11.069 18.203 16.892 1.311 0.656 2.622 1.967 3.933 2.622-1.311-3.933-3.278-6.479-6.479-9.102-8.446-8.446-17.548-16.313-27.961-22.792-17.548-10.413-37.138-18.203-56.653-24.759-13.691-4.589-26.726-8.446-40.34-11.724-12.38-3.278-24.103-5.824-35.827-11.069-3.933-2.622-8.446-5.824-7.135-11.069 0-1.967 0.656-3.933 1.967-5.244s3.278-3.278 4.589-4.589c1.967-1.311 4.589-1.967 6.479-2.622 8.446-1.967 16.892-0.656 26.070 0 11.069 1.311 22.792 2.622 33.861 3.933 42.962 5.244 87.892 11.069 126.921 30.583 24.103 11.724 29.272 15.657 24.103 43.618-2.622 12.38-5.824 24.103-10.413 35.827-5.244 12.38-13.035 23.448-19.515 35.172-3.933 7.79-7.79 15.657-11.724 22.792-7.79 13.035-16.313 24.759-22.792 38.374-7.79 15.002-14.346 31.239-22.137 46.24-6.479 13.035-14.346 25.414-20.826 39.029-9.102 17.548-16.313 35.827-24.759 53.375-7.79 15.002-16.313 29.928-23.448 44.929 3.278-7.79-1.311 2.622-11.724 34.516-2.622 9.102-6.479 18.203-7.135 27.961 5.244-9.102 7.135-19.515 11.069-29.928 3.278-9.758 6.479-19.515 10.413-29.272 7.135-16.313 16.892-31.894 24.759-48.207 6.479-13.035 12.38-26.726 18.203-40.34 8.446-17.548 18.203-35.172 27.305-52.064 6.479-13.035 12.38-26.070 18.203-39.029 7.79-16.313 18.859-31.239 27.961-46.896 4.589-8.446 9.102-18.203 13.691-26.726 5.824-10.413 12.38-20.826 16.892-31.894 3.278-7.135 5.824-17.548 8.446-28.617zM636.514 302.169c1.967-15.657 5.244-31.239 10.413-46.24 3.278-6.479 7.135-13.691 11.724-19.515 2.622-2.622 6.479-6.479 10.413-5.244 9.758 7.79 3.933 39.685 3.278 51.409-2.622 23.448-10.413 46.24-14.346 69.033-1.311 6.479-2.622 13.035-3.278 19.515-6.479-11.724-14.346-22.137-22.792-33.205 2.622-11.724 2.622-24.103 4.589-35.827zM613.721 386.129c-5.244-25.414-13.691-34.516-30.583-52.064-5.244-5.824-9.758-11.724-15.002-17.548-5.824-6.479-13.035-12.38-18.859-19.515-4.589-6.479-9.102-14.346-8.446-22.792-0.656-3.278 0.656-5.824 1.967-8.446 1.311-1.967 1.967-3.933 3.933-5.244 4.589-1.311 9.758 1.311 14.346 3.278 14.346 6.479 23.448 19.515 32.55 31.239 11.069 13.035 22.137 25.414 32.55 38.374 9.758 12.38 18.859 24.759 26.726 38.374 4.589 8.446 10.413 16.313 14.346 24.759 3.933 10.413 5.824 21.481 9.758 31.894 2.622 9.758 5.244 20.17 3.933 30.583-3.278-3.278-5.824-6.479-9.102-9.758-5.824-6.479-11.724-12.38-17.548-18.203-11.724-11.724-24.103-23.448-37.794-32.55-1.311-3.933-1.967-7.79-2.622-12.38zM476.985 342.512c2.622-1.967 6.479-3.278 9.758-3.278 4.589 0.656 8.446 2.622 12.38 5.244 3.278 3.278 6.479 6.479 9.102 10.413 0 0 0 0.656 0.656 0.656-3.933-1.967-8.446-3.933-12.38-5.824-5.244-2.622-10.413-5.244-15.657-5.824-1.311-0.656-2.622-0.656-3.933-1.311 0 0.656 0 0.656 0 0zM493.936 460.404c-0.656-5.824-1.967-12.38-3.278-18.203-3.278-11.724-6.479-23.448-10.413-35.172-3.278-8.446-5.824-17.548-7.79-26.726-0.656-1.311-0.656-3.278-1.311-4.589 5.244 3.933 10.413 7.79 15.657 11.069 9.758 6.479 20.826 10.413 31.239 14.346 1.311 0.656 1.967 0.656 3.278 1.311 0.656 8.446 1.311 16.892 1.967 25.414 1.311 11.724 3.278 24.759 8.446 35.172-5.244-0.656-10.413-1.311-15.002-1.967-6.479 0.656-15.002-0.656-22.792-0.656zM536.898 464.262c-0.656-1.967-1.967-3.278-2.622-5.244-2.622-6.479-4.589-13.035-5.244-19.515-1.311-9.102-2.622-18.859-3.278-27.961 0-2.622 0-4.589-0.656-7.135 17.548 7.79 37.138 13.035 52.72 24.759 5.244 3.933 9.758 8.446 14.346 13.691 0 0-0.656 0.656-0.656 0.656-4.589 7.79-9.102 15.002-15.657 21.481-1.311 1.311-2.622 2.622-4.589 3.933-5.824-0.656-11.724-1.311-16.892-2.622-5.824-0.656-11.724-1.311-17.548-1.967zM594.862 445.403c9.102 10.413 16.892 21.481 25.414 31.894-14.346-3.278-29.272-5.824-43.618-7.79 7.135-6.479 13.035-15.002 18.203-23.448-0.656-0.656-0.656-0.656 0-0.656zM667.097 492.298c-13.691-5.824-27.305-10.413-41.651-14.346-2.622-2.622-5.244-5.824-7.135-9.102-4.589-5.244-8.446-11.724-13.035-16.892-5.244-6.479-10.413-12.38-16.313-18.203-7.79-7.79-17.548-14.346-27.961-18.859-7.79-3.278-15.657-6.479-23.448-9.102-5.824-2.622-11.724-5.244-18.203-7.79-5.244-1.967-10.413-3.278-15.002-5.244-6.479-2.622-12.38-5.824-18.203-9.758-5.244-3.278-9.758-6.479-14.346-10.413-2.622-2.622-5.824-4.589-7.79-8.446-1.311-3.278-3.933-6.479-3.933-9.758 1.311-5.244 7.135-7.135 12.38-7.79 9.102-1.311 17.548 3.933 26.070 7.79 9.758 5.244 20.17 9.102 30.583 13.035 16.313 5.824 31.894 11.069 48.207 16.892 6.479 2.622 13.691 3.933 19.515 7.135 20.826 11.069 37.794 26.726 54.686 43.618 12.38 11.724 23.448 23.448 33.861 36.483 9.758 13.035 15.002 23.448 9.758 36.483-7.79-6.479-18.203-10.413-27.961-15.657z"></path>
<path fill="#bc2140" d="M508.88 475.33c-3.278 0.656-9.758 0-13.691-0.656-14.346-1.311-20.826-2.622-33.205-6.479-3.933-1.311-7.135-2.622-8.446-4.589-0.656-1.967-1.967-3.933 1.311-4.589 10.413-1.967 22.137-1.967 33.205-0.656 5.244 0.656 11.069 1.311 16.313 2.622 3.933 0.656 9.102 1.311 12.38 3.278 4.589 2.622-0.656 9.758-7.79 11.069z"></path>
<path fill="#bc2140" d="M567.481 281.343c-2.622-1.967-7.79-6.479-9.758-9.102-9.758-10.413-14.346-15.657-20.826-26.726-1.967-3.278-3.933-7.135-3.278-9.102s1.311-4.589 4.589-2.622c9.758 5.244 18.203 12.38 26.070 20.17 3.933 3.933 7.135 7.79 11.069 12.38 2.622 3.278 5.824 7.135 7.135 11.069 0 4.589-8.446 7.135-15.002 3.933z"></path>
<path fill="#bc2140" d="M667.097 258.551c-0.656-3.278 0-9.102 0.656-13.035 1.311-13.035 2.622-19.515 6.479-31.894 1.311-3.278 2.622-7.135 3.933-7.79 1.967-0.656 3.933-1.967 3.933 1.311 1.311 10.413 1.311 20.826 0.656 31.239-0.656 5.244-1.311 10.413-2.622 15.657-0.656 3.933-1.311 9.102-3.278 11.724-2.622 4.589-9.102 0-9.758-7.135z"></path>
<path fill="#bc2140" d="M486.743 338.652c3.933-0.656 7.79 1.311 11.069 3.933 0 0 0 0 0 0 1.311 0.656 2.622 1.311 3.933 1.967 0 0 0 0 0 0-3.933-9.102-9.758-24.103-15.657-23.448-13.035 0.656-15.002 9.758-13.691 22.792 4.589-2.622 9.102-5.244 14.346-5.244z"></path>
<path fill="#bc2140" d="M491.313 361.444c-3.278-0.656-9.758-2.622-13.035-3.933-13.035-5.244-19.515-7.79-30.583-15.002-3.278-1.967-6.479-4.589-6.479-6.479s-0.656-4.589 2.622-3.933c11.069 0.656 21.481 3.933 32.55 7.135 5.244 1.967 10.413 3.933 15.002 6.479 3.278 1.967 8.446 3.933 11.069 6.479 3.278 3.933-3.278 9.758-11.069 9.102z"></path>
<path fill="#bc2140" d="M115.661 1235.115c-0.656 0-1.311 0.656-1.311 0.656-1.311 1.311-2.622 3.278-3.933 4.589-3.933 4.589-8.446 8.446-13.035 12.38-2.622 1.967-5.244 3.933-7.79 5.824-2.622 1.311-5.244 2.622-8.446 3.278-1.967 0.656-3.278 0.656-5.244 0.656-3.278-0.656-6.479-1.967-7.79-5.244-1.311-1.967-1.967-3.933-1.967-5.824-0.656-4.589 0-9.758 0.656-14.346 0.656-2.622 1.311-5.244 1.311-8.446 0 0 0-0.656 0-0.656s0-0.656-0.656-0.656c0 0-0.656 0-0.656 0-1.311 0.656-1.967 1.967-2.622 2.622-4.589 5.824-10.413 11.069-15.657 15.657-3.278 2.622-7.135 5.824-11.069 7.79-2.622 1.967-5.824 3.278-9.102 4.589-4.589 1.967-8.446 3.278-13.035 3.933-1.311 0-3.278 0-4.589 0s-1.967-0.656-3.278-0.656c-4.589-1.311-7.135-4.589-9.102-8.446-1.967-5.244-1.967-11.069-1.311-16.892 0-1.967 0.656-3.278 0.656-5.244 0-0.656 0-1.311-0.656-0.656 0 0-0.656 0-0.656 0-1.311 1.311-2.622 2.622-3.933 3.933-6.479 7.135-13.691 13.035-21.481 18.203-2.622 1.967-5.244 3.278-7.79 4.589-4.589 2.622-9.758 3.933-15.002 4.589-1.967 0-3.278 0.656-5.244 0.656-9.102 0.656-15.657-3.278-20.826-10.413-2.622-3.278-3.933-7.135-5.244-11.069-1.967-7.135-1.967-14.346-0.656-22.137 1.967-11.724 5.824-22.137 11.724-32.55 5.824-11.069 14.346-20.17 24.103-28.617 5.824-4.589 12.38-8.446 19.515-10.413 6.479-2.622 13.035-3.278 20.17-2.622 3.278 0 5.824 1.311 9.102 1.967 1.311 0.656 2.622 1.311 3.933 1.967 4.589 3.278 6.479 9.758 5.244 14.346-0.656 3.278-1.967 5.824-3.278 8.446-1.967 2.622-3.933 5.244-5.824 7.79-3.933 4.589-8.446 9.102-13.691 13.035-4.589 3.933-9.758 7.135-15.002 10.413-8.446 5.244-16.892 10.413-26.070 15.002-3.278 1.311-5.824 3.278-9.102 4.589-0.656 0.656-1.311 0.656-1.967 1.311s-1.311 1.311-1.311 2.622c0 2.622 0 5.824 0.656 8.446 0.656 1.967 1.311 3.278 1.967 5.244 1.967 2.622 3.933 4.589 6.479 6.479 3.933 2.622 8.446 3.278 13.035 2.622 3.278-0.656 6.479-1.967 9.102-3.278 3.278-1.967 6.479-3.933 9.758-5.824 5.244-3.933 10.413-8.446 15.002-13.035 5.244-5.824 10.413-11.724 15.002-18.203 1.311-1.967 2.622-3.933 3.933-5.824 7.135-13.035 15.657-24.759 26.726-35.172 4.589-4.589 9.758-8.446 15.002-12.38 5.244-3.278 10.413-6.479 16.313-8.446 5.244-1.311 9.758-1.967 15.002-1.967 1.311 0 2.622 0.656 3.933 0.656 2.622 0.656 5.244 1.311 7.79 3.278 1.311 0.656 2.622 1.967 3.278 3.278 0.656 0.656 1.967 0.656 2.622 0 1.311-1.311 2.622-2.622 3.933-3.933s2.622-1.967 4.589-2.622c1.311-0.656 3.278-0.656 4.589 0 1.967 0.656 3.933 1.967 4.589 3.278 1.311 1.967 1.967 3.278 2.622 5.824 0 1.311 0.656 2.622 0.656 3.933 0.656 3.278 0 5.824-0.656 9.102 0 0 0 0.656-0.656 0.656s-0.656 0.656-1.311 0.656c-0.656 0-1.311 0-1.311-0.656-0.656-1.311-0.656-2.622-1.311-3.933 0-0.656-1.311-1.311-1.967-0.656s-1.311 0.656-1.967 1.311c-2.622 2.622-5.244 5.244-6.479 8.446-1.311 2.622-2.622 5.244-3.933 7.79-5.824 12.38-9.758 25.414-13.035 39.029-0.656 3.278-1.311 5.824-1.967 9.102-1.311 3.278-1.311 7.135-1.967 10.413 0 1.967 0 3.278 0.656 5.244s2.622 2.622 3.933 2.622c1.311 0 2.622 0 3.933-0.656 2.622-1.311 4.589-1.967 6.479-3.933 1.311-1.311 3.278-2.622 4.589-3.933 7.135-6.479 13.035-13.691 18.859-20.826 0.656-1.311 1.311-1.967 1.967-3.278 4.589-11.069 10.413-21.481 15.002-32.55 1.967-3.933 3.933-7.79 5.824-11.724 1.311-2.622 2.622-5.244 3.933-7.79 0-0.656 0.656-1.311 0.656-1.967 0.656-1.311-0.656-2.622-1.967-2.622-1.311 0.656-2.622 0.656-4.589 1.311-0.656 0-1.311 0-1.311-0.656-0.656 0-0.656-0.656-0.656-1.311s0.656-1.311 0.656-1.311c4.589-3.933 9.102-7.135 14.346-9.758 1.311-0.656 2.622-0.656 3.933-0.656 1.967 0 3.278 0.656 5.244 1.967 0.656 0.656 1.311 1.311 1.311 1.967 0.656 1.967 1.311 3.933 1.311 5.824-0.656 4.589-1.311 8.446-3.278 12.38-1.967 5.244-3.933 10.413-6.479 15.657-4.589 9.102-9.102 18.859-13.035 28.617-1.967 5.244-4.589 10.413-5.824 15.657-0.656 1.967-1.311 4.589-1.967 6.479-0.656 3.278-1.311 7.135-0.656 10.413 0 1.311 0.656 2.622 1.967 3.278 0.656 0.656 1.967 1.311 2.622 0.656 1.311-0.656 2.622-0.656 3.278-1.311 1.967-1.311 3.933-2.622 5.244-3.933 5.244-3.933 9.758-9.102 14.346-13.691 10.413-11.069 20.826-23.448 29.928-35.827 0.656-1.311 1.311-1.967 2.622-3.278s1.967-3.278 2.622-4.589 2.622-7.135 4.589-10.413c1.967-5.824 4.589-11.724 7.79-17.548 1.311-3.278 3.278-5.824 5.244-8.446 0.656-1.311 1.967-2.622 3.278-3.278 1.967-1.967 4.589-2.622 7.79-2.622 1.967 0 3.278 0.656 4.589 1.967s2.622 2.622 3.278 4.589c1.967 4.589 2.622 9.102 1.967 14.346 0 1.311-0.656 2.622-1.967 3.278 0 0-1.311 0-1.311 0-0.656 0-0.656-0.656-1.311-1.311s-0.656-1.967-1.311-2.622c-0.656-0.656-1.311-0.656-1.967 0-0.656 0-0.656 0.656-1.311 0.656-2.622 1.967-4.589 5.244-5.824 7.79-1.967 2.622-3.278 5.824-4.589 9.102-3.933 8.446-6.479 16.892-9.102 26.070-1.967 5.824-3.278 11.724-4.589 17.548-1.311 3.278-1.311 7.135-2.622 10.413-0.656 1.967-0.656 3.933 0 5.824 0 1.311 0.656 2.622 1.311 3.933s1.311 1.311 2.622 1.311 3.278 0 5.244-0.656c2.622-1.311 5.244-2.622 7.135-4.589 0.656-0.656 0.656-0.656 1.311-1.311 11.069-11.069 21.481-22.792 31.239-35.827 0.656-1.311 1.967-2.622 2.622-3.933 1.967-2.622 3.278-5.244 3.933-8.446 1.967-5.824 3.933-11.069 5.244-16.892 3.933-11.724 8.446-22.792 13.691-33.861 7.79-17.548 15.657-35.172 24.103-52.72 0.656-1.311 1.967-3.278 1.967-5.244 0-0.656 0-1.311-0.656-1.311s-1.311 0-1.311 0c-3.933 0-7.79 0-11.724 0.656-2.622 0-5.244 0.656-7.79 0.656-3.278 0-6.479 0.656-9.758 1.311-1.311 0-1.967 0-3.278 0.656-3.278 0-7.135 0.656-10.413 1.311-4.589 0.656-8.446 1.311-13.035 1.967-8.446 1.311-16.892 2.622-25.414 4.589-13.035 2.622-25.414 5.244-38.374 7.79-13.691 3.278-26.726 6.479-39.685 9.758-1.311 0.656-2.622 0.656-3.933 0.656-0.656 0-1.311 0-1.311 0-0.656 0-1.311-0.656-1.311-1.311s0.656-1.311 0.656-1.311c7.79-3.278 15.002-5.824 22.792-7.79 16.892-5.244 34.516-9.758 51.409-13.691 11.069-2.622 22.137-4.589 33.205-6.479 7.135-1.311 14.346-2.622 22.137-3.933 4.589-0.656 9.758-1.311 14.346-1.967 5.824-0.656 11.724-1.967 17.548-2.622 2.622-0.656 5.824-0.656 8.446-0.656 1.311 0 1.967-0.656 3.278-0.656 0.656 0 0.656-0.656 1.311-0.656 0.656-0.656 0.656-1.311 1.311-1.967 1.311-2.622 2.622-5.244 3.933-7.79 8.446-16.892 16.892-33.861 26.070-50.098 9.102-16.892 18.859-33.205 29.928-48.863 8.446-12.38 17.548-24.759 27.305-36.483 7.79-9.102 16.313-17.548 24.759-26.070 1.967-1.967 3.933-3.933 6.479-5.244 3.933-1.967 7.135-3.278 11.724-1.967 2.622 0.656 4.589 1.967 5.824 3.278 0 0 0.656 0.656 0.656 0.656 3.278 3.933 5.244 12.38 1.967 17.548 0 0-0.656 0.656-0.656 0.656-0.656 0.656-1.967 0-1.967 0-0.656-1.311-0.656-2.622-1.311-3.278 0-0.656-1.311-1.311-1.967-0.656-0.656 0-1.311 0.656-1.967 0.656-3.278 1.967-6.479 4.589-9.758 7.135-7.135 5.824-13.691 12.38-19.515 18.859-7.79 9.102-15.657 18.203-22.137 27.961-3.933 5.824-7.79 11.069-11.724 16.892-9.102 13.691-16.892 27.961-24.759 42.307-7.135 13.035-14.346 26.726-20.826 39.685-0.656 1.311-1.311 3.278-1.967 4.589 0 0.656 0 1.311 0.656 1.967 1.311 0.656 2.622 0 3.933 0 7.135 0 13.691-0.656 20.826-0.656 16.313-0.656 33.205 0 49.442 0 3.933 0 8.446 0.656 12.38 0.656 2.622 0 4.589 0 7.135 0 0.656 0 1.311-0.656 1.967-1.311 0.656-1.311 1.311-2.622 2.622-3.933 5.824-11.069 11.069-21.481 16.892-32.55 11.069-20.17 22.792-39.685 35.172-59.275 5.824-9.102 12.38-18.203 18.859-26.726 7.79-10.413 16.892-20.17 26.070-29.272 3.933-3.933 8.446-7.79 13.035-11.069 1.967-1.311 3.933-2.622 6.479-3.933 1.967-1.311 3.933-1.967 6.479-2.622 1.967-0.656 4.589-0.656 6.479 0s3.278 1.311 4.589 2.622c1.311 1.311 1.967 3.278 2.622 5.244 0.656 2.622 0.656 5.824 0.656 8.446-0.656 7.79-1.311 15.657-2.622 23.448-3.278 16.892-8.446 33.205-15.657 48.863-5.244 12.38-11.724 24.759-18.859 37.138-7.79 13.691-16.892 27.305-26.070 40.34-1.311 1.967-2.622 3.933-3.933 5.824-0.656 0.656 0 2.622 0.656 2.622 1.311 0 2.622 0 3.933 0 12.38 0.656 24.759 0 37.794-0.656 2.622 0 5.244-0.656 7.79-0.656 1.967 0 3.278-0.656 5.244-0.656 5.824 0 11.069-1.311 16.892-1.967 6.479-1.311 12.38-2.622 18.859-4.589 10.413-3.278 20.17-7.135 29.272-12.38 1.311-0.656 2.622-1.967 3.278-3.278 1.311-1.967 2.622-4.589 3.278-6.479 12.38-23.448 25.414-46.24 39.685-69.033 7.79-12.38 15.657-24.103 24.759-35.827 7.135-9.758 15.002-18.203 24.103-26.726 3.278-3.278 6.479-5.824 9.758-8.446 2.622-1.967 5.244-3.933 7.79-5.824 2.622-1.311 5.244-2.622 7.79-3.278 1.967-0.656 3.278-0.656 5.244-0.656 3.278 0 5.824 1.967 7.79 4.589 0.656 1.311 1.967 3.278 1.967 5.244 0.656 1.967 0.656 4.589 0.656 7.135 0 5.244-0.656 10.413-1.311 15.002-2.622 18.859-7.79 36.483-15.002 53.375-4.589 11.724-10.413 22.792-16.313 33.861-8.446 15.657-18.203 30.583-27.961 44.274-16.313 22.137-33.205 42.962-51.409 62.477-3.933 4.589-7.79 8.446-12.38 13.035-9.758 9.758-18.859 18.859-28.617 28.617-8.446 7.79-16.313 16.313-24.759 24.103-1.311 1.311-1.967 2.622-2.622 3.933-1.311 4.589-3.278 9.102-3.933 14.346-0.656 3.278-1.311 7.135-1.967 10.413s-1.311 7.135-1.311 10.413c0 1.967 0 3.933 0 5.824 0 5.824 2.622 11.069 5.244 15.657 0.656 1.311 1.967 2.622 3.278 3.278 0.656 0.656 1.311 0.656 1.967 1.311 2.622 0.656 5.244 1.311 7.79 0.656 5.824-0.656 11.069-2.622 16.313-5.824 2.622-1.311 4.589-3.278 7.135-4.589 5.824-4.589 11.069-9.758 15.657-15.657 7.79-9.102 15.002-18.859 22.137-29.272 1.311-1.967 2.622-3.933 3.933-5.824 0-0.656 0.656-0.656 1.311-1.311s1.311-0.656 1.311 0c0.656 0 0.656 0.656 1.311 1.311 0.656 1.311 0.656 3.278 0 4.589 0 0.656-0.656 1.311-0.656 1.967-7.135 11.724-15.002 23.448-24.103 33.205-7.135 8.446-15.657 16.313-24.759 22.137-4.589 3.278-9.758 5.824-15.657 7.79-3.278 1.311-7.135 1.967-10.413 1.967-3.278 0.656-7.135 0-10.413-0.656-5.244-1.311-9.102-3.933-11.724-7.79-3.933-4.589-5.824-10.413-6.479-16.313-0.656-3.278-0.656-7.135 0-10.413 0-2.622 0.656-5.244 0.656-7.79 0 0 0-0.656-0.656-0.656 0 0-0.656 0-0.656 0-0.656 0.656-1.311 1.311-1.967 1.967-7.135 9.102-15.002 17.548-23.448 26.070-2.622 2.622-5.244 5.244-8.446 7.79-1.967 1.967-4.589 3.278-6.479 5.244-1.311 1.311-3.278 1.967-4.589 2.622-2.622 1.311-4.589 1.967-7.135 1.311-0.656 0-1.311 0-2.622 0-2.622 0-4.589-1.311-6.479-3.933-0.656-1.311-1.311-2.622-1.967-3.933-1.311-3.933-1.311-7.79-1.311-11.069 0.656-5.824 1.967-12.38 3.278-18.203 1.311-3.933 1.967-8.446 3.278-12.38 0 0 0-0.656 0-0.656s-0.656 0-1.311 0c-1.311 0.656-1.967 1.967-3.278 3.278-5.824 7.79-12.38 15.657-19.515 22.792-3.933 4.589-8.446 8.446-13.035 12.38-3.278 2.622-5.824 4.589-9.102 6.479-2.622 1.311-4.589 2.622-7.135 3.933-3.278 1.311-7.135 1.967-10.413 1.311s-5.824-2.622-7.79-5.244c-1.311-1.967-1.967-3.933-1.967-6.479s0-5.244 0.656-7.79c0.656-2.622 0.656-5.244 1.311-8.446 0 0 0-0.656 0-0.656-0.656-0.656-0.656 0-1.311 0-1.311 1.311-1.967 1.967-3.278 3.278-6.479 7.135-14.346 13.691-22.137 20.17-7.135 5.824-15.657 11.069-24.103 15.002-1.311 0.656-2.622 0.656-3.278 1.311s-1.311 1.311-1.311 1.967-1.311 2.622-1.311 3.278c-8.446 24.759-18.859 48.863-30.583 72.234-3.278 7.135-7.135 13.691-10.413 20.17-0.656 1.311-1.311 1.967-1.967 3.278-0.656 0.656-1.311 0.656-1.967 1.311-2.622 0-5.824 0-8.446-0.656-0.656 0-1.311-1.311-1.311-2.622s0.656-2.622 1.311-3.278c3.933-7.79 7.79-15.657 11.724-23.448 8.446-16.892 15.002-35.172 19.515-53.375 0.656-1.311 0.656-3.278 0.656-4.589 0-0.656-0.656-0.656-1.311-0.656 0 0-0.656 0-0.656 0-1.311 0.656-2.622 1.311-4.589 1.967-10.413 4.589-20.826 9.758-30.583 15.657-5.824 3.278-11.069 7.135-16.892 10.413-9.102 5.824-18.203 12.38-26.726 19.515-5.244 4.589-9.758 8.446-15.002 13.035-6.479 5.824-12.38 12.38-18.203 18.859-1.311 1.967-3.278 3.278-4.589 5.244-0.656 0.656-1.311 0.656-1.967 0.656s-1.311 0-1.311 0c-3.933-0.656-7.79-1.311-11.069-1.967 0 0-0.656 0-0.656-0.656-0.656-0.656-1.311-1.967-0.656-2.622 0.656-1.311 1.311-1.967 2.622-3.278 8.446-9.102 16.892-17.548 26.726-25.414 17.548-14.346 35.827-26.726 55.997-37.138 14.346-7.79 29.272-15.002 43.618-22.137 2.622-1.311 5.244-2.622 7.79-3.933 0.656-0.656 1.967-1.311 1.967-1.967 1.311-5.244 2.622-9.758 3.933-15.002 3.278-11.069 6.479-21.481 10.413-31.894 0.656-0.656 0.656-1.967 0.656-2.622s0-1.311 0-1.967c0 0 0.656 0 0.656 0s0-0.656 0-0.656c-0.656 0-0.656 0 0 0.656-0.656 0-1.311 0-1.311 0-0.656 0.656-1.311 1.311-1.967 1.967-3.933 4.589-8.446 9.102-12.38 13.691-4.589 5.244-9.102 9.758-14.346 13.691-2.622 1.967-5.244 3.933-7.79 5.244-1.967 1.311-4.589 1.967-7.135 3.278-1.967 0.656-3.278 0.656-5.244 0.656-3.933 0-6.479-1.967-7.79-5.244-1.311-2.622-1.967-5.244-1.967-8.446s0-5.824 0.656-9.102c0.656-3.278 1.311-7.135 1.311-10.413 0 0 0-0.656 0-0.656s-0.656 0-0.656 0-1.311 0.656-1.967 1.311c-3.278 3.933-6.479 7.79-10.413 11.069-4.589 5.244-9.758 9.758-15.002 14.346-1.967 1.967-4.589 3.278-6.479 5.244-1.967 1.311-3.278 1.967-5.244 2.622s-3.278 0.656-5.244 0.656-5.244-1.967-6.479-4.589c-1.311-1.967-1.967-4.589-1.967-7.135 0-3.933 0-7.79 0.656-11.724 1.311-5.244 1.967-11.069 3.278-16.313 0-1.311 0.656-2.622 0.656-3.933 0-0.656 0-0.656-0.656-1.311 0 0-0.656 0-0.656 0-1.311 1.311-1.967 1.967-3.278 3.278-5.244 6.479-11.724 13.035-17.548 19.515-3.933 4.589-8.446 8.446-13.035 12.38-1.967 1.967-4.589 3.278-6.479 5.244-1.967 1.311-3.933 2.622-5.824 3.278-1.311 0.656-2.622 0.656-4.589 0.656-1.311 0-2.622 0-3.933 0-2.622 0-4.589-1.311-5.824-3.278-1.311-1.311-1.967-3.278-2.622-4.589-0.656-3.278-1.311-7.135-0.656-10.413 0.656-8.446 2.622-16.313 4.589-24.103 0.656-2.622 1.311-5.244 1.967-7.135 0 0 0-0.656 0-0.656s-0.656 0-1.311 0c-1.311 0.656-1.967 1.967-2.622 2.622-4.589 5.824-9.758 11.724-15.002 17.548-3.933 3.933-7.135 7.79-11.069 11.724-4.589 4.589-10.413 9.102-16.313 13.035-3.278 1.967-5.824 3.933-9.758 4.589-3.278 1.311-6.479 1.311-9.758 0.656-3.933-0.656-6.479-3.278-7.79-6.479-1.311-2.622-1.311-5.244-1.311-8.446 0-1.311 0.656-3.278 0.656-4.589 0-1.967 0.656-3.933 0.656-5.824-8.446 0.656-9.102 0-9.102-0.656 0 0 0 0.656 0 0v0zM507.569 1086.638c-6.479 0-13.035 0-18.859-0.656-1.311 0-2.622 0-3.933 0s-1.967 0.656-2.622 1.311c-0.656 0.656-1.967 1.967-2.622 2.622-2.622 3.278-5.244 6.479-8.446 9.758-11.724 14.346-24.103 27.961-37.138 40.996-5.244 5.244-10.413 9.758-15.002 15.002-5.824 5.824-12.38 11.724-18.203 17.548-1.967 1.967-4.589 3.933-6.479 6.479-3.278 3.933-6.479 7.135-10.413 10.413-1.311 1.311-1.967 2.622-2.622 3.933-4.589 10.413-7.79 20.17-10.413 31.239-2.622 11.724-5.244 23.448-9.102 34.516 0 0.656-0.656 1.967-0.656 3.278 0 0.656 0 1.311 0.656 1.311 0 0 0.656 0 0.656 0 1.311-0.656 2.622-0.656 3.278-1.311 10.413-5.824 19.515-12.38 28.617-20.826s16.892-18.203 24.759-27.961c0.656-1.311 1.311-1.967 1.967-3.278 3.278-7.135 7.135-14.346 10.413-21.481s6.479-14.346 10.413-21.481c1.311-1.967 1.967-4.589 3.278-7.135 0-0.656 0-0.656 0.656-1.311 0-0.656-0.656-1.967-1.311-1.967-1.311 0-2.622 0.656-3.933 0.656-0.656 0-1.311 0-1.967 0s-1.311-1.311-1.311-1.967c0-0.656 0.656-0.656 0.656-1.311 3.278-3.278 7.135-5.824 11.069-7.79 1.311-0.656 2.622-1.311 3.933-1.967s2.622-0.656 3.933-0.656 5.244 1.967 5.824 5.244c0 1.311 0.656 3.278 0 4.589 0 3.933-1.311 7.79-2.622 11.724-1.967 5.244-3.933 9.758-6.479 15.002s-5.244 9.758-7.135 15.002c-3.933 8.446-7.79 16.892-10.413 25.414-1.311 3.278-2.622 6.479-3.278 10.413-1.311 3.933-1.311 7.79-0.656 12.38 0 1.311 0.656 2.622 1.967 3.278 0.656 0.656 1.311 0.656 1.967 0.656 1.311 0 2.622-0.656 3.278-1.311 1.967-1.311 3.933-2.622 5.824-4.589 5.244-4.589 10.413-9.758 15.657-15.002 6.479-7.135 13.035-15.002 19.515-22.792 3.933-4.589 7.135-9.102 11.069-13.691 1.311-1.967 2.622-3.933 3.933-6.479 1.311-3.278 2.622-7.135 3.933-10.413 1.967-5.824 4.589-11.069 7.79-16.892 1.311-2.622 3.278-5.244 4.589-7.79 0.656-1.311 1.967-2.622 3.278-3.278 1.967-1.967 3.933-2.622 7.135-2.622 2.622 0 5.244 0.656 6.479 3.278 1.311 1.311 1.967 2.622 2.622 3.933 1.311 3.933 2.622 8.446 1.967 13.035 0 1.311-0.656 3.278-1.311 4.589-0.656 0.656-1.311 0.656-1.967 0-1.311-0.656-1.311-1.967-1.967-3.278-0.656-0.656-1.967-1.311-2.622-0.656-0.656 0-0.656 0.656-1.311 0.656-2.622 1.967-3.933 4.589-5.824 7.135s-3.278 5.824-4.589 9.102c-3.933 8.446-6.479 16.892-9.102 26.070-1.967 7.135-3.933 14.346-5.824 21.481-0.656 1.967-0.656 4.589-1.311 6.479-0.656 2.622-0.656 5.244 0 7.79 0 0.656 0.656 1.311 0.656 1.967 0.656 1.311 1.967 1.967 3.278 1.967s3.278 0 4.589-0.656c3.278-1.311 5.824-3.278 8.446-5.244 6.479-6.479 13.035-13.035 18.859-20.17 5.824-6.479 11.069-13.691 16.313-20.17 1.311-1.311 1.967-3.278 2.622-4.589 1.311-3.933 2.622-7.135 3.933-11.069 3.278-8.446 6.479-16.313 10.413-24.759 13.035-28.617 26.070-57.309 40.34-85.269 0.656-1.311 1.311-2.622 1.967-3.933 0 0 0-0.656 0-0.656 0-0.656-0.656-0.656-1.311-0.656s-1.311 0.656-1.967 0.656c-14.346 7.135-29.928 11.069-46.24 13.691-5.824 0.656-12.38 1.967-18.203 1.967-1.967 0-3.278 0-5.244 0.656-4.589 0.656-9.102 0.656-13.691 0.656-6.479 0-10.413-0.656-14.346-0.656zM368.268 1080.814c-13.691 0-27.305 0-40.34 0-2.622 0-4.589 0-7.135 0-0.656 0-1.311 0.656-1.967 1.311-1.967 1.967-3.278 4.589-4.589 7.135-7.135 15.002-15.002 29.928-21.481 44.929-4.589 10.413-9.102 20.826-13.691 31.894-1.967 5.244-4.589 10.413-5.824 15.657-2.622 7.79-5.244 15.657-7.79 23.448-1.967 7.135-3.933 15.002-5.824 22.137-0.656 3.933-1.311 7.79-1.311 11.069 0 1.967 0 3.933 0.656 5.824 0.656 1.311 1.967 1.967 2.622 1.967 1.311 0 3.278 0 4.589-0.656 1.967-0.656 3.278-1.967 5.244-3.278 1.967-1.967 3.933-3.933 5.824-5.824 3.278-3.933 7.135-7.135 10.413-11.069 3.933-3.933 7.135-8.446 10.413-13.035 1.311-1.967 2.622-3.933 3.278-5.824 1.967-5.824 3.933-11.069 5.824-16.313 3.278-9.758 7.79-19.515 12.38-28.617 1.967-3.933 3.933-7.135 6.479-10.413 1.311-1.967 2.622-3.278 3.933-4.589 1.967-1.967 3.933-2.622 6.479-3.278 0.656 0 1.311 0 1.311 0 1.967 0 3.933 1.311 5.244 2.622s1.967 2.622 2.622 3.933c1.967 4.589 1.967 9.102 1.311 14.346 0 0.656 0 0.656-0.656 1.311 0 0.656-0.656 1.311-1.967 1.311-0.656 0-1.311-0.656-1.967-1.311s-0.656-1.311-0.656-1.967c-0.656-1.311-1.967-1.311-3.278-0.656-0.656 0.656-1.311 1.311-1.967 1.967-2.622 2.622-4.589 5.824-5.824 9.102-1.311 1.967-1.967 4.589-3.278 7.135-4.589 10.413-7.79 20.826-11.069 31.894-2.622 8.446-2.622 10.413-3.933 18.859-0.656 2.622-0.656 5.244 0 7.79 0 1.311 0.656 1.967 1.311 2.622 1.311 1.311 2.622 1.311 3.933 1.311 2.622-0.656 5.244-1.967 7.79-3.278s5.244-3.278 7.135-5.824c2.622-2.622 5.824-5.244 8.446-7.79 7.135-7.79 14.346-15.657 20.17-24.759 1.311-1.967 1.967-3.278 2.622-5.244 2.622-7.135 5.244-14.346 8.446-21.481 3.278-7.79 6.479-15.002 9.758-22.137 9.102-20.826 18.859-40.996 28.617-61.822 0.656-1.967 1.967-3.933 2.622-5.244 1.311-2.622 0.656-3.278-1.967-3.278s-4.589 0-7.135 0c-11.069-1.967-24.103-1.967-35.827-1.967zM644.305 1021.538c-1.311 3.278-3.278 6.479-4.589 9.758-0.656 1.311-1.311 2.622-1.967 3.933 0 0 0 0.656 0 0.656s0.656 0 0.656 0c0 0 0.656 0 0.656 0 1.311-0.656 2.622-1.967 3.933-2.622 0.656 0 0.656-0.656 1.311-0.656s0.656 0 1.311 0 0.656 1.311 0.656 1.967c-0.656 0.656-0.656 1.311-1.311 1.967-3.933 5.244-8.446 9.758-13.035 13.691-2.622 1.967-3.933 4.589-5.244 7.135-2.622 5.824-5.244 11.724-7.79 17.548-9.102 20.17-18.203 40.34-27.305 60.51-3.933 8.446-7.79 16.892-11.724 26.070-0.656 1.311-1.311 2.622-1.311 4.589 0 0 0 0.656 0.656 0.656 0 0 0.656 0 0.656 0 1.311-0.656 1.967-1.311 3.278-2.622 15.657-15.002 30.583-30.583 45.585-46.24 11.069-12.38 22.137-24.759 31.894-38.374 17.548-22.792 32.55-47.552 44.274-73.545 11.069-24.103 19.515-50.098 24.103-76.167 0.656-4.589 1.311-9.758 0.656-14.346 0-0.656 0-1.311-0.656-1.967-0.656-2.622-2.622-3.933-5.244-2.622-0.656 0-1.311 0.656-1.967 0.656-1.967 1.311-3.278 1.967-5.244 3.278-1.967 1.967-3.933 3.278-5.824 5.244-5.824 5.824-11.069 11.724-16.313 18.203-6.479 8.446-12.38 17.548-18.859 26.070-5.824 9.102-11.724 18.203-16.313 27.305-5.244 9.758-9.758 19.515-15.002 29.928zM462.041 1072.349c1.311 0 4.589 0.656 7.135 0.656s5.824 0 8.446 0.656c1.967 0 2.622-0.656 3.933-1.967 0.656-0.656 1.311-1.967 1.967-2.622 12.38-18.203 23.448-37.794 33.205-57.309 11.069-24.103 18.859-48.863 24.103-74.856 0.656-5.244 1.311-10.413 0.656-15.002 0-0.656 0-1.311 0-1.967 0-1.311-0.656-1.967-1.311-2.622s-1.311-1.311-2.622-1.311c-1.311 0-2.622 0.656-3.278 1.311-1.967 1.311-3.278 2.622-4.589 3.933-2.622 2.622-5.244 5.244-7.79 7.135-5.244 5.244-9.102 10.413-13.691 16.313-7.79 10.413-15.002 20.826-22.792 31.894-2.622 3.933-5.244 7.79-7.79 12.38-4.589 7.79-8.446 15.002-12.38 22.792-5.244 10.413-10.413 20.826-15.657 31.894-3.933 7.79-7.79 15.657-11.069 23.448-0.656 0.656-0.656 1.967-1.311 2.622 0 0.656 0.656 1.311 1.311 1.967 2.622 0.656 5.824 0.656 8.446 0.656 3.933-0.656 9.102-0.656 15.002 0zM13.424 1232.493c0 1.311 0 1.967 0 2.622 0.656 3.933 1.967 7.135 4.589 9.102 1.967 1.967 4.589 2.622 7.135 2.622 1.311 0 3.278 0 4.589-0.656 3.278-0.656 5.824-1.967 8.446-3.278 3.278-1.967 7.135-4.589 9.758-7.135 7.79-6.479 14.346-14.346 20.17-22.792 1.967-2.622 3.278-5.824 5.244-8.446 4.589-8.446 7.79-16.892 11.724-26.070 1.967-3.933 2.622-8.446 3.278-12.38 0.656-2.622 0-5.824-0.656-8.446-1.967-5.824-7.135-8.446-12.38-7.79-3.933 0-7.79 1.311-11.069 3.278-4.589 1.967-8.446 5.244-11.724 7.79-9.758 7.79-16.892 17.548-22.792 27.961-4.589 8.446-8.446 16.892-11.069 26.070-1.311 3.933-1.967 7.79-2.622 11.724-2.622 2.622-2.622 4.589-2.622 5.824zM436.627 1082.762c-6.479-0.656-5.824 0-7.79 3.933-0.656 1.311-1.311 3.278-1.967 4.589-11.069 24.103-22.137 48.863-33.205 72.89-1.311 2.622-1.967 4.589-3.278 7.135 0 0.656 0 1.311 0.656 1.311 0 0 0.656 0 0.656 0 0.656-0.656 1.967-1.311 2.622-1.967 16.892-16.313 33.205-32.55 48.863-50.098 8.446-9.758 16.892-19.515 24.103-29.272 0.656-1.311 1.967-2.622 2.622-3.933 0.656-0.656 0-1.967-0.656-1.967-3.933-0.656-7.79-1.311-12.38-1.311-5.824-0.656-11.724-0.656-17.548-1.311-1.311 0-2.622 0-2.622 0zM-63.399 1214.927c10.413-4.589 20.17-9.758 29.928-16.892 6.479-4.589 12.38-10.413 17.548-16.892 1.967-2.622 3.933-4.589 5.244-7.79 1.967-3.278 3.278-7.135 3.933-10.413 0.656-2.622 0-4.589-0.656-6.479-1.311-3.933-4.589-5.244-8.446-5.824-2.622 0-4.589 0.656-6.479 1.311-8.446 3.278-16.313 8.446-22.137 15.657s-11.069 15.002-14.346 23.448c-2.622 7.135-5.244 15.002-6.479 22.792 0 0.656 0 1.311 0.656 1.311 0 0.656 0.656 0 1.311 0z"></path>
<path fill="#bc2140" d="M-276.245 835.998c-5.244 0-10.413 0-16.313 0-4.589 0-9.758 0-14.346 1.311-3.933 0.656-7.79 0.656-11.069 1.967-7.79 1.311-15.002 3.278-22.137 5.244-13.691 3.933-26.726 8.446-39.685 13.691-11.069 4.589-21.481 10.413-31.894 16.892-14.346 9.758-27.305 21.481-38.374 35.172-3.278 3.933-5.824 8.446-8.446 13.035s-3.933 9.102-5.244 13.691c-1.311 5.244-1.311 10.413-0.656 15.657 0.656 3.278 1.967 6.479 4.589 9.102 1.967 1.967 3.933 3.933 6.479 5.244 4.589 2.622 9.102 3.933 14.346 4.589 5.824 0.656 12.38 0.656 18.203 0 3.933-0.656 7.79-1.311 11.069-1.967 5.244-1.311 9.758-3.278 14.346-4.589 5.824-2.622 12.38-5.244 18.203-8.446 3.933-1.967 7.79-5.244 10.413-8.446 1.311-1.311 1.967-3.278 1.967-4.589 0-0.656 0-1.311 0-1.311-0.656-2.622-1.967-3.278-3.933-3.933-0.656 0-1.967-0.656-3.278-0.656s-2.622 0-3.933-0.656c-0.656 0-1.311-1.311-1.311-1.967s0.656-0.656 0.656-1.311c0 0 0.656-0.656 0.656-0.656 5.244-1.967 10.413-3.933 16.313-3.933 2.622 0 5.824 0 8.446 0.656 4.589 1.311 7.135 3.933 7.79 8.446 0 0.656 0 1.311 0 1.311 0 1.967-0.656 3.933-1.967 5.824-0.656 1.311-1.967 2.622-3.278 3.933-3.278 3.278-6.479 5.824-9.758 8.446-8.446 5.824-17.548 11.069-26.726 15.002s-18.203 6.479-27.961 8.446c-4.589 0.656-9.758 1.311-14.346 1.967-3.278 0-7.135 0-10.413-0.656-3.933-0.656-7.79-0.656-11.069-1.967-7.135-1.967-12.38-5.244-16.892-11.069-1.311-1.967-3.278-3.933-3.933-6.479-2.622-5.244-3.278-10.413-3.278-16.313 0.656-6.479 1.967-12.38 4.589-18.203 1.967-3.933 3.933-7.135 5.824-10.413 11.724-18.203 26.726-33.205 44.274-44.929 15.657-10.413 31.894-18.859 49.442-25.414 13.035-5.244 26.726-9.758 40.34-13.035 9.102-1.967 17.548-3.933 26.726-5.244 5.824-1.311 11.724-1.311 17.548-2.622 1.967 0 3.933-0.656 5.824-0.656 10.413-0.656 20.826-0.656 31.239 0 2.622 0 5.824 0.656 8.446 0.656 1.311 0 1.967 0 3.278 0.656 7.135 0.656 13.691 1.967 20.17 2.622 1.311 0 1.967 0 2.622-0.656s1.311-1.311 2.622-1.967c6.479-6.479 13.691-12.38 20.17-18.859 1.967-1.967 3.933-3.933 6.479-5.824 5.824-5.244 12.38-9.102 18.859-12.38 2.622-1.311 5.824-2.622 8.446-3.278s5.244-0.656 7.79-0.656c1.311 0 2.622 0.656 3.933 1.967 0.656 0.656 0.656 1.311 1.311 1.967 0.656 1.311 0.656 3.278 0.656 4.589 0 3.933-0.656 7.135-1.967 10.413-2.622 7.79-7.135 14.346-13.691 20.17-0.656 0.656-0.656 0.656-1.311 0-0.656 0-1.311-1.311-0.656-1.967 0 0 0-0.656 0-0.656 1.311-2.622 1.967-5.244 1.311-7.79 0-1.967-0.656-3.278-1.967-5.244s-2.622-3.278-4.589-3.278c-0.656 0-1.311 0-1.311 0-1.311 0.656-3.278 0.656-4.589 1.311-5.824 2.622-11.069 5.244-15.657 9.102-5.244 4.589-10.413 9.102-15.657 13.691 0 0 0 0.656-0.656 0.656-0.656 0.656 0 1.967 0.656 1.967 5.244 1.967 10.413 3.278 15.002 5.244 4.589 1.311 8.446 2.622 13.035 4.589 15.002 5.824 28.617 15.002 40.34 26.070 1.967 1.311 3.278 3.278 4.589 5.244 5.244 5.824 9.102 13.035 11.069 20.826 0.656 3.278 1.311 6.479 1.311 9.758 0.656 7.79-1.311 15.002-4.589 21.481-3.933 7.79-9.102 15.657-15.657 21.481-3.278 3.278-7.135 6.479-11.069 9.758-4.589 3.933-9.102 7.135-14.346 9.758-5.244 3.278-10.413 5.824-15.002 8.446-0.656 0-0.656 0.656-0.656 1.311 0 0 0 0.656 0.656 0.656s0.656 0.656 1.311 0.656c0.656 0 0.656 0 1.311 0.656 11.069 2.622 22.137 5.824 32.55 10.413 17.548 7.79 31.239 19.515 41.651 35.827 5.824 9.102 9.758 18.203 12.38 28.617 1.311 5.244 1.311 9.758 2.622 15.002 0.656 9.758 0.656 20.17-0.656 29.928 0 1.967-0.656 4.589-0.656 7.135 0 0.656 0.656 1.311 1.311 1.967 1.967 0.656 3.278 1.311 5.244 1.311 13.691 2.622 27.961 5.824 41.651 9.102 6.479 1.967 13.035 3.278 18.859 5.244 0.656 0 1.967 0.656 2.622 1.311 0 0 0.656 0.656 0.656 0.656 0.656 0.656 0 1.967-0.656 1.967s-1.311 0-1.967 0c-7.135-1.967-13.691-3.278-20.826-4.589-9.102-1.967-18.859-3.278-27.961-4.589-4.589-0.656-9.758-1.311-14.346-2.622-1.967 0-3.278-0.656-5.244-0.656-0.656 0-1.967 0.656-1.967 1.311-0.656 1.967-1.311 3.933-1.311 5.824-4.589 17.548-11.724 34.516-20.826 50.753-6.479 12.38-15.002 24.103-23.448 35.172s-17.548 21.481-27.305 31.239c-13.691 13.691-27.305 26.070-42.307 37.138-6.479 5.244-13.691 9.758-20.826 14.346-13.691 8.446-27.305 16.892-41.651 24.103-15.002 7.79-30.583 13.691-47.552 16.892-5.824 1.311-11.724 2.622-18.203 3.278s-13.035 0.656-18.859 0c-7.135-0.656-13.691-3.278-19.515-6.479-9.102-5.244-15.657-13.691-19.515-23.448-1.967-5.244-3.278-10.413-3.933-16.313-0.656-5.244 0-10.413 0-15.002 0.656-3.933 1.311-7.79 2.622-11.069 2.622-9.102 5.824-18.203 9.758-26.726 15.657-37.138 40.996-65.755 74.856-87.236 17.548-11.069 36.483-19.515 55.997-25.414 13.691-3.933 27.305-7.79 41.651-10.413 7.79-1.967 16.313-3.278 24.103-4.589 1.311 0 3.278-0.656 4.589-0.656 1.967 0 3.933-0.656 5.824-0.656s4.589-0.656 6.479-0.656c3.278 0 5.824-0.656 9.102-0.656 1.311 0 1.967 0 3.278 0 10.413-0.656 20.826-1.311 31.239-0.656 3.933 0 7.79 0.656 11.724 0.656 0.656 0 1.311 0 2.622 0 0.656 0 1.967-0.656 1.967-1.967 0.656-5.244 1.967-9.758 1.967-15.002 0-3.278 0-6.479 0-9.758 0-16.892-4.589-32.55-13.691-47.552-4.589-7.135-9.758-13.691-16.892-18.859-2.622-1.967-5.244-3.933-7.79-5.244-11.069-7.135-23.448-13.035-35.827-17.548-3.933-1.311-8.446-2.622-12.38-3.278-2.622-0.656-4.589 0-6.479 0.656-1.311 0.656-2.622 1.311-4.589 1.967-19.515 7.79-39.029 15.657-58.62 22.137-11.069 3.933-22.792 7.135-34.516 10.413-6.479 1.967-13.035 3.278-20.17 4.589-1.311 0-1.967 0.656-2.622 1.967-1.311 1.967-1.967 3.933-3.278 5.824-10.413 19.515-20.17 39.029-30.583 57.964-8.446 15.657-16.313 31.239-24.759 46.896-19.515 36.483-41.651 70.923-67.066 104.128-7.135 9.758-15.002 19.515-22.792 28.617-11.724 13.691-24.103 26.726-37.794 39.029-18.859 16.892-40.34 29.272-64.444 37.794-6.479 1.967-13.035 3.933-20.17 5.244-3.933 0.656-7.79 1.311-12.38 1.311-11.724 0.656-22.792-1.311-33.861-5.244-7.135-2.622-13.691-6.479-19.515-11.724-9.102-8.446-15.657-18.859-19.515-30.583-1.967-5.824-3.278-11.724-3.933-17.548-0.656-5.244-1.311-10.413-1.311-15.002 0-9.758 0.656-19.515 3.278-28.617 7.135-30.583 20.17-58.62 39.685-83.958 14.346-18.859 31.894-35.827 50.753-50.098 7.135-5.244 15.002-10.413 22.137-14.346 21.481-12.38 44.274-22.792 68.377-30.583 12.38-3.933 24.103-7.135 36.483-10.413 5.824-1.311 11.724-2.622 17.548-3.278 9.758-1.311 19.515-1.967 29.272-0.656 2.622 0 5.244 1.311 7.135 1.967 1.311 0.656 1.967 1.311 3.278 1.967 0.656 0.656 1.311 1.311 1.311 2.622 0.656 3.278 0.656 5.824-1.311 9.102-1.311 2.622-3.933 5.244-5.824 7.135-5.244 4.589-11.724 8.446-18.203 11.069-0.656 0.656-1.967 0.656-3.278 0.656-0.656 0-1.311 0-1.967-1.311 0-0.656 0-1.311 0-1.311 1.311-1.311 1.967-1.967 3.278-3.278 1.967-2.622 3.933-5.244 3.933-7.79 0 0 0-0.656 0-0.656 0.656-2.622-0.656-4.589-3.278-5.824s-4.589-1.967-7.135-1.967c-7.135 0-15.002 0-22.137 0.656-4.589 0.656-8.446 1.311-13.035 1.967-13.691 2.622-27.305 5.824-40.996 10.413-5.824 1.967-11.724 3.933-16.892 6.479-18.859 8.446-36.483 18.859-53.375 31.239-9.102 7.135-18.203 14.346-26.070 22.137-21.481 21.481-36.483 46.24-46.24 74.856-3.278 10.413-5.824 20.826-7.135 31.239-0.656 7.135-1.967 15.002-1.311 22.137 0 11.724 1.967 22.792 5.824 33.861 3.278 9.758 8.446 17.548 16.313 24.759 8.446 7.135 18.203 12.38 29.272 15.002 9.102 1.967 18.203 2.622 27.305 1.311 15.657-1.967 29.928-7.135 42.962-15.002 7.79-4.589 14.346-9.102 21.481-15.002 8.446-7.135 16.313-15.002 24.103-23.448 20.826-24.103 39.029-49.442 55.342-76.823 12.38-21.481 24.759-43.618 35.827-65.755 15.002-29.272 29.928-57.964 44.274-87.236 4.589-8.446 8.446-16.892 13.035-25.414 0-0.656 0-0.656 0-1.311s-0.656-0.656-0.656-1.311c0 0-0.656 0-0.656 0-3.933 0.656-7.79 1.311-12.38 1.967-3.278 0.656-5.824 0.656-9.102 0.656-3.933 0-7.135-0.656-10.413-1.967-4.589-1.311-6.479-5.824-5.824-10.413 0.656-2.622 1.311-4.589 3.278-5.824 1.311-1.967 3.278-3.278 5.244-4.589 4.589-3.278 9.102-5.824 13.691-7.79 8.446-3.933 16.892-7.79 26.070-10.413 3.278-1.311 6.479-1.967 9.758-3.278 1.311-0.656 2.622-1.311 4.589-1.311 0.656 0 1.311-0.656 1.967-1.311 1.311-1.967 2.622-3.933 3.278-5.824 11.724-21.481 24.759-42.307 37.138-63.133 14.346-23.448 30.583-44.929 48.863-65.755 1.311-1.311 2.622-2.622 3.278-3.933 0-0.656 0-1.311-0.656-1.311-1.967-0.656-3.933-1.311-5.824-1.967-4.589-1.311-14.346-2.622-18.859-3.278-3.933 0-7.79-0.656-11.724-0.656 1.311-4.589-3.933-4.589-9.102-4.589zM-381.757 1283.304c0 5.244 0 10.413 1.311 15.002 0.656 3.278 1.967 6.479 3.278 9.102 3.278 6.479 8.446 11.724 15.657 14.346 3.933 1.311 7.79 2.622 11.724 3.278 7.135 1.311 14.346 1.311 21.481 0 1.311 0 2.622-0.656 3.933-0.656 3.933 0 7.79-1.311 11.724-1.967 11.724-3.278 23.448-7.135 34.516-12.38 16.313-7.79 31.239-16.892 45.585-27.305 15.002-11.069 29.272-22.792 42.307-35.827 7.79-7.135 15.002-15.002 21.481-22.792 12.38-15.002 23.448-31.239 32.55-48.863 10.413-18.859 18.859-39.029 26.070-59.275 0-0.656 0.656-1.311 0.656-1.967s-0.656-1.311-1.311-1.967c-1.967-0.656-3.278-0.656-5.244-0.656-10.413-0.656-20.826-0.656-31.239 0-9.102 0.656-17.548 0.656-26.726 1.967-5.244 0-10.413 1.311-15.657 1.967-8.446 1.967-16.892 3.278-25.414 5.824-26.726 7.135-52.064 17.548-75.512 31.894-29.928 17.548-53.375 41.651-71.579 70.923-7.79 12.38-13.691 26.070-16.892 40.996-1.311 5.244-2.622 11.724-2.622 18.203zM-228.767 972.097c4.589 0 11.069 0 17.548 0s5.244 0.656 11.724-2.622c1.967-0.656 3.278-1.311 5.244-1.967 10.413-5.244 20.826-11.069 29.928-18.203 6.479-5.244 12.38-10.413 17.548-16.892 3.933-4.589 7.135-9.758 9.758-15.657 1.311-3.278 1.967-7.135 2.622-11.069 0-0.656 0-1.311 0-2.622-0.656-3.278-1.311-7.135-2.622-10.413-1.311-2.622-2.622-5.244-4.589-7.79-2.622-3.933-6.479-7.135-9.758-10.413-5.824-5.244-12.38-9.758-19.515-13.691-5.244-3.278-10.413-5.824-16.313-8.446-7.79-3.933-16.313-6.479-25.414-8.446-1.311-0.656-2.622 0-3.278 0.656-2.622 1.967-3.933 4.589-5.824 7.135-14.346 19.515-27.961 39.685-39.029 61.166-10.413 19.515-21.481 39.029-31.894 58.62-0.656 1.311-1.311 2.622-1.967 3.933 0 0.656 0 0.656-0.656 1.311 0 0.656 0 1.311 0.656 1.311 4.589-0.656 9.102-1.311 13.691-1.967 5.824-0.656 12.38-1.967 18.203-1.967 1.311 0 3.278-0.656 4.589-0.656 2.622 0 5.824-0.656 8.446-0.656 6.479-0.656 13.035-0.656 20.826-0.656zM-309.45 1013.748c0 0.656 0 0.656 0 0 2.622-0.656 5.244-1.311 7.135-1.967 15.657-4.589 30.583-9.102 45.585-15.002 9.758-3.933 18.859-7.79 27.961-12.38 1.311-0.656 2.622-1.311 3.278-1.967 0 0 0-0.656 0-0.656s0-0.656-0.656-0.656-1.311-0.656-1.967-0.656c-5.244 0-10.413 0-16.313 0-3.933 0-8.446 0.656-12.38 0.656-4.589 0-8.446 0.656-13.035 1.311-5.244 0.656-10.413 1.311-15.657 1.967-4.589 0.656-9.102 1.311-13.691 1.967-0.656 0-1.311 0.656-1.967 1.311 0 0 0 0.656-0.656 0.656-3.933 7.79-7.79 16.313-11.724 24.103 0 0.656 0 1.311 0 1.311 0 0.656 0.656 0.656 1.311 0.656 1.311 0 1.967 0 2.622-0.656zM-362.828 1022.194c5.244 0 10.413-0.656 15.002-1.967 2.622-0.656 5.244-1.311 8.446-1.311 0.656 0 1.311 0 1.311-0.656 0.656-0.656 1.311-0.656 1.967-1.311 0.656 0 0.656-0.656 0.656-1.311 3.933-7.135 7.79-14.346 11.069-21.481 0 0 0-0.656 0-0.656 0-0.656-0.656-0.656-0.656-0.656-0.656 0-1.311 0-1.967 0.656-7.135 1.967-14.346 4.589-20.826 7.135-5.244 1.967-9.758 4.589-14.346 7.135-2.622 1.967-5.244 3.933-7.79 5.824-0.656 0.656-1.311 1.311-1.967 1.967s-0.656 0.656-0.656 1.311c-0.656 1.311 0 2.622 1.311 3.278 1.967 1.967 5.244 2.622 8.446 1.967z"></path>
<path fill="#bc2140" d="M1057.050 1194.757c0 0.656 0.656 0.656 0 0z"></path>

<path fill="#bc2140" d="M-73.812 1442.135c-3.278 0-6.479 0-9.102 0-0.656 0-1.311 0-1.967 0s-0.656-0.656-0.656-1.311 0.656-1.967 1.311-1.967c0.656 0 1.311 0 1.967 0s0.656 0 1.311 0c1.311 0 2.622-1.311 2.622-2.622 0-0.656 0-0.656 0-1.311s0-1.967 0-2.622c0-11.724 0-22.792 0-34.516 0-1.311 0-2.622 0-3.933s-1.311-2.622-2.622-2.622c-0.656 0-1.311 0-2.622 0-0.656 0-1.311 0-1.311 0-0.656 0-0.656-0.656-0.656-1.311 0 0 0-0.656 0-0.656 0-0.656 0.656-1.311 1.311-1.311s0.656 0 1.311 0c6.479 0 13.035 0 19.515 0 0.656 0 0.656 0 1.311 0s1.311 0.656 1.311 1.311c0 0.656 0 1.311-0.656 1.967 0 0-0.656 0.656-0.656 0.656-1.311 0-1.967 0-3.278 0.656-1.311 0-2.622 1.311-2.622 2.622 0 0.656 0 1.311 0 1.967 0 1.311 0 2.622 0 3.933 0 10.413 0 20.826 0 31.239 0 1.967 0 3.278 0 5.244 0 1.311 1.311 2.622 2.622 2.622s2.622 0.656 3.933 0.656c0.656 0 1.311 0.656 1.311 1.311 0 0 0 0.656 0 0.656 0 0.656-0.656 1.311-1.311 1.311s-1.311 0-1.967 0c-3.933-1.967-7.135-1.967-10.413-1.967 0 0 0 0 0 0z"></path>
<path fill="#bc2140" d="M314.893 1386.14c3.278 0 5.824 0 9.102 0 0.656 0 1.311 0 1.967 0s1.311 0.656 1.311 1.311c0 0 0 0.656 0 0.656 0 0.656-0.656 0.656-0.656 1.311 0 0-0.656 0-0.656 0-0.656 0-1.311 0-2.622 0s-2.622 1.311-3.278 2.622c0 0.656 0 1.311 0 1.967 0 1.311 0 1.967 0 3.278 0 10.413 0 21.481 0 31.894 0 1.311 0 3.278 0 4.589 0 1.967 1.311 3.278 3.278 3.278 1.311 0 1.967 0.656 3.278 0.656 0.656 0 0.656 0.656 0.656 1.311 0 0 0 0.656 0 0.656 0 0.656-0.656 1.311-0.656 1.311-0.656 0-1.311 0-1.967 0-4.589 0-9.102 0-13.691 0-1.967 0-3.933 0-6.479 0-0.656 0-0.656 0-1.311 0 0 0-0.656-0.656-0.656-1.311 0-1.311 0.656-1.967 1.311-1.967s1.967 0 2.622-0.656c1.967 0 2.622-1.311 3.278-3.278 0-1.311 0-2.622 0-4.589 0-5.244 0-9.758 0-15.002 0-5.824 0-11.724 0-17.548 0-1.311 0-2.622 0-4.589s-1.967-3.278-3.278-3.278c-0.656 0-1.967 0-2.622 0s-1.311-0.656-1.311-1.967c0-0.656 0.656-1.967 1.311-1.967s1.311 0 1.967 0c3.278 1.311 6.479 1.311 9.102 1.311 0 0 0 0 0 0z"></path>
</svg>
