<svg width="54" height="54" viewBox="0 0 54 54" fill="none" xmlns="http://www.w3.org/2000/svg">
<circle cx="27" cy="27" r="26.5" fill="white" stroke="#660000"/>
<path d="M51 27C51 40.2548 40.2548 51 27 51C13.7452 51 3 40.2548 3 27C3 13.7452 13.7452 3 27 3C40.2548 3 51 13.7452 51 27Z" fill="#660000"/>
<path d="M12.3 17.19L12.326 16.8H17.89C21.634 16.8 23.506 18.2647 23.506 21.194C23.506 22.3207 22.7607 23.5513 21.27 24.886C23.4713 25.4233 24.572 27.0007 24.572 29.618C24.572 31.6633 24.052 33.076 23.012 33.856C21.9893 34.6187 20.412 35 18.28 35H17.526L12.3 35.026L12.326 34.662L13.678 34.48C13.8513 34.4627 13.9553 34.35 13.99 34.142V17.71C13.9553 17.4847 13.8513 17.3633 13.678 17.346L12.3 17.19ZM18.8 25.042H15.758V34.61H18.15C21.2527 34.61 22.804 32.9807 22.804 29.722C22.804 28.058 22.466 26.862 21.79 26.134C21.1313 25.406 20.1347 25.042 18.8 25.042ZM18.93 24.652C19.5713 24.652 20.126 24.6867 20.594 24.756C21.3567 23.56 21.738 22.4247 21.738 21.35C21.738 18.5767 20.412 17.19 17.76 17.19H15.758V24.652H18.93ZM26.211 17.19L26.237 16.8H29.799L39.913 34.272L39.783 17.71C39.7137 17.5367 39.6183 17.4413 39.497 17.424L37.105 17.216C37.0877 17.112 37.079 16.982 37.079 16.826L42.019 16.8C42.019 16.8173 42.0277 16.9473 42.045 17.19L40.381 17.372V35H38.483L28.369 17.528L28.499 34.454L31.463 34.61C31.463 34.6273 31.4543 34.7573 31.437 35L26.211 35.026L26.237 34.662L27.589 34.48C27.7623 34.4627 27.8663 34.35 27.901 34.142V17.684C27.8663 17.476 27.7623 17.3633 27.589 17.346L26.211 17.19Z" fill="white"/>
</svg>
