<svg width="223" height="170" viewBox="0 0 223 170" fill="none" xmlns="http://www.w3.org/2000/svg">
<g clip-path="url(#clip0_25_602)">
<path d="M47.0145 51.6727L45.3345 54.6792L44.3691 54.1396L44.6764 53.5896L38.0528 49.8875L37.7455 50.4375L36.78 49.8979L38.3371 47.1114C38.5602 46.7122 38.8036 46.3724 39.0672 46.092C39.3353 45.8035 39.6209 45.5889 39.924 45.4483C40.2226 45.3158 40.5468 45.2618 40.8967 45.2862C41.2384 45.3061 41.5966 45.4208 41.9714 45.6303C42.4765 45.9126 42.8522 46.283 43.0986 46.7414C43.3494 47.1917 43.4075 47.7 43.2729 48.2663C43.4492 48.0655 43.6536 47.891 43.8861 47.7429C44.1231 47.5867 44.3767 47.4772 44.647 47.4144C44.9127 47.3598 45.1911 47.3496 45.482 47.3839C45.7729 47.4182 46.065 47.5173 46.3583 47.6813C46.7249 47.8862 47.0034 48.1434 47.1939 48.4531C47.3763 48.7581 47.4865 49.087 47.5246 49.4398C47.5663 49.8053 47.5427 50.1823 47.4538 50.571C47.3567 50.9552 47.2103 51.3224 47.0145 51.6727ZM42.3836 50.9769L45.2432 52.5752L46.0013 51.2187C46.1424 50.9661 46.246 50.7139 46.3119 50.462C46.3778 50.2102 46.3974 49.9645 46.3708 49.7251C46.3478 49.4984 46.2781 49.2884 46.1616 49.095C46.0452 48.9016 45.8688 48.7389 45.6325 48.6068C45.38 48.4657 45.1281 48.3997 44.877 48.4091C44.6259 48.4184 44.3891 48.4785 44.1668 48.5895C43.948 48.7131 43.7418 48.8812 43.5482 49.0938C43.3546 49.3063 43.1872 49.5389 43.046 49.7915L42.3836 50.9769ZM38.6196 48.8731L41.4182 50.4373L42.1557 49.1174C42.4244 48.6367 42.5016 48.1827 42.3876 47.7554C42.2781 47.32 42.0034 46.9793 41.5634 46.7334C41.3109 46.5923 41.074 46.5187 40.8528 46.5127C40.628 46.494 40.4195 46.5324 40.227 46.628C40.06 46.7165 39.9038 46.843 39.7583 47.0076C39.6047 47.1677 39.4665 47.3577 39.3435 47.5777L38.6196 48.8731Z" fill="#FEFEFE"/>
<path d="M48.3508 41.6605C48.1916 41.8677 48.0836 42.0849 48.0268 42.312C47.9682 42.526 47.9564 42.7405 47.9912 42.9557C48.0265 43.1241 48.088 43.2891 48.1757 43.4507C48.2691 43.605 48.3906 43.7455 48.5403 43.8724C48.6818 43.4278 48.8205 42.987 48.9563 42.5498C49.0904 42.0996 49.2282 41.6522 49.3697 41.2077C49.1643 41.2146 48.9734 41.2562 48.7971 41.3325C48.619 41.3958 48.4703 41.5051 48.3508 41.6605ZM52.3088 42.4608C52.3516 42.7881 52.3338 43.1099 52.2554 43.4264C52.177 43.7428 52.0297 44.0417 51.8136 44.3229C51.5748 44.6337 51.2946 44.8834 50.9732 45.0719C50.6501 45.2473 50.3119 45.3581 49.9586 45.4043C49.6052 45.4505 49.2536 45.4333 48.9036 45.3526C48.5519 45.2588 48.2244 45.0952 47.9211 44.862C47.6251 44.6344 47.3866 44.3628 47.2055 44.0469C47.0301 43.7237 46.9193 43.3854 46.8731 43.032C46.8343 42.6843 46.8617 42.3345 46.9555 41.9828C47.0475 41.6179 47.213 41.2801 47.4518 40.9693C47.6281 40.7399 47.844 40.5585 48.0994 40.4253C48.3531 40.2789 48.6268 40.1832 48.9204 40.1382C49.2083 40.1005 49.5152 40.107 49.8413 40.1575C50.16 40.2024 50.4781 40.2939 50.7956 40.4321C50.5939 41.0775 50.3921 41.723 50.1904 42.3685C49.9943 43.0065 49.7954 43.6483 49.5937 44.2937C49.8344 44.3022 50.0711 44.2546 50.3037 44.1509C50.5347 44.0342 50.7383 43.8611 50.9146 43.6317C51.0454 43.4615 51.1353 43.2833 51.1841 43.0972C51.233 42.9111 51.2409 42.717 51.2078 42.515L52.3088 42.4608Z" fill="#FEFEFE"/>
<path d="M60.0131 35.0189L58.5348 36.4907L58.3373 36.2922C58.2913 36.2459 58.2583 36.2128 58.2386 36.193C58.2188 36.1731 58.1859 36.14 58.1399 36.0937C58.153 36.1202 58.1561 36.1895 58.1493 36.3017C58.1424 36.4139 58.1124 36.5491 58.0592 36.7074C58.006 36.8789 57.9231 37.0602 57.8105 37.2514C57.7044 37.4492 57.5555 37.6435 57.3637 37.8345C57.0859 38.1111 56.7752 38.3216 56.4318 38.466C56.0817 38.6037 55.7286 38.6722 55.3722 38.6714C55.0159 38.6705 54.6697 38.607 54.3334 38.4807C53.9973 38.3413 53.6975 38.1393 53.4342 37.8746C53.1775 37.6166 52.9802 37.319 52.8425 36.9821C52.7113 36.6385 52.6462 36.2885 52.647 35.9321C52.6479 35.5756 52.718 35.2226 52.8574 34.8731C52.9968 34.5236 53.2054 34.2105 53.4832 33.934C53.847 33.5718 54.2005 33.3515 54.5439 33.2731C54.8806 33.1881 55.1313 33.1755 55.2962 33.2353C55.237 33.1626 55.1712 33.0832 55.0988 32.9972C55.0264 32.898 54.9508 32.8087 54.8718 32.7293L55.5563 32.0478L58.479 34.9856L59.233 34.2349L60.0131 35.0189ZM54.283 34.7379C54.1044 34.9157 53.972 35.1134 53.8857 35.331C53.7928 35.542 53.7527 35.7532 53.7654 35.9644C53.7715 36.1559 53.814 36.3441 53.8927 36.5291C53.9781 36.7075 54.0997 36.8762 54.2577 37.035C54.442 37.2202 54.6496 37.356 54.8803 37.4424C55.1177 37.5222 55.3551 37.5492 55.5927 37.5233C55.7577 37.5039 55.9261 37.4548 56.0979 37.376C56.263 37.2906 56.4184 37.1755 56.5639 37.0306C56.7292 36.866 56.8517 36.6913 56.9314 36.5067C57.0176 36.3155 57.0642 36.1241 57.0713 35.9327C57.0784 35.7149 57.0393 35.5036 56.954 35.2988C56.8754 35.0874 56.7504 34.8956 56.5793 34.7236C56.4082 34.5516 56.2171 34.4257 56.0061 34.346C55.8018 34.2597 55.5973 34.2196 55.3928 34.2257C55.1948 34.2384 55 34.2875 54.8085 34.3728C54.6235 34.4516 54.4484 34.5733 54.283 34.7379Z" fill="#FEFEFE"/>
<path d="M63.7673 30.3362C63.891 30.8056 63.8681 31.2754 63.6988 31.7456C63.5312 32.2028 63.2472 32.5844 62.8468 32.8905C62.4094 33.225 61.9768 33.3736 61.5491 33.3365C61.1214 33.2993 60.7584 33.1009 60.4603 32.7414L58.8202 30.5942L58.0862 31.1554L57.4148 30.2765L59.0719 29.0094L61.0605 31.6128C61.2283 31.8018 61.4319 31.9222 61.6712 31.9742C61.9123 32.013 62.1794 31.9322 62.4725 31.7316C62.6653 31.5842 62.8214 31.4119 62.941 31.2148C63.0679 31.012 63.1528 30.8002 63.1956 30.5795C63.2384 30.3588 63.2383 30.1357 63.1952 29.9101C63.1521 29.6846 63.0569 29.4754 62.9096 29.2826L62.0343 28.1366L61.3003 28.6979L60.6289 27.8189L62.286 26.5519L64.878 29.9452L65.5675 29.418L66.1624 30.1968L64.5498 31.4298L64.1164 30.8624L63.7673 30.3362Z" fill="#FEFEFE"/>
<path d="M70.4547 27.5848L68.5519 28.7128L66.455 25.171L65.4434 25.7706L64.8657 24.7948L65.8773 24.1952L64.137 21.2557L65.1366 20.6632L66.8769 23.6026L68.0571 22.903L68.6348 23.8788L67.4546 24.5784L68.988 27.1685L69.8913 26.6331L70.4547 27.5848Z" fill="#FEFEFE"/>
<path d="M75.2714 25.0859L72.4843 26.4613L71.9954 25.4693L72.8742 25.0356L71.5313 22.3105L70.6525 22.7442L70.1636 21.7521L72.0844 20.8042L73.9162 24.5213L74.7825 24.0938L75.2714 25.0859ZM71.3252 18.9151C71.4201 19.1077 71.4315 19.2998 71.3595 19.4914C71.2833 19.6747 71.1657 19.8056 71.0067 19.8841C70.8393 19.9667 70.6598 19.9825 70.4681 19.9313C70.2723 19.8719 70.127 19.7458 70.0321 19.5533C69.9372 19.3607 69.9257 19.1686 69.9978 18.9769C70.0698 18.7853 70.1895 18.6481 70.3569 18.5655C70.5159 18.487 70.6933 18.4776 70.8891 18.537C71.0849 18.5965 71.2303 18.7226 71.3252 18.9151Z" fill="#FEFEFE"/>
<path d="M78.6977 23.6513L75.8138 24.8101L75.4021 23.7836L76.1945 23.4652L75.0739 20.6715L74.2815 20.9899L73.8593 19.9374L74.6387 19.6243L73.8986 17.7792C73.704 17.2941 73.61 16.834 73.6165 16.3988C73.6316 15.9602 73.7273 15.5597 73.9037 15.1971C74.0766 14.8259 74.3275 14.4987 74.6564 14.2157C74.9906 13.9205 75.375 13.6755 75.8097 13.4807L76.2215 14.5072C75.934 14.6429 75.6838 14.8088 75.4708 15.005C75.2631 15.189 75.1013 15.3999 74.9854 15.6376C74.8644 15.8874 74.8023 16.1587 74.7991 16.4517C74.796 16.7447 74.8604 17.0557 74.9925 17.3849L75.7169 19.191L77.2498 18.5751L77.672 19.6276L76.1391 20.2435L77.2597 23.0371L78.286 22.6248L78.6977 23.6513Z" fill="#FEFEFE"/>
<path d="M85.4312 20.07C85.3702 20.5516 85.1733 20.9788 84.8403 21.3515C84.5138 21.7127 84.1077 21.9604 83.6219 22.0945C83.0911 22.2411 82.6343 22.2171 82.2516 22.0226C81.8688 21.8282 81.6065 21.5084 81.4646 21.0635L80.747 18.4585L79.8563 18.7045L79.5626 17.6382L81.5733 17.083L82.4434 20.2414C82.5283 20.4793 82.672 20.6672 82.8745 20.8049C83.0836 20.9312 83.3615 20.9561 83.7083 20.8797C83.9423 20.8151 84.1515 20.7138 84.3361 20.5757C84.5298 20.4351 84.6877 20.2704 84.81 20.0818C84.9323 19.8931 85.0156 19.6861 85.0601 19.4608C85.1045 19.2355 85.0945 19.0059 85.03 18.772L84.6471 17.3817L83.7564 17.6277L83.4626 16.5614L85.4734 16.0062L86.6075 20.1229L87.4441 19.8918L87.7044 20.8367L85.7476 21.3769L85.558 20.6886L85.4312 20.07Z" fill="#FEFEFE"/>
<path d="M92.3919 20.0476L89.3273 20.565L89.1437 19.4743L90.1929 19.2972L88.8177 11.1241L87.9066 11.2779L87.7231 10.1872L89.78 9.83995L91.3387 19.1037L92.2084 18.9569L92.3919 20.0476Z" fill="#FEFEFE"/>
<path d="M96.119 19.6324L93.0292 19.9691L92.91 18.8695L93.9677 18.7542L93.0741 10.5146L92.1556 10.6147L92.0363 9.51511L94.11 9.28912L95.1229 18.6284L95.9997 18.5328L96.119 19.6324Z" fill="#FEFEFE"/>
<path d="M110.727 11.2879L110.087 20.4075L103.469 12.3112L103.229 11.9296L103.24 12.3794L102.821 18.3428L103.827 18.4129L103.75 19.5162L100.37 19.2804L100.447 18.1771L101.662 18.2619L102.193 10.6925L100.978 10.6077L101.056 9.50441L102.676 9.61746L108.909 17.3922L109.149 17.7738L109.138 17.324L109.567 11.2071L108.562 11.1369L108.639 10.0336L112.019 10.2694L111.942 11.3727L110.727 11.2879Z" fill="#FEFEFE"/>
<path d="M117.292 21.6167L115.255 21.1672L115.316 20.8938C115.33 20.83 115.34 20.7844 115.346 20.7571C115.352 20.7297 115.362 20.6842 115.376 20.6204C115.361 20.6457 115.304 20.6858 115.206 20.7406C115.108 20.7954 114.978 20.8431 114.816 20.8839C114.643 20.9317 114.446 20.9598 114.224 20.9683C114 20.9858 113.756 20.9654 113.492 20.9071C113.109 20.8226 112.764 20.6748 112.457 20.4637C112.152 20.2434 111.904 19.9831 111.712 19.6828C111.521 19.3824 111.387 19.0566 111.312 18.7055C111.247 18.3472 111.256 17.9858 111.336 17.6213C111.415 17.2658 111.559 16.9392 111.768 16.6413C111.986 16.3453 112.245 16.1015 112.546 15.9098C112.846 15.718 113.181 15.5864 113.551 15.515C113.92 15.4436 114.296 15.4502 114.679 15.5346C115.18 15.6452 115.557 15.8239 115.808 16.0705C116.061 16.308 116.207 16.5123 116.246 16.6833C116.275 16.5942 116.307 16.496 116.34 16.3886C116.384 16.2742 116.419 16.1622 116.443 16.0529L117.386 16.261L116.492 20.3075L117.531 20.5368L117.292 21.6167ZM114.434 16.6419C114.188 16.5876 113.95 16.5829 113.721 16.6278C113.493 16.6635 113.294 16.7438 113.123 16.8686C112.965 16.9771 112.829 17.1145 112.716 17.2807C112.612 17.4488 112.536 17.6423 112.488 17.861C112.431 18.1162 112.429 18.3642 112.481 18.6051C112.542 18.8479 112.647 19.0624 112.798 19.2484C112.903 19.3768 113.035 19.492 113.194 19.594C113.355 19.6869 113.536 19.7555 113.737 19.7998C113.965 19.85 114.178 19.8588 114.376 19.8262C114.584 19.7955 114.77 19.7314 114.935 19.634C115.122 19.5224 115.279 19.3754 115.405 19.193C115.54 19.0126 115.634 18.8039 115.687 18.567C115.739 18.33 115.742 18.1013 115.695 17.8806C115.657 17.662 115.58 17.4683 115.465 17.2994C115.347 17.1397 115.201 17.0022 115.025 16.887C114.859 16.7739 114.662 16.6922 114.434 16.6419Z" fill="#FEFEFE"/>
<path d="M121.159 22.9059L118.199 21.9605L118.535 20.907L119.469 21.2051L120.393 18.3112L119.46 18.0131L119.797 16.9595L121.837 17.6111L120.576 21.5586L121.496 21.8524L121.159 22.9059ZM122.602 15.7243C122.536 15.9288 122.411 16.075 122.226 16.1629C122.044 16.2419 121.869 16.2545 121.7 16.2005C121.522 16.1438 121.382 16.0304 121.279 15.8605C121.18 15.6817 121.163 15.4901 121.228 15.2856C121.293 15.0811 121.418 14.9349 121.603 14.847C121.788 14.7591 121.969 14.7435 122.147 14.8003C122.316 14.8542 122.45 14.9706 122.55 15.1494C122.65 15.3282 122.667 15.5198 122.602 15.7243Z" fill="#FEFEFE"/>
<path d="M124.671 24.2671L121.774 23.1412L122.175 22.1103L123.166 22.4958L126.169 14.771L125.308 14.4363L125.709 13.4054L127.653 14.1611L124.249 22.9167L125.071 23.2363L124.671 24.2671Z" fill="#FEFEFE"/>
<path d="M128.67 25.5768C128.473 25.6763 128.244 25.7276 127.981 25.7309C127.718 25.7341 127.419 25.6516 127.086 25.4835C126.778 25.3279 126.501 25.1412 126.255 24.9233C126.014 24.697 125.856 24.4502 125.782 24.1828L126.331 23.0953L127.256 23.5619L127.01 24.0494C127.089 24.1415 127.17 24.219 127.253 24.2819C127.349 24.3407 127.468 24.4058 127.609 24.4773C127.676 24.5109 127.747 24.5362 127.822 24.5532C127.905 24.5744 127.987 24.5788 128.066 24.5666C128.125 24.5543 128.179 24.5294 128.229 24.492C128.292 24.4505 128.344 24.3881 128.386 24.3048C128.462 24.1548 128.473 24.0192 128.419 23.8979C128.378 23.7725 128.295 23.647 128.17 23.5214C128.058 23.3916 127.927 23.2575 127.777 23.1192C127.631 22.9726 127.505 22.8094 127.397 22.6295C127.293 22.4622 127.235 22.2658 127.224 22.0403C127.212 21.8149 127.28 21.5564 127.427 21.2647C127.557 21.0064 127.716 20.8149 127.905 20.6904C128.093 20.5658 128.289 20.4872 128.494 20.4546C128.703 20.4136 128.907 20.4122 129.108 20.4505C129.308 20.4888 129.479 20.5436 129.62 20.6151C129.704 20.6572 129.799 20.7159 129.908 20.7915C130.024 20.8712 130.135 20.9634 130.239 21.0681C130.343 21.1728 130.436 21.288 130.519 21.4135C130.61 21.5432 130.677 21.6812 130.718 21.8274L130.169 22.9149L129.244 22.4483L129.516 21.9108C129.457 21.8605 129.401 21.8165 129.347 21.7787C129.297 21.7326 129.239 21.6927 129.172 21.6591C129.08 21.6129 128.995 21.5854 128.916 21.5768C128.841 21.5598 128.774 21.5575 128.715 21.5698C128.653 21.5905 128.598 21.6258 128.552 21.6757C128.51 21.7173 128.477 21.7735 128.451 21.8444C128.418 21.9528 128.438 22.0676 128.513 22.189C128.592 22.3019 128.691 22.4254 128.812 22.5594C128.924 22.6892 129.045 22.8337 129.174 22.9927C129.302 23.1518 129.41 23.3213 129.497 23.5011C129.58 23.6892 129.623 23.8939 129.627 24.1151C129.634 24.328 129.573 24.5636 129.443 24.822C129.384 24.9386 129.287 25.0677 129.153 25.2091C129.027 25.3548 128.866 25.4773 128.67 25.5768Z" fill="#FEFEFE"/>
<path d="M33.9165 93.4166L37.0259 92.1817V88.1858L38.9477 91.4186L42.0571 90.1837L40.1354 93.4166L42.0571 96.6494L38.9477 95.4146L37.0259 98.6474V94.6514L33.9165 93.4166Z" fill="#FEFEFE"/>
<path d="M38.9165 112.417L43.7534 110.733V105.284L46.7427 109.692L51.5796 108.008L48.5903 112.417L51.5796 116.825L46.7427 115.141L43.7534 119.549V114.1L38.9165 112.417Z" fill="#FEFEFE"/>
<path d="M52.9165 114.917L55.3349 114.019V111.112L56.8296 113.463L59.2481 112.565L57.7534 114.917L59.2481 117.268L56.8296 116.37L55.3349 118.721V115.815L52.9165 114.917Z" fill="#FEFEFE"/>
<path d="M70.9165 131.917L73.3349 131.018V128.112L74.8296 130.463L77.2481 129.565L75.7534 131.917L77.2481 134.268L74.8296 133.37L73.3349 135.721V132.815L70.9165 131.917Z" fill="#FEFEFE"/>
<path d="M76.9165 138.917L79.3349 138.018V135.112L80.8296 137.463L83.2481 136.565L81.7534 138.917L83.2481 141.268L80.8296 140.37L79.3349 142.721V139.815L76.9165 138.917Z" fill="#FEFEFE"/>
<path d="M32.4047 79.7129L36.846 77.1624L35.8368 71.8076L39.5909 75.5861L44.0322 73.0355L41.9111 77.9213L45.6652 81.6998L40.6001 80.9409L38.4789 85.8266L37.4697 80.4718L32.4047 79.7129Z" fill="#FEFEFE"/>
<path d="M81.9165 135.417L86.7534 133.733V128.284L89.7427 132.692L94.5796 131.008L91.5903 135.417L94.5796 139.825L89.7427 138.141L86.7534 142.549V137.1L81.9165 135.417Z" fill="#FEFEFE"/>
<path d="M133.917 122.417L138.753 120.733V115.284L141.743 119.692L146.58 118.008L143.59 122.417L146.58 126.825L141.743 125.141L138.753 129.549V124.1L133.917 122.417Z" fill="#FEFEFE"/>
<path d="M154.917 87.9165L158.717 86.5694V82.2102L161.066 85.7369L164.866 84.3898L162.517 87.9165L164.866 91.4432L161.066 90.0961L158.717 93.6228V89.2636L154.917 87.9165Z" fill="#FEFEFE"/>
<path d="M107.917 137.917L110.68 137.018V134.112L112.389 136.463L115.153 135.565L113.444 137.917L115.153 140.268L112.389 139.37L110.68 141.721V138.815L107.917 137.917Z" fill="#FEFEFE"/>
<path d="M131.917 132.917L134.68 132.018V129.112L136.389 131.463L139.153 130.565L137.444 132.917L139.153 135.268L136.389 134.37L134.68 136.721V133.815L131.917 132.917Z" fill="#FEFEFE"/>
<path d="M92.9165 143.417L94.9895 142.631V140.088L96.2706 142.145L98.3436 141.359L97.0624 143.417L98.3436 145.474L96.2706 144.688L94.9895 146.745V144.202L92.9165 143.417Z" fill="#FEFEFE"/>
<path d="M147.917 119.417L149.989 118.631V116.088L151.271 118.145L153.344 117.359L152.062 119.417L153.344 121.474L151.271 120.688L149.989 122.745V120.202L147.917 119.417Z" fill="#FEFEFE"/>
<path d="M147.917 112.417L149.989 111.631V109.088L151.271 111.145L153.344 110.359L152.062 112.417L153.344 114.474L151.271 113.688L149.989 115.745V113.202L147.917 112.417Z" fill="#FEFEFE"/>
<path d="M153.917 99.4165L155.989 98.6307V96.0878L157.271 98.1451L159.344 97.3593L158.062 99.4165L159.344 101.474L157.271 100.688L155.989 102.745V100.202L153.917 99.4165Z" fill="#FEFEFE"/>
<path d="M162.917 80.4165L164.989 79.6307V77.0878L166.271 79.1451L168.344 78.3593L167.062 80.4165L168.344 82.4738L166.271 81.688L164.989 83.7452V81.2023L162.917 80.4165Z" fill="#FEFEFE"/>
<path d="M157.917 74.4165L159.989 73.6307V71.0878L161.271 73.1451L163.344 72.3593L162.062 74.4165L163.344 76.4738L161.271 75.688L159.989 77.7452V75.2023L157.917 74.4165Z" fill="#FEFEFE"/>
<path d="M160.917 96.4165L162.989 95.6307V93.0878L164.271 95.1451L166.344 94.3593L165.062 96.4165L166.344 98.4738L164.271 97.688L162.989 99.7452V97.2023L160.917 96.4165Z" fill="#FEFEFE"/>
<path d="M153.917 108.917L157.371 107.794V104.161L159.507 107.1L162.962 105.978L160.826 108.917L162.962 111.855L159.507 110.733L157.371 113.672V110.039L153.917 108.917Z" fill="#FEFEFE"/>
<path d="M97.9165 138.417L99.644 137.855V136.039L100.712 137.508L102.439 136.947L101.371 138.417L102.439 139.886L100.712 139.325L99.644 140.794V138.978L97.9165 138.417Z" fill="#FEFEFE"/>
<path d="M162.917 68.4165L164.644 67.8552V66.0389L165.712 67.5083L167.439 66.947L166.371 68.4165L167.439 69.886L165.712 69.3247L164.644 70.7941V68.9778L162.917 68.4165Z" fill="#FEFEFE"/>
<path d="M122.917 133.417L124.644 132.855V131.039L125.712 132.508L127.439 131.947L126.371 133.417L127.439 134.886L125.712 134.325L124.644 135.794V133.978L122.917 133.417Z" fill="#FEFEFE"/>
<path d="M128.917 136.417L129.953 136.08V134.99L130.594 135.872L131.63 135.535L130.989 136.417L131.63 137.298L130.594 136.961L129.953 137.843V136.753L128.917 136.417Z" fill="#FEFEFE"/>
<path d="M116.917 139.416L119.972 138.354V134.916L121.861 137.698L124.917 136.635L123.028 139.416L124.917 142.198L121.861 141.135L119.972 143.916V140.479L116.917 139.416Z" fill="#FEFEFE"/>
<path d="M102.917 143.417L105.335 142.631V140.088L106.83 142.145L109.248 141.359L107.753 143.417L109.248 145.474L106.83 144.688L105.335 146.745V144.202L102.917 143.417Z" fill="#FEFEFE"/>
<path d="M48.9165 123.917L51.3349 123.019V120.112L52.8296 122.463L55.2481 121.565L53.7534 123.917L55.2481 126.268L52.8296 125.37L51.3349 127.721V124.815L48.9165 123.917Z" fill="#FEFEFE"/>
<path d="M59.9165 132.917L63.7169 131.569V127.21L66.0657 130.737L69.8661 129.39L67.5173 132.917L69.8661 136.443L66.0657 135.096L63.7169 138.623V134.264L59.9165 132.917Z" fill="#FEFEFE"/>
<path d="M56.9165 123.917L59.3349 123.019V120.112L60.8296 122.463L63.2481 121.565L61.7534 123.917L63.2481 126.268L60.8296 125.37L59.3349 127.721V124.815L56.9165 123.917Z" fill="#FEFEFE"/>
<path d="M42.9165 100.917L45.3349 100.019V97.1123L46.8296 99.4635L49.2481 98.5654L47.7534 100.917L49.2481 103.268L46.8296 102.37L45.3349 104.721V101.815L42.9165 100.917Z" fill="#FEFEFE"/>
<path d="M163.916 63.9165L161.153 64.8146V67.7207L159.444 65.3696L156.68 66.2676L158.389 63.9165L156.68 61.5654L159.444 62.4634L161.153 60.1123V63.0184L163.916 63.9165Z" fill="#FEFEFE"/>
<path d="M160.916 41.4165L157.807 42.6513V46.6473L155.885 43.4145L152.776 44.6493L154.698 41.4165L152.776 38.1837L155.885 39.4185L157.807 36.1857V40.1817L160.916 41.4165Z" fill="#FEFEFE"/>
<path d="M152.648 38.9165L150.23 39.8146V42.7207L148.735 40.3696L146.317 41.2676L147.812 38.9165L146.317 36.5654L148.735 37.4634L150.23 35.1123V38.0184L152.648 38.9165Z" fill="#FEFEFE"/>
<path d="M158.916 49.9165L156.498 50.59V52.7697L155.003 51.0063L152.585 51.6799L154.08 49.9165L152.585 48.1531L155.003 48.8267L156.498 47.0633V49.243L158.916 49.9165Z" fill="#FEFEFE"/>
<path d="M43.6485 64.4165L41.5755 65.2023V67.7452L40.2944 65.688L38.2214 66.4738L39.5026 64.4165L38.2214 62.3593L40.2944 63.1451L41.5755 61.0878V63.6307L43.6485 64.4165Z" fill="#FEFEFE"/>
<path d="M37.6485 68.4165L35.5755 69.2023V71.7452L34.2944 69.688L32.2214 70.4738L33.5026 68.4165L32.2214 66.3593L34.2944 67.1451L35.5755 65.0878V67.6307L37.6485 68.4165Z" fill="#FEFEFE"/>
<path d="M36.6485 86.4165L34.921 86.9778V88.7941L33.8534 87.3247L32.126 87.886L33.1936 86.4165L32.126 84.947L33.8534 85.5083L34.921 84.0389V85.8552L36.6485 86.4165Z" fill="#FEFEFE"/>
<path d="M150.648 31.9165L148.921 32.59V34.7697L147.853 33.0063L146.126 33.6799L147.194 31.9165L146.126 30.1531L147.853 30.8267L148.921 29.0633V31.243L150.648 31.9165Z" fill="#FEFEFE"/>
<path d="M144.648 30.9165L142.23 31.8146V34.7207L140.735 32.3696L138.317 33.2676L139.812 30.9165L138.317 28.5654L140.735 29.4634L142.23 27.1123V30.0184L144.648 30.9165Z" fill="#FEFEFE"/>
<path d="M165.916 55.4165L162.807 56.6513V60.6473L160.885 57.4145L157.776 58.6493L159.698 55.4165L157.776 52.1837L160.885 53.4185L162.807 50.1857V54.1817L165.916 55.4165Z" fill="#FEFEFE"/>
</g>
<defs>
<clipPath id="clip0_25_602">
<rect width="223" height="170" fill="white"/>
</clipPath>
</defs>
</svg>
