<svg aria-hidden="true" style="position: absolute; width: 0; height: 0; overflow: hidden;" version="1.1" xmlns="http://www.w3.org/2000/svg" xmlns:xlink="http://www.w3.org/1999/xlink">
<defs>
<symbol id="icon-time" viewBox="0 0 20 20">
<path d="M10 20c-5.523 0-10-4.477-10-10s4.477-10 10-10v0c5.523 0 10 4.477 10 10s-4.477 10-10 10v0zM10 18c4.418 0 8-3.582 8-8s-3.582-8-8-8v0c-4.418 0-8 3.582-8 8s3.582 8 8 8v0zM9 10.41v-6.41h2v5.59l3.95 3.95-1.41 1.41-4.54-4.54z"></path>
</symbol>
<symbol id="icon-paper-plane" viewBox="0 0 28 28">
<path d="M27.563 0.172c0.328 0.234 0.484 0.609 0.422 1l-4 24c-0.047 0.297-0.234 0.547-0.5 0.703-0.141 0.078-0.313 0.125-0.484 0.125-0.125 0-0.25-0.031-0.375-0.078l-7.078-2.891-3.781 4.609c-0.187 0.234-0.469 0.359-0.766 0.359-0.109 0-0.234-0.016-0.344-0.063-0.391-0.141-0.656-0.516-0.656-0.938v-5.453l13.5-16.547-16.703 14.453-6.172-2.531c-0.359-0.141-0.594-0.469-0.625-0.859-0.016-0.375 0.172-0.734 0.5-0.922l26-15c0.156-0.094 0.328-0.141 0.5-0.141 0.203 0 0.406 0.063 0.562 0.172z"></path>
</symbol>
<symbol id="icon-phone" viewBox="0 0 32 32">
<path d="M22 20c-2 2-2 4-4 4s-4-2-6-4-4-4-4-6 2-2 4-4-4-8-6-8-6 6-6 6c0 4 4.109 12.109 8 16s12 8 16 8c0 0 6-4 6-6s-6-8-8-6z"></path>
</symbol>
<symbol id="icon-envelope" viewBox="0 0 28 28">
<path d="M28 11.094v12.406c0 1.375-1.125 2.5-2.5 2.5h-23c-1.375 0-2.5-1.125-2.5-2.5v-12.406c0.469 0.516 1 0.969 1.578 1.359 2.594 1.766 5.219 3.531 7.766 5.391 1.313 0.969 2.938 2.156 4.641 2.156h0.031c1.703 0 3.328-1.188 4.641-2.156 2.547-1.844 5.172-3.625 7.781-5.391 0.562-0.391 1.094-0.844 1.563-1.359zM28 6.5c0 1.75-1.297 3.328-2.672 4.281-2.438 1.687-4.891 3.375-7.313 5.078-1.016 0.703-2.734 2.141-4 2.141h-0.031c-1.266 0-2.984-1.437-4-2.141-2.422-1.703-4.875-3.391-7.297-5.078-1.109-0.75-2.688-2.516-2.688-3.938 0-1.531 0.828-2.844 2.5-2.844h23c1.359 0 2.5 1.125 2.5 2.5z"></path>
</symbol>
<symbol id="icon-messenger" viewBox="0 0 32 32">
<path d="M 16 4 C 9.410156 4 4 9.136719 4 15.5 C 4 18.890625 5.570313 21.902344 8 24 L 8 28.625 L 12.4375 26.40625 C 13.566406 26.746094 14.746094 27 16 27 C 22.589844 27 28 21.863281 28 15.5 C 28 9.136719 22.589844 4 16 4 Z M 16 6 C 21.558594 6 26 10.265625 26 15.5 C 26 20.734375 21.558594 25 16 25 C 14.804688 25 13.664063 24.773438 12.59375 24.40625 L 12.1875 24.28125 L 10 25.375 L 10 23.125 L 9.625 22.8125 C 7.40625 21.0625 6 18.441406 6 15.5 C 6 10.265625 10.441406 6 16 6 Z M 14.875 12.34375 L 8.84375 18.71875 L 14.25 15.71875 L 17.125 18.8125 L 23.09375 12.34375 L 17.8125 15.3125 Z"/>
</symbol>
<symbol id="icon-viber" viewBox="0 0 32 32">
<path d="M15.633 1.92c-0.873 0.005-1.748 0.058-2.63 0.165-1.688 0.208-3.36 0.553-4.965 1.29-2.553 1.173-4.362 3.162-4.888 6.055-0.223 1.22-0.402 2.457-0.505 3.703-0.197 2.418-0.075 4.843 0.61 7.225 0.54 1.878 1.535 3.565 3.277 4.66 0.737 0.462 1.71 0.688 2.217 0.922 0.143 0.067 0.178 0.108 0.185 0.117 0.008 0.008 0.027 0.025 0.025 0.175-0.018 1.53 0 4.49 0 4.49l0.002 0.637h1.143l0.185-0.18c0 0 2.902-2.793 3.953-3.942 0.19-0.205 0.287-0.32 0.307-0.332 0.018-0.012-0.012-0.020 0.182-0.025 1.377-0.027 2.752-0.080 4.127-0.155 1.813-0.1 3.66-0.273 5.438-1.015 1.547-0.648 2.84-1.705 3.622-3.29 0.8-1.625 1.227-3.348 1.387-5.13 0.265-2.967 0.172-5.94-0.648-8.87-0.483-1.718-1.453-3.17-2.94-4.195-1.78-1.225-3.788-1.685-5.753-1.978-1.148-0.17-2.303-0.282-3.462-0.317-0.29-0.008-0.58-0.012-0.873-0.010zM16.47 3.21c1.102 0.030 2.205 0.138 3.31 0.303 1.895 0.282 3.683 0.713 5.215 1.768 1.242 0.855 2.017 2.010 2.433 3.482 0.765 2.74 0.863 5.547 0.605 8.415-0.148 1.652-0.54 3.21-1.262 4.677-0.637 1.295-1.633 2.117-2.968 2.675-1.55 0.648-3.235 0.82-5.010 0.918-1.36 0.075-2.723 0.125-4.085 0.152-0.342 0.008-0.678 0.098-0.915 0.273s-0.345 0.337-0.492 0.497c-0.75 0.82-2.245 2.262-3.060 3.053-0.005-0.955-0.012-2.11 0-3.175 0.005-0.328-0.070-0.663-0.258-0.927s-0.445-0.425-0.693-0.54c-0.723-0.335-1.668-0.59-2.078-0.848-1.433-0.9-2.245-2.25-2.728-3.93-0.632-2.198-0.752-4.46-0.565-6.762 0.1-1.195 0.273-2.393 0.49-3.58 0.455-2.502 1.885-4.077 4.16-5.122 1.438-0.66 2.973-0.985 4.59-1.183 1.103-0.135 2.205-0.178 3.31-0.145zM16.74 6.4c-0.527 0-1.040 0.060-1.537 0.17-0.342 0.080-0.56 0.423-0.482 0.768s0.422 0.56 0.768 0.482c0.402-0.093 0.822-0.14 1.252-0.14 3.125 0 5.645 2.52 5.645 5.643 0 0.432-0.047 0.852-0.14 1.258-0.078 0.342 0.137 0.688 0.483 0.765s0.688-0.14 0.765-0.485c0.113-0.495 0.172-1.008 0.172-1.537 0-3.815-3.108-6.923-6.925-6.923zM10.355 7.683c-0.105-0.005-0.213 0.003-0.325 0.027-1.162 0.258-2.317 1.1-2.35 2.605 0.032 0.21 0.030 0.435 0.107 0.625 0.38 0.93 0.71 1.89 1.185 2.77 2.313 4.275 5.81 7.248 10.268 9.135 0.532 0.225 1.082 0.273 1.62 0.047 0.74-0.308 1.367-0.782 1.785-1.465 0.573-0.938 0.58-1.587-0.363-2.28-0.617-0.455-1.225-0.922-1.85-1.367-0.953-0.675-1.982-0.793-2.692 0.392-0.038 0.060-0.093 0.11-0.14 0.16-0.365 0.387-0.813 0.483-1.288 0.288-1.803-0.742-3.195-1.94-4.035-3.723-0.495-1.047-0.36-1.572 0.565-2.27 0.092-0.068 0.18-0.14 0.265-0.217 0.405-0.37 0.512-0.81 0.273-1.307-0.543-1.135-1.265-2.148-2.18-3.020-0.248-0.235-0.53-0.383-0.845-0.4zM16.73 8.32c-0.282 0-0.563 0.023-0.838 0.070-0.232 0.030-0.43 0.185-0.515 0.402-0.085 0.22-0.043 0.467 0.107 0.648 0.152 0.178 0.393 0.26 0.622 0.21 0.2-0.033 0.41-0.050 0.622-0.050 2.080 0 3.75 1.67 3.75 3.75 0 0.213-0.017 0.422-0.050 0.623-0.050 0.23 0.032 0.47 0.21 0.623 0.18 0.15 0.427 0.193 0.648 0.107 0.218-0.085 0.372-0.283 0.402-0.515 0.047-0.275 0.070-0.555 0.070-0.838 0-2.77-2.26-5.030-5.030-5.030zM16.64 10.24c-0.23-0.002-0.445 0.117-0.563 0.318-0.115 0.2-0.115 0.445 0 0.645 0.117 0.2 0.332 0.32 0.563 0.318 1.067 0 1.92 0.853 1.92 1.92-0.003 0.23 0.117 0.445 0.317 0.563 0.2 0.115 0.445 0.115 0.645 0 0.2-0.117 0.32-0.332 0.317-0.563 0-1.76-1.44-3.2-3.2-3.2z"></path>
</symbol>
<symbol id="icon-location" viewBox="0 0 32 32">
<path d="M16 0c-5.523 0-10 4.477-10 10 0 10 10 22 10 22s10-12 10-22c0-5.523-4.477-10-10-10zM16 16c-3.314 0-6-2.686-6-6s2.686-6 6-6 6 2.686 6 6-2.686 6-6 6z"></path>
</symbol>
<symbol id="icon-facebook" viewBox="0 0 32 32">
<path d="M19 6h5v-6h-5c-3.86 0-7 3.14-7 7v3h-4v6h4v16h6v-16h5l1-6h-6v-3c0-0.542 0.458-1 1-1z"></path>
</symbol>
<symbol id="icon-instagram" viewBox="0 0 32 32">
<path d="M16 2.881c4.275 0 4.781 0.019 6.462 0.094 1.563 0.069 2.406 0.331 2.969 0.55 0.744 0.288 1.281 0.638 1.837 1.194 0.563 0.563 0.906 1.094 1.2 1.838 0.219 0.563 0.481 1.412 0.55 2.969 0.075 1.688 0.094 2.194 0.094 6.463s-0.019 4.781-0.094 6.463c-0.069 1.563-0.331 2.406-0.55 2.969-0.288 0.744-0.637 1.281-1.194 1.837-0.563 0.563-1.094 0.906-1.837 1.2-0.563 0.219-1.413 0.481-2.969 0.55-1.688 0.075-2.194 0.094-6.463 0.094s-4.781-0.019-6.463-0.094c-1.563-0.069-2.406-0.331-2.969-0.55-0.744-0.288-1.281-0.637-1.838-1.194-0.563-0.563-0.906-1.094-1.2-1.837-0.219-0.563-0.481-1.413-0.55-2.969-0.075-1.688-0.094-2.194-0.094-6.463s0.019-4.781 0.094-6.463c0.069-1.563 0.331-2.406 0.55-2.969 0.288-0.744 0.638-1.281 1.194-1.838 0.563-0.563 1.094-0.906 1.838-1.2 0.563-0.219 1.412-0.481 2.969-0.55 1.681-0.075 2.188-0.094 6.463-0.094zM16 0c-4.344 0-4.887 0.019-6.594 0.094-1.7 0.075-2.869 0.35-3.881 0.744-1.056 0.412-1.95 0.956-2.837 1.85-0.894 0.888-1.438 1.781-1.85 2.831-0.394 1.019-0.669 2.181-0.744 3.881-0.075 1.713-0.094 2.256-0.094 6.6s0.019 4.887 0.094 6.594c0.075 1.7 0.35 2.869 0.744 3.881 0.413 1.056 0.956 1.95 1.85 2.837 0.887 0.887 1.781 1.438 2.831 1.844 1.019 0.394 2.181 0.669 3.881 0.744 1.706 0.075 2.25 0.094 6.594 0.094s4.888-0.019 6.594-0.094c1.7-0.075 2.869-0.35 3.881-0.744 1.050-0.406 1.944-0.956 2.831-1.844s1.438-1.781 1.844-2.831c0.394-1.019 0.669-2.181 0.744-3.881 0.075-1.706 0.094-2.25 0.094-6.594s-0.019-4.887-0.094-6.594c-0.075-1.7-0.35-2.869-0.744-3.881-0.394-1.063-0.938-1.956-1.831-2.844-0.887-0.887-1.781-1.438-2.831-1.844-1.019-0.394-2.181-0.669-3.881-0.744-1.712-0.081-2.256-0.1-6.6-0.1v0z"></path>
<path d="M16 7.781c-4.537 0-8.219 3.681-8.219 8.219s3.681 8.219 8.219 8.219 8.219-3.681 8.219-8.219c0-4.537-3.681-8.219-8.219-8.219zM16 21.331c-2.944 0-5.331-2.387-5.331-5.331s2.387-5.331 5.331-5.331c2.944 0 5.331 2.387 5.331 5.331s-2.387 5.331-5.331 5.331z"></path>
<path d="M26.462 7.456c0 1.060-0.859 1.919-1.919 1.919s-1.919-0.859-1.919-1.919c0-1.060 0.859-1.919 1.919-1.919s1.919 0.859 1.919 1.919z"></path>
</symbol>
<symbol id="icon-whatsapp" viewBox="0 0 32 32">
<path d="M27.281 4.65c-2.994-3-6.975-4.65-11.219-4.65-8.738 0-15.85 7.112-15.85 15.856 0 2.794 0.731 5.525 2.119 7.925l-2.25 8.219 8.406-2.206c2.319 1.262 4.925 1.931 7.575 1.931h0.006c0 0 0 0 0 0 8.738 0 15.856-7.113 15.856-15.856 0-4.238-1.65-8.219-4.644-11.219zM16.069 29.050v0c-2.369 0-4.688-0.637-6.713-1.837l-0.481-0.288-4.987 1.306 1.331-4.863-0.313-0.5c-1.325-2.094-2.019-4.519-2.019-7.012 0-7.269 5.912-13.181 13.188-13.181 3.519 0 6.831 1.375 9.319 3.862 2.488 2.494 3.856 5.8 3.856 9.325-0.006 7.275-5.919 13.188-13.181 13.188zM23.294 19.175c-0.394-0.2-2.344-1.156-2.706-1.288s-0.625-0.2-0.894 0.2c-0.262 0.394-1.025 1.288-1.256 1.556-0.231 0.262-0.462 0.3-0.856 0.1s-1.675-0.619-3.188-1.969c-1.175-1.050-1.975-2.35-2.206-2.744s-0.025-0.613 0.175-0.806c0.181-0.175 0.394-0.463 0.594-0.694s0.262-0.394 0.394-0.662c0.131-0.262 0.069-0.494-0.031-0.694s-0.894-2.15-1.219-2.944c-0.319-0.775-0.65-0.669-0.894-0.681-0.231-0.012-0.494-0.012-0.756-0.012s-0.694 0.1-1.056 0.494c-0.363 0.394-1.387 1.356-1.387 3.306s1.419 3.831 1.619 4.1c0.2 0.262 2.794 4.269 6.769 5.981 0.944 0.406 1.681 0.65 2.256 0.837 0.95 0.3 1.813 0.256 2.494 0.156 0.762-0.113 2.344-0.956 2.675-1.881s0.331-1.719 0.231-1.881c-0.094-0.175-0.356-0.275-0.756-0.475z"></path>
</symbol>
<symbol id="icon-telegram" viewBox="0 0 32 32">
<path d="M16 0c-8.838 0-16 7.162-16 16s7.162 16 16 16 16-7.163 16-16-7.163-16-16-16zM23.863 10.969l-2.625 12.369c-0.181 0.881-0.712 1.087-1.45 0.681l-4-2.956-1.919 1.869c-0.225 0.219-0.4 0.4-0.8 0.4-0.519 0-0.431-0.194-0.606-0.688l-1.363-4.475-3.956-1.231c-0.856-0.262-0.862-0.85 0.194-1.269l15.412-5.95c0.7-0.319 1.381 0.169 1.113 1.25z"></path>
</symbol>
</defs>
</svg>
