<svg aria-hidden="true" style="position: absolute; width: 48px; height: 48px; overflow: hidden;" version="1.1" xmlns="http://www.w3.org/2000/svg" xmlns:xlink="http://www.w3.org/1999/xlink">
<defs>
<symbol id="bar" viewBox="0 0 24 28">
<path d="M24 21v2c0 0.547-0.453 1-1 1h-22c-0.547 0-1-0.453-1-1v-2c0-0.547 0.453-1 1-1h22c0.547 0 1 0.453 1 1zM24 13v2c0 0.547-0.453 1-1 1h-22c-0.547 0-1-0.453-1-1v-2c0-0.547 0.453-1 1-1h22c0.547 0 1 0.453 1 1zM24 5v2c0 0.547-0.453 1-1 1h-22c-0.547 0-1-0.453-1-1v-2c0-0.547 0.453-1 1-1h22c0.547 0 1 0.453 1 1z"></path>
</symbol>
<symbol id="icon-viber" viewBox="0 0 32 32">
<path d="M28.66 8.42c-0.5-1.785-1.49-3.195-2.94-4.192-1.83-1.263-3.935-1.708-5.753-1.98-2.515-0.375-4.793-0.427-6.965-0.163-2.035 0.25-3.567 0.647-4.965 1.29-2.74 1.26-4.385 3.297-4.888 6.055-0.245 1.34-0.41 2.55-0.505 3.705-0.22 2.67-0.020 5.033 0.61 7.223 0.615 2.135 1.687 3.66 3.28 4.663 0.405 0.255 0.925 0.44 1.428 0.617 0.285 0.1 0.563 0.198 0.79 0.305 0.21 0.098 0.21 0.115 0.207 0.29-0.018 1.517 0 4.492 0 4.492l0.005 0.635h1.14l0.185-0.18c0.123-0.115 2.947-2.845 3.955-3.945l0.137-0.152c0.172-0.2 0.172-0.2 0.35-0.203 1.36-0.027 2.75-0.080 4.13-0.155 1.672-0.090 3.61-0.253 5.435-1.012 1.67-0.698 2.89-1.805 3.622-3.29 0.765-1.55 1.218-3.227 1.387-5.13 0.3-3.345 0.087-6.247-0.648-8.873zM22.645 21.427c-0.42 0.683-1.045 1.157-1.782 1.465-0.54 0.225-1.090 0.177-1.622-0.047-4.457-1.887-7.955-4.86-10.265-9.135-0.477-0.88-0.807-1.84-1.188-2.77-0.077-0.19-0.072-0.415-0.107-0.625 0.032-1.502 1.185-2.35 2.35-2.605 0.445-0.1 0.84 0.058 1.17 0.375 0.915 0.87 1.637 1.883 2.182 3.018 0.238 0.498 0.13 0.938-0.275 1.308-0.085 0.078-0.172 0.148-0.265 0.217-0.925 0.695-1.060 1.223-0.568 2.27 0.84 1.783 2.235 2.98 4.038 3.722 0.475 0.195 0.922 0.098 1.285-0.288 0.050-0.050 0.105-0.1 0.14-0.16 0.71-1.185 1.742-1.067 2.695-0.392 0.625 0.445 1.232 0.915 1.85 1.367 0.942 0.692 0.935 1.343 0.363 2.28zM16.733 9.6c-0.21 0-0.42 0.018-0.628 0.053-0.35 0.057-0.678-0.178-0.738-0.527-0.057-0.348 0.178-0.678 0.527-0.735 0.275-0.047 0.558-0.070 0.837-0.070 2.773 0 5.027 2.255 5.027 5.027 0 0.283-0.023 0.565-0.070 0.838-0.052 0.313-0.323 0.535-0.63 0.535-0.035 0-0.070-0.002-0.108-0.010-0.348-0.057-0.582-0.387-0.525-0.735 0.035-0.205 0.052-0.415 0.052-0.627 0-2.065-1.683-3.748-3.747-3.748zM19.84 13.44c0 0.352-0.288 0.64-0.64 0.64s-0.64-0.287-0.64-0.64c0-1.057-0.863-1.92-1.92-1.92-0.352 0-0.64-0.287-0.64-0.64s0.288-0.64 0.64-0.64c1.765 0 3.2 1.435 3.2 3.2zM23.495 14.863c-0.067 0.297-0.332 0.498-0.625 0.498-0.047 0-0.095-0.005-0.142-0.015-0.345-0.080-0.56-0.422-0.483-0.768 0.093-0.408 0.14-0.83 0.14-1.255 0-3.11-2.532-5.643-5.643-5.643-0.425 0-0.848 0.048-1.255 0.14-0.345 0.080-0.688-0.138-0.765-0.482-0.080-0.345 0.137-0.688 0.482-0.765 0.5-0.115 1.018-0.173 1.537-0.173 3.817 0 6.922 3.105 6.922 6.923 0 0.52-0.058 1.037-0.17 1.54z"></path>
</symbol>
<symbol id="icon-telegram" viewBox="0 0 32 32">
<path d="M16 1.28c8.13 0 14.72 6.59 14.72 14.72s-6.59 14.72-14.72 14.72-14.72-6.59-14.72-14.72 6.59-14.72 14.72-14.72zM21.078 22c0.271-0.831 1.539-9.11 1.696-10.741 0.047-0.494-0.109-0.822-0.415-0.969-0.37-0.178-0.918-0.089-1.553 0.14-0.872 0.314-12.015 5.046-12.659 5.32-0.611 0.259-1.188 0.542-1.188 0.952 0 0.288 0.171 0.45 0.642 0.618 0.49 0.175 1.725 0.549 2.454 0.75 0.702 0.194 1.501 0.026 1.949-0.253 0.475-0.295 5.955-3.962 6.349-4.284s0.707 0.090 0.385 0.412c-0.321 0.321-4.083 3.972-4.579 4.478-0.602 0.614-0.175 1.25 0.229 1.505 0.461 0.291 3.78 2.516 4.28 2.874s1.007 0.519 1.471 0.519c0.464 0 0.708-0.611 0.94-1.321z"></path>
</symbol>
<symbol id="icon-facebook-messenger" viewBox="0 0 32 32">
<path d="M16 1.28c-8.127 0-14.72 6.145-14.72 13.76 0 4.032 1.855 7.808 5.12 10.432v5.633l5.505-2.88c1.342 0.383 2.688 0.51 4.095 0.51 8.127 0 14.72-6.142 14.72-13.76 0-7.55-6.593-13.695-14.72-13.695zM17.473 19.585l-3.713-3.97-6.912 3.905 7.68-8.127 3.777 3.775 6.72-3.775z"></path>
</symbol>
<symbol id="icon-instagram" viewBox="0 0 32 32">
<path d="M10.24 1.92c-4.589 0-8.32 3.731-8.32 8.32v11.52c0 4.589 3.731 8.32 8.32 8.32h11.52c4.589 0 8.32-3.731 8.32-8.32v-11.52c0-4.589-3.731-8.32-8.32-8.32h-11.52zM23.68 7.040c0.704 0 1.28 0.576 1.28 1.28s-0.576 1.28-1.28 1.28c-0.704 0-1.28-0.576-1.28-1.28s0.576-1.28 1.28-1.28zM16 8.96c3.885 0 7.040 3.155 7.040 7.040s-3.155 7.040-7.040 7.040c-3.885 0-7.040-3.155-7.040-7.040s3.155-7.040 7.040-7.040zM16 10.24c-3.174 0-5.76 2.586-5.76 5.76s2.586 5.76 5.76 5.76c3.174 0 5.76-2.586 5.76-5.76s-2.586-5.76-5.76-5.76z"></path>
</symbol>
<symbol id="icon-facebook" viewBox="0 0 32 32">
<path d="M16 2.667c-7.364 0-13.333 5.969-13.333 13.333 0 6.684 4.924 12.204 11.34 13.168v-9.635h-3.299v-3.505h3.299v-2.332c0-3.861 1.881-5.556 5.091-5.556 1.537 0 2.349 0.113 2.735 0.165v3.059h-2.189c-1.363 0-1.839 1.292-1.839 2.748v1.916h3.993l-0.541 3.505h-3.451v9.663c6.508-0.881 11.528-6.447 11.528-13.196 0-7.364-5.969-13.333-13.333-13.333z"></path>
</symbol>
<symbol id="icon-phone" viewBox="0 0 22 28">
<path d="M22 19.375c0 0.562-0.25 1.656-0.484 2.172-0.328 0.766-1.203 1.266-1.906 1.656-0.922 0.5-1.859 0.797-2.906 0.797-1.453 0-2.766-0.594-4.094-1.078-0.953-0.344-1.875-0.766-2.734-1.297-2.656-1.641-5.859-4.844-7.5-7.5-0.531-0.859-0.953-1.781-1.297-2.734-0.484-1.328-1.078-2.641-1.078-4.094 0-1.047 0.297-1.984 0.797-2.906 0.391-0.703 0.891-1.578 1.656-1.906 0.516-0.234 1.609-0.484 2.172-0.484 0.109 0 0.219 0 0.328 0.047 0.328 0.109 0.672 0.875 0.828 1.188 0.5 0.891 0.984 1.797 1.5 2.672 0.25 0.406 0.719 0.906 0.719 1.391 0 0.953-2.828 2.344-2.828 3.187 0 0.422 0.391 0.969 0.609 1.344 1.578 2.844 3.547 4.813 6.391 6.391 0.375 0.219 0.922 0.609 1.344 0.609 0.844 0 2.234-2.828 3.187-2.828 0.484 0 0.984 0.469 1.391 0.719 0.875 0.516 1.781 1 2.672 1.5 0.313 0.156 1.078 0.5 1.188 0.828 0.047 0.109 0.047 0.219 0.047 0.328z"></path>
</symbol>
<symbol id="icon-location" viewBox="0 0 32 32">
<path d="M16 0c-5.523 0-10 4.477-10 10 0 10 10 22 10 22s10-12 10-22c0-5.523-4.477-10-10-10zM16 16c-3.314 0-6-2.686-6-6s2.686-6 6-6 6 2.686 6 6-2.686 6-6 6z"></path>
</symbol>
<symbol id="icon-close" viewBox="0 0 32 32">
<path d="M2.06548 1.00531C1.77259 0.71242 1.29772 0.712422 1.00482 1.00532C0.711932 1.29821 0.711934 1.77309 1.00483 2.06598L9.98814 11.0492L1.10322 19.9341C0.810321 20.2269 0.810319 20.7018 1.10321 20.9947C1.3961 21.2876 1.87098 21.2876 2.16387 20.9947L11.0488 12.1099L19.8352 20.8962C20.1281 21.189 20.6029 21.189 20.8958 20.8961C21.1887 20.6033 21.1887 20.1284 20.8958 19.8355L12.1095 11.0492L20.9942 2.16454C21.2871 1.87165 21.2871 1.39678 20.9942 1.10388C20.7013 0.81099 20.2265 0.810987 19.9336 1.10388L11.0488 9.98855L2.06548 1.00531Z"/>
</symbol>
<symbol id="icon-clock" viewBox="0 0 32 32">
<path d="M20.586 23.414l-6.586-6.586v-8.828h4v7.172l5.414 5.414zM16 0c-8.837 0-16 7.163-16 16s7.163 16 16 16 16-7.163 16-16-7.163-16-16-16zM16 28c-6.627 0-12-5.373-12-12s5.373-12 12-12c6.627 0 12 5.373 12 12s-5.373 12-12 12z"></path>
</symbol>
<symbol id="icon-envelope" viewBox="0 0 32 32">
<path d="M28 11.094v12.406c0 1.375-1.125 2.5-2.5 2.5h-23c-1.375 0-2.5-1.125-2.5-2.5v-12.406c0.469 0.516 1 0.969 1.578 1.359 2.594 1.766 5.219 3.531 7.766 5.391 1.313 0.969 2.938 2.156 4.641 2.156h0.031c1.703 0 3.328-1.188 4.641-2.156 2.547-1.844 5.172-3.625 7.781-5.391 0.562-0.391 1.094-0.844 1.563-1.359zM28 6.5c0 1.75-1.297 3.328-2.672 4.281-2.438 1.687-4.891 3.375-7.313 5.078-1.016 0.703-2.734 2.141-4 2.141h-0.031c-1.266 0-2.984-1.437-4-2.141-2.422-1.703-4.875-3.391-7.297-5.078-1.109-0.75-2.688-2.516-2.688-3.938 0-1.531 0.828-2.844 2.5-2.844h23c1.359 0 2.5 1.125 2.5 2.5z"></path>
</symbol>
<path
        id="Union_2"
        d="M2.06548 1.00531C1.77259 0.71242 1.29772 0.712422 1.00482 1.00532C0.711932 1.29821 0.711934 1.77309 1.00483 2.06598L9.98814 11.0492L1.10322 19.9341C0.810321 20.2269 0.810319 20.7018 1.10321 20.9947C1.3961 21.2876 1.87098 21.2876 2.16387 20.9947L11.0488 12.1099L19.8352 20.8962C20.1281 21.189 20.6029 21.189 20.8958 20.8961C21.1887 20.6033 21.1887 20.1284 20.8958 19.8355L12.1095 11.0492L20.9942 2.16454C21.2871 1.87165 21.2871 1.39678 20.9942 1.10388C20.7013 0.81099 20.2265 0.810987 19.9336 1.10388L11.0488 9.98855L2.06548 1.00531Z"
        fill="#0A0A0A"
      />
<!-- <symbol id="map-marker" viewBox="0 0 16 28">
<path d="M12 10c0-2.203-1.797-4-4-4s-4 1.797-4 4 1.797 4 4 4 4-1.797 4-4zM16 10c0 0.953-0.109 1.937-0.516 2.797l-5.688 12.094c-0.328 0.688-1.047 1.109-1.797 1.109s-1.469-0.422-1.781-1.109l-5.703-12.094c-0.406-0.859-0.516-1.844-0.516-2.797 0-4.422 3.578-8 8-8s8 3.578 8 8z"></path>
</symbol>

<symbol id="icon-app" viewBox="0 0 32 32">
<path fill="#29b6f6" style="fill: var(--color30, #29b6f6)" d="M16 2.667c-7.364 0-13.333 5.97-13.333 13.333s5.97 13.333 13.333 13.333v0c7.364 0 13.333-5.97 13.333-13.333s-5.97-13.333-13.333-13.333v0z"></path>
<path fill="#fff" style="fill: var(--color2, #fff)" d="M22.633 10l-2.497 12.751c0 0-0.107 0.583-0.83 0.583-0.384 0-0.582-0.183-0.582-0.183l-5.409-4.489-2.647-1.334-3.397-0.903c0 0-0.605-0.175-0.605-0.675 0-0.417 0.622-0.615 0.622-0.615l14.211-5.645c-0.001-0.001 0.434-0.157 0.751-0.156 0.195 0 0.417 0.083 0.417 0.333 0 0.167-0.033 0.333-0.033 0.333z"></path>
<path fill="#b0bec5" style="fill: var(--color31, #b0bec5)" d="M15.333 20.337l-2.284 2.249c0 0-0.099 0.077-0.232 0.080-0.046 0.001-0.095-0.006-0.146-0.029l0.643-3.977 2.019 1.676z"></path>
<path fill="#cfd8dc" style="fill: var(--color32, #cfd8dc)" d="M19.931 12.131c-0.113-0.147-0.321-0.173-0.467-0.062l-8.797 5.265c0 0 1.404 3.928 1.618 4.608s0.387 0.697 0.387 0.697l0.643-3.977 6.555-6.064c0.147-0.111 0.174-0.32 0.063-0.467z"></path>
</symbol>
<symbol id="phone" viewBox="0 0 22 28">
<path d="M22 19.375c0 0.562-0.25 1.656-0.484 2.172-0.328 0.766-1.203 1.266-1.906 1.656-0.922 0.5-1.859 0.797-2.906 0.797-1.453 0-2.766-0.594-4.094-1.078-0.953-0.344-1.875-0.766-2.734-1.297-2.656-1.641-5.859-4.844-7.5-7.5-0.531-0.859-0.953-1.781-1.297-2.734-0.484-1.328-1.078-2.641-1.078-4.094 0-1.047 0.297-1.984 0.797-2.906 0.391-0.703 0.891-1.578 1.656-1.906 0.516-0.234 1.609-0.484 2.172-0.484 0.109 0 0.219 0 0.328 0.047 0.328 0.109 0.672 0.875 0.828 1.188 0.5 0.891 0.984 1.797 1.5 2.672 0.25 0.406 0.719 0.906 0.719 1.391 0 0.953-2.828 2.344-2.828 3.187 0 0.422 0.391 0.969 0.609 1.344 1.578 2.844 3.547 4.813 6.391 6.391 0.375 0.219 0.922 0.609 1.344 0.609 0.844 0 2.234-2.828 3.187-2.828 0.484 0 0.984 0.469 1.391 0.719 0.875 0.516 1.781 1 2.672 1.5 0.313 0.156 1.078 0.5 1.188 0.828 0.047 0.109 0.047 0.219 0.047 0.328z"></path>
</symbol>
<symbol id="facebook" viewBox="0 0 16 28">
<path d="M14.984 0.187v4.125h-2.453c-1.922 0-2.281 0.922-2.281 2.25v2.953h4.578l-0.609 4.625h-3.969v11.859h-4.781v-11.859h-3.984v-4.625h3.984v-3.406c0-3.953 2.422-6.109 5.953-6.109 1.687 0 3.141 0.125 3.563 0.187z"></path>
</symbol>
<symbol id="envelope" viewBox="0 0 28 28">
<path d="M28 11.094v12.406c0 1.375-1.125 2.5-2.5 2.5h-23c-1.375 0-2.5-1.125-2.5-2.5v-12.406c0.469 0.516 1 0.969 1.578 1.359 2.594 1.766 5.219 3.531 7.766 5.391 1.313 0.969 2.938 2.156 4.641 2.156h0.031c1.703 0 3.328-1.188 4.641-2.156 2.547-1.844 5.172-3.625 7.781-5.391 0.562-0.391 1.094-0.844 1.563-1.359zM28 6.5c0 1.75-1.297 3.328-2.672 4.281-2.438 1.687-4.891 3.375-7.313 5.078-1.016 0.703-2.734 2.141-4 2.141h-0.031c-1.266 0-2.984-1.437-4-2.141-2.422-1.703-4.875-3.391-7.297-5.078-1.109-0.75-2.688-2.516-2.688-3.938 0-1.531 0.828-2.844 2.5-2.844h23c1.359 0 2.5 1.125 2.5 2.5z"></path>
</symbol>
<symbol id="instagram" viewBox="0 0 24 28">
<path d="M16 14c0-2.203-1.797-4-4-4s-4 1.797-4 4 1.797 4 4 4 4-1.797 4-4zM18.156 14c0 3.406-2.75 6.156-6.156 6.156s-6.156-2.75-6.156-6.156 2.75-6.156 6.156-6.156 6.156 2.75 6.156 6.156zM19.844 7.594c0 0.797-0.641 1.437-1.437 1.437s-1.437-0.641-1.437-1.437 0.641-1.437 1.437-1.437 1.437 0.641 1.437 1.437zM12 4.156c-1.75 0-5.5-0.141-7.078 0.484-0.547 0.219-0.953 0.484-1.375 0.906s-0.688 0.828-0.906 1.375c-0.625 1.578-0.484 5.328-0.484 7.078s-0.141 5.5 0.484 7.078c0.219 0.547 0.484 0.953 0.906 1.375s0.828 0.688 1.375 0.906c1.578 0.625 5.328 0.484 7.078 0.484s5.5 0.141 7.078-0.484c0.547-0.219 0.953-0.484 1.375-0.906s0.688-0.828 0.906-1.375c0.625-1.578 0.484-5.328 0.484-7.078s0.141-5.5-0.484-7.078c-0.219-0.547-0.484-0.953-0.906-1.375s-0.828-0.688-1.375-0.906c-1.578-0.625-5.328-0.484-7.078-0.484zM24 14c0 1.656 0.016 3.297-0.078 4.953-0.094 1.922-0.531 3.625-1.937 5.031s-3.109 1.844-5.031 1.937c-1.656 0.094-3.297 0.078-4.953 0.078s-3.297 0.016-4.953-0.078c-1.922-0.094-3.625-0.531-5.031-1.937s-1.844-3.109-1.937-5.031c-0.094-1.656-0.078-3.297-0.078-4.953s-0.016-3.297 0.078-4.953c0.094-1.922 0.531-3.625 1.937-5.031s3.109-1.844 5.031-1.937c1.656-0.094 3.297-0.078 4.953-0.078s3.297-0.016 4.953 0.078c1.922 0.094 3.625 0.531 5.031 1.937s1.844 3.109 1.937 5.031c0.094 1.656 0.078 3.297 0.078 4.953z"></path>
</symbol>
<symbol id="close" viewBox="0 0 20 20">
<path d="M10 8.586l-7.071-7.071-1.414 1.414 7.071 7.071-7.071 7.071 1.414 1.414 7.071-7.071 7.071 7.071 1.414-1.414-7.071-7.071 7.071-7.071-1.414-1.414-7.071 7.071z"></path>
</symbol>
<symbol id="icon-time" viewBox="0 0 20 20">
<path d="M10 20c-5.523 0-10-4.477-10-10s4.477-10 10-10v0c5.523 0 10 4.477 10 10s-4.477 10-10 10v0zM10 18c4.418 0 8-3.582 8-8s-3.582-8-8-8v0c-4.418 0-8 3.582-8 8s3.582 8 8 8v0zM9 10.41v-6.41h2v5.59l3.95 3.95-1.41 1.41-4.54-4.54z"></path>
</symbol> -->
<!-- <symbol id="icon-paper-plane" viewBox="0 0 28 28">
<path d="M27.563 0.172c0.328 0.234 0.484 0.609 0.422 1l-4 24c-0.047 0.297-0.234 0.547-0.5 0.703-0.141 0.078-0.313 0.125-0.484 0.125-0.125 0-0.25-0.031-0.375-0.078l-7.078-2.891-3.781 4.609c-0.187 0.234-0.469 0.359-0.766 0.359-0.109 0-0.234-0.016-0.344-0.063-0.391-0.141-0.656-0.516-0.656-0.938v-5.453l13.5-16.547-16.703 14.453-6.172-2.531c-0.359-0.141-0.594-0.469-0.625-0.859-0.016-0.375 0.172-0.734 0.5-0.922l26-15c0.156-0.094 0.328-0.141 0.5-0.141 0.203 0 0.406 0.063 0.562 0.172z"></path>
</symbol>
<symbol id="icon-phone" viewBox="0 0 32 32">
<path d="M22 20c-2 2-2 4-4 4s-4-2-6-4-4-4-4-6 2-2 4-4-4-8-6-8-6 6-6 6c0 4 4.109 12.109 8 16s12 8 16 8c0 0 6-4 6-6s-6-8-8-6z"></path>
</symbol>
<symbol id="icon-location" viewBox="0 0 32 32">
<path d="M16 0c-5.523 0-10 4.477-10 10 0 10 10 22 10 22s10-12 10-22c0-5.523-4.477-10-10-10zM16 16c-3.314 0-6-2.686-6-6s2.686-6 6-6 6 2.686 6 6-2.686 6-6 6z"></path>
</symbol>
<symbol id="icon-facebook" viewBox="0 0 32 32">
<path d="M19 6h5v-6h-5c-3.86 0-7 3.14-7 7v3h-4v6h4v16h6v-16h5l1-6h-6v-3c0-0.542 0.458-1 1-1z"></path>
</symbol>
<symbol id="icon-instagram" viewBox="0 0 32 32">
<path d="M16 2.881c4.275 0 4.781 0.019 6.462 0.094 1.563 0.069 2.406 0.331 2.969 0.55 0.744 0.288 1.281 0.638 1.837 1.194 0.563 0.563 0.906 1.094 1.2 1.838 0.219 0.563 0.481 1.412 0.55 2.969 0.075 1.688 0.094 2.194 0.094 6.463s-0.019 4.781-0.094 6.463c-0.069 1.563-0.331 2.406-0.55 2.969-0.288 0.744-0.637 1.281-1.194 1.837-0.563 0.563-1.094 0.906-1.837 1.2-0.563 0.219-1.413 0.481-2.969 0.55-1.688 0.075-2.194 0.094-6.463 0.094s-4.781-0.019-6.463-0.094c-1.563-0.069-2.406-0.331-2.969-0.55-0.744-0.288-1.281-0.637-1.838-1.194-0.563-0.563-0.906-1.094-1.2-1.837-0.219-0.563-0.481-1.413-0.55-2.969-0.075-1.688-0.094-2.194-0.094-6.463s0.019-4.781 0.094-6.463c0.069-1.563 0.331-2.406 0.55-2.969 0.288-0.744 0.638-1.281 1.194-1.838 0.563-0.563 1.094-0.906 1.838-1.2 0.563-0.219 1.412-0.481 2.969-0.55 1.681-0.075 2.188-0.094 6.463-0.094zM16 0c-4.344 0-4.887 0.019-6.594 0.094-1.7 0.075-2.869 0.35-3.881 0.744-1.056 0.412-1.95 0.956-2.837 1.85-0.894 0.888-1.438 1.781-1.85 2.831-0.394 1.019-0.669 2.181-0.744 3.881-0.075 1.713-0.094 2.256-0.094 6.6s0.019 4.887 0.094 6.594c0.075 1.7 0.35 2.869 0.744 3.881 0.413 1.056 0.956 1.95 1.85 2.837 0.887 0.887 1.781 1.438 2.831 1.844 1.019 0.394 2.181 0.669 3.881 0.744 1.706 0.075 2.25 0.094 6.594 0.094s4.888-0.019 6.594-0.094c1.7-0.075 2.869-0.35 3.881-0.744 1.050-0.406 1.944-0.956 2.831-1.844s1.438-1.781 1.844-2.831c0.394-1.019 0.669-2.181 0.744-3.881 0.075-1.706 0.094-2.25 0.094-6.594s-0.019-4.887-0.094-6.594c-0.075-1.7-0.35-2.869-0.744-3.881-0.394-1.063-0.938-1.956-1.831-2.844-0.887-0.887-1.781-1.438-2.831-1.844-1.019-0.394-2.181-0.669-3.881-0.744-1.712-0.081-2.256-0.1-6.6-0.1v0z"></path>
<path d="M16 7.781c-4.537 0-8.219 3.681-8.219 8.219s3.681 8.219 8.219 8.219 8.219-3.681 8.219-8.219c0-4.537-3.681-8.219-8.219-8.219zM16 21.331c-2.944 0-5.331-2.387-5.331-5.331s2.387-5.331 5.331-5.331c2.944 0 5.331 2.387 5.331 5.331s-2.387 5.331-5.331 5.331z"></path>
<path d="M26.462 7.456c0 1.060-0.859 1.919-1.919 1.919s-1.919-0.859-1.919-1.919c0-1.060 0.859-1.919 1.919-1.919s1.919 0.859 1.919 1.919z"></path>
</symbol> -->
<!-- <symbol id="icon-whatsapp" viewBox="0 0 32 32">
<path d="M27.281 4.65c-2.994-3-6.975-4.65-11.219-4.65-8.738 0-15.85 7.112-15.85 15.856 0 2.794 0.731 5.525 2.119 7.925l-2.25 8.219 8.406-2.206c2.319 1.262 4.925 1.931 7.575 1.931h0.006c0 0 0 0 0 0 8.738 0 15.856-7.113 15.856-15.856 0-4.238-1.65-8.219-4.644-11.219zM16.069 29.050v0c-2.369 0-4.688-0.637-6.713-1.837l-0.481-0.288-4.987 1.306 1.331-4.863-0.313-0.5c-1.325-2.094-2.019-4.519-2.019-7.012 0-7.269 5.912-13.181 13.188-13.181 3.519 0 6.831 1.375 9.319 3.862 2.488 2.494 3.856 5.8 3.856 9.325-0.006 7.275-5.919 13.188-13.181 13.188zM23.294 19.175c-0.394-0.2-2.344-1.156-2.706-1.288s-0.625-0.2-0.894 0.2c-0.262 0.394-1.025 1.288-1.256 1.556-0.231 0.262-0.462 0.3-0.856 0.1s-1.675-0.619-3.188-1.969c-1.175-1.050-1.975-2.35-2.206-2.744s-0.025-0.613 0.175-0.806c0.181-0.175 0.394-0.463 0.594-0.694s0.262-0.394 0.394-0.662c0.131-0.262 0.069-0.494-0.031-0.694s-0.894-2.15-1.219-2.944c-0.319-0.775-0.65-0.669-0.894-0.681-0.231-0.012-0.494-0.012-0.756-0.012s-0.694 0.1-1.056 0.494c-0.363 0.394-1.387 1.356-1.387 3.306s1.419 3.831 1.619 4.1c0.2 0.262 2.794 4.269 6.769 5.981 0.944 0.406 1.681 0.65 2.256 0.837 0.95 0.3 1.813 0.256 2.494 0.156 0.762-0.113 2.344-0.956 2.675-1.881s0.331-1.719 0.231-1.881c-0.094-0.175-0.356-0.275-0.756-0.475z"></path>
</symbol>
<symbol id="icon-telegram" viewBox="0 0 32 32">
<path d="M16 0c-8.838 0-16 7.162-16 16s7.162 16 16 16 16-7.163 16-16-7.163-16-16-16zM23.863 10.969l-2.625 12.369c-0.181 0.881-0.712 1.087-1.45 0.681l-4-2.956-1.919 1.869c-0.225 0.219-0.4 0.4-0.8 0.4-0.519 0-0.431-0.194-0.606-0.688l-1.363-4.475-3.956-1.231c-0.856-0.262-0.862-0.85 0.194-1.269l15.412-5.95c0.7-0.319 1.381 0.169 1.113 1.25z"></path>
</symbol>
<symbol id="icon-viber" viewBox="0 0 32 32">
<path d="M15.633 1.92c-0.873 0.005-1.748 0.058-2.63 0.165-1.688 0.208-3.36 0.553-4.965 1.29-2.553 1.173-4.362 3.162-4.888 6.055-0.223 1.22-0.402 2.457-0.505 3.703-0.197 2.418-0.075 4.843 0.61 7.225 0.54 1.878 1.535 3.565 3.277 4.66 0.737 0.462 1.71 0.688 2.217 0.922 0.143 0.067 0.178 0.108 0.185 0.117 0.008 0.008 0.027 0.025 0.025 0.175-0.018 1.53 0 4.49 0 4.49l0.002 0.637h1.143l0.185-0.18c0 0 2.902-2.793 3.953-3.942 0.19-0.205 0.287-0.32 0.307-0.332 0.018-0.012-0.012-0.020 0.182-0.025 1.377-0.027 2.752-0.080 4.127-0.155 1.813-0.1 3.66-0.273 5.438-1.015 1.547-0.648 2.84-1.705 3.622-3.29 0.8-1.625 1.227-3.348 1.387-5.13 0.265-2.967 0.172-5.94-0.648-8.87-0.483-1.718-1.453-3.17-2.94-4.195-1.78-1.225-3.788-1.685-5.753-1.978-1.148-0.17-2.303-0.282-3.462-0.317-0.29-0.008-0.58-0.012-0.873-0.010zM16.47 3.21c1.102 0.030 2.205 0.138 3.31 0.303 1.895 0.282 3.683 0.713 5.215 1.768 1.242 0.855 2.017 2.010 2.433 3.482 0.765 2.74 0.863 5.547 0.605 8.415-0.148 1.652-0.54 3.21-1.262 4.677-0.637 1.295-1.633 2.117-2.968 2.675-1.55 0.648-3.235 0.82-5.010 0.918-1.36 0.075-2.723 0.125-4.085 0.152-0.342 0.008-0.678 0.098-0.915 0.273s-0.345 0.337-0.492 0.497c-0.75 0.82-2.245 2.262-3.060 3.053-0.005-0.955-0.012-2.11 0-3.175 0.005-0.328-0.070-0.663-0.258-0.927s-0.445-0.425-0.693-0.54c-0.723-0.335-1.668-0.59-2.078-0.848-1.433-0.9-2.245-2.25-2.728-3.93-0.632-2.198-0.752-4.46-0.565-6.762 0.1-1.195 0.273-2.393 0.49-3.58 0.455-2.502 1.885-4.077 4.16-5.122 1.438-0.66 2.973-0.985 4.59-1.183 1.103-0.135 2.205-0.178 3.31-0.145zM16.74 6.4c-0.527 0-1.040 0.060-1.537 0.17-0.342 0.080-0.56 0.423-0.482 0.768s0.422 0.56 0.768 0.482c0.402-0.093 0.822-0.14 1.252-0.14 3.125 0 5.645 2.52 5.645 5.643 0 0.432-0.047 0.852-0.14 1.258-0.078 0.342 0.137 0.688 0.483 0.765s0.688-0.14 0.765-0.485c0.113-0.495 0.172-1.008 0.172-1.537 0-3.815-3.108-6.923-6.925-6.923zM10.355 7.683c-0.105-0.005-0.213 0.003-0.325 0.027-1.162 0.258-2.317 1.1-2.35 2.605 0.032 0.21 0.030 0.435 0.107 0.625 0.38 0.93 0.71 1.89 1.185 2.77 2.313 4.275 5.81 7.248 10.268 9.135 0.532 0.225 1.082 0.273 1.62 0.047 0.74-0.308 1.367-0.782 1.785-1.465 0.573-0.938 0.58-1.587-0.363-2.28-0.617-0.455-1.225-0.922-1.85-1.367-0.953-0.675-1.982-0.793-2.692 0.392-0.038 0.060-0.093 0.11-0.14 0.16-0.365 0.387-0.813 0.483-1.288 0.288-1.803-0.742-3.195-1.94-4.035-3.723-0.495-1.047-0.36-1.572 0.565-2.27 0.092-0.068 0.18-0.14 0.265-0.217 0.405-0.37 0.512-0.81 0.273-1.307-0.543-1.135-1.265-2.148-2.18-3.020-0.248-0.235-0.53-0.383-0.845-0.4zM16.73 8.32c-0.282 0-0.563 0.023-0.838 0.070-0.232 0.030-0.43 0.185-0.515 0.402-0.085 0.22-0.043 0.467 0.107 0.648 0.152 0.178 0.393 0.26 0.622 0.21 0.2-0.033 0.41-0.050 0.622-0.050 2.080 0 3.75 1.67 3.75 3.75 0 0.213-0.017 0.422-0.050 0.623-0.050 0.23 0.032 0.47 0.21 0.623 0.18 0.15 0.427 0.193 0.648 0.107 0.218-0.085 0.372-0.283 0.402-0.515 0.047-0.275 0.070-0.555 0.070-0.838 0-2.77-2.26-5.030-5.030-5.030zM16.64 10.24c-0.23-0.002-0.445 0.117-0.563 0.318-0.115 0.2-0.115 0.445 0 0.645 0.117 0.2 0.332 0.32 0.563 0.318 1.067 0 1.92 0.853 1.92 1.92-0.003 0.23 0.117 0.445 0.317 0.563 0.2 0.115 0.445 0.115 0.645 0 0.2-0.117 0.32-0.332 0.317-0.563 0-1.76-1.44-3.2-3.2-3.2z"></path>
</symbol> -->
<!-- <symbol id="icon-clock" viewBox="0 0 32 32">
<path d="M20.586 23.414l-6.586-6.586v-8.828h4v7.172l5.414 5.414zM16 0c-8.837 0-16 7.163-16 16s7.163 16 16 16 16-7.163 16-16-7.163-16-16-16zM16 28c-6.627 0-12-5.373-12-12s5.373-12 12-12c6.627 0 12 5.373 12 12s-5.373 12-12 12z"></path>
</symbol>
<symbol id="icon-icons8-telegram-1" viewBox="0 0 38 38">
<path d="M16 5c-6.075 0-11 4.925-11 11s4.925 11 11 11c6.075 0 11-4.925 11-11s-4.925-11-11-11zM16 7c4.971 0 9 4.029 9 9s-4.029 9-9 9c-4.971 0-9-4.029-9-9s4.029-9 9-9zM20.52 11.669c-0.254-0.029-0.573 0.040-0.93 0.169-0.651 0.235-8.979 3.771-9.46 3.976-0.456 0.194-0.887 0.405-0.888 0.711 0 0.215 0.127 0.336 0.479 0.462 0.366 0.131 1.289 0.41 1.834 0.561 0.525 0.145 1.122 0.019 1.457-0.189 0.354-0.221 4.451-2.961 4.744-3.201s0.528 0.068 0.288 0.309c-0.24 0.241-3.052 2.968-3.423 3.346-0.45 0.459-0.13 0.934 0.172 1.125 0.345 0.218 2.825 1.88 3.198 2.147s0.752 0.388 1.099 0.388c0.347 0 0.53-0.457 0.702-0.987 0.203-0.62 1.151-6.807 1.268-8.026 0.035-0.37-0.081-0.615-0.31-0.725-0.069-0.033-0.147-0.054-0.231-0.063z"></path>
</symbol>
<symbol id="icon-icons8-telegram" viewBox="0 0 32 32">
<path d="M16 4.48c-6.359 0-11.52 5.161-11.52 11.52s5.161 11.52 11.52 11.52c6.359 0 11.52-5.161 11.52-11.52s-5.161-11.52-11.52-11.52zM16 5.12c6.013 0 10.88 4.867 10.88 10.88s-4.867 10.88-10.88 10.88c-6.013 0-10.88-4.867-10.88-10.88s4.867-10.88 10.88-10.88zM16 6.080c-5.477 0-9.92 4.443-9.92 9.92s4.443 9.92 9.92 9.92c5.477 0 9.92-4.443 9.92-9.92 0-2.911-1.255-5.531-3.253-7.345-0.029-0.028-0.068-0.045-0.111-0.045-0.088 0-0.16 0.072-0.16 0.16 0 0.049 0.022 0.092 0.056 0.121l0 0c1.934 1.756 3.148 4.289 3.148 7.108 0 5.304-4.296 9.6-9.6 9.6s-9.6-4.296-9.6-9.6c0-5.304 4.296-9.6 9.6-9.6 1.162 0 2.275 0.207 3.305 0.584 0.016 0.006 0.035 0.010 0.055 0.010 0.088 0 0.16-0.072 0.16-0.16 0-0.069-0.043-0.127-0.104-0.15l-0.001-0c-1.065-0.39-2.215-0.604-3.415-0.604zM20.314 7.085c-0.087 0.002-0.156 0.073-0.156 0.16 0 0.063 0.037 0.118 0.090 0.144l0.001 0c0.214 0.106 0.425 0.22 0.63 0.341 0.024 0.015 0.053 0.024 0.084 0.024 0.088 0 0.16-0.072 0.16-0.16 0-0.060-0.033-0.112-0.081-0.139l-0.001-0c-0.212-0.125-0.428-0.243-0.65-0.353-0.021-0.011-0.046-0.018-0.073-0.018-0.002 0-0.003 0-0.005 0h0zM21.602 7.844c-0.001 0-0.001 0-0.002 0-0.005 0-0.010 0-0.015 0.001l0.001-0c-0.083 0.006-0.148 0.075-0.148 0.16 0 0.055 0.027 0.103 0.069 0.132l0.001 0c0.106 0.075 0.211 0.152 0.314 0.231 0.027 0.021 0.061 0.033 0.098 0.033 0.088 0 0.16-0.072 0.16-0.16 0-0.052-0.024-0.098-0.062-0.127l-0-0c-0.107-0.082-0.216-0.161-0.326-0.238-0.025-0.018-0.056-0.030-0.089-0.031h-0zM20.6 10.88c-0.288 0-0.568 0.132-0.568 0.133l-10.512 4.256c-0.015 0.005-0.131 0.044-0.259 0.129-0.136 0.091-0.301 0.248-0.301 0.483 0 0.252 0.154 0.428 0.289 0.526s0.271 0.137 0.271 0.137c0 0 0.002 0 0.003 0l0.001 0 2.432 0.66c0.025 0.070 0.3 0.839 0.602 1.684 0.158 0.442 0.317 0.885 0.438 1.223 0.060 0.169 0.111 0.311 0.148 0.413 0.018 0.051 0.033 0.092 0.044 0.121s0.013 0.037 0.021 0.056c0.064 0.158 0.123 0.249 0.179 0.308 0.028 0.030 0.056 0.051 0.084 0.066 0.007 0.004 0.013 0.005 0.019 0.008 0 0 0.001 0.001 0.002 0.001l0.001 0c0.001 0 0.002 0.001 0.003 0.001 0.005 0.002 0.009 0.004 0.014 0.006s0.008 0.002 0.015 0.003c0.052 0.018 0.104 0.027 0.151 0.024 0.155-0.006 0.264-0.092 0.264-0.092 0.004-0.003 0.007-0.006 0.010-0.009l-0 0 1.585-1.464 2.396 2.027c0 0 0.059 0.053 0.149 0.096s0.223 0.084 0.391 0.084c0.311 0 0.522-0.139 0.633-0.281s0.137-0.291 0.137-0.291v0.003c0 0 0.463-2.399 0.927-4.808 0.232-1.205 0.465-2.412 0.641-3.324 0.088-0.456 0.161-0.838 0.213-1.109 0.026-0.135 0.046-0.243 0.061-0.318 0.007-0.038 0.013-0.067 0.017-0.088s0.004-0.020 0.008-0.043c0.006-0.044 0.011-0.093 0.011-0.142 0-0.143-0.063-0.273-0.162-0.357s-0.226-0.123-0.358-0.123zM20.6 11.2c0.068 0 0.121 0.020 0.152 0.047s0.048 0.056 0.048 0.113c0 0.028-0.003 0.064-0.008 0.098 0.002-0.018-0.002 0.008-0.006 0.028s-0.009 0.049-0.016 0.087c-0.014 0.075-0.035 0.182-0.061 0.318-0.052 0.271-0.125 0.652-0.212 1.108-0.175 0.912-0.408 2.119-0.641 3.324-0.465 2.409-0.928 4.808-0.928 4.808s-0 0.001-0 0.001l-0 0.001c0 0-0.012 0.070-0.074 0.148s-0.158 0.159-0.382 0.159c-0.117 0-0.2-0.027-0.254-0.052s-0.068-0.041-0.068-0.041c-0.002-0.002-0.004-0.004-0.006-0.006l-0-0-3.867-3.273 4.762-4.531c0.105-0.081 0.159-0.204 0.159-0.327 0-0 0-0 0-0s0-0 0-0v0c-0-0.086-0.028-0.173-0.083-0.247-0.078-0.104-0.199-0.163-0.321-0.164h-0.001c-0.088-0-0.177 0.029-0.25 0.086l0.013-0.009-6.48 4.011 0.081 0.046c-0.011-0.006-0.023-0.011-0.036-0.015l-0.001-0-2.514-0.683c-0.003-0.001-0.086-0.027-0.171-0.088-0.087-0.063-0.156-0.141-0.156-0.266 0-0.080 0.065-0.154 0.159-0.217s0.191-0.095 0.191-0.095c0.005-0.001 0.008-0.003 0.012-0.004l-0.001 0 10.516-4.258c0.003-0.001 0.004-0.002 0.005-0.002l-0.001 0c0 0 0.26-0.106 0.439-0.106zM18.794 13.12c0.024 0 0.047 0.010 0.066 0.035 0 0 0 0 0.001 0.001v0c0.012 0.016 0.018 0.036 0.019 0.056-0 0.028-0.012 0.056-0.035 0.073-0.005 0.004-0.009 0.007-0.013 0.011l0-0-4.904 4.664c-0.025 0.024-0.042 0.055-0.047 0.090l-0 0.001h-0.001l-0.405 2.443c-0.009-0.024-0.017-0.045-0.029-0.079-0.037-0.102-0.088-0.244-0.148-0.413-0.121-0.337-0.279-0.781-0.438-1.223-0.294-0.823-0.547-1.53-0.586-1.638l6.454-3.994c0.005-0.003 0.009-0.006 0.013-0.010l-0 0c0.018-0.014 0.037-0.019 0.054-0.019zM14.149 18.379l1.141 0.966-1.536 1.419 0.395-2.384z"></path>
</symbol>
<symbol id="icon-icons8-facebook" viewBox="0 0 32 32">
<path d="M16 1.92c-7.769 0-14.080 6.311-14.080 14.080 0 7.052 5.202 12.889 11.976 13.906l0.735 0.111v-11.095h-3.326v-2.253h3.326v-2.991c0-1.842 0.442-3.055 1.174-3.816s1.813-1.145 3.317-1.145c1.203 0 1.671 0.073 2.116 0.127v1.844h-1.566c-0.889 0-1.618 0.496-1.996 1.156s-0.496 1.449-0.496 2.252v2.571h3.919l-0.349 2.253h-3.57v11.114l0.726-0.099c6.871-0.932 12.174-6.815 12.174-13.936 0-7.769-6.311-14.080-14.080-14.080zM16 3.2c7.077 0 12.8 5.723 12.8 12.8 0 6.227-4.457 11.348-10.34 12.501v-8.3h3.387l0.744-4.813h-4.131v-1.291c0-0.664 0.122-1.259 0.326-1.616s0.402-0.512 0.886-0.512h2.846v-4.282l-0.555-0.075c-0.384-0.052-1.26-0.174-2.841-0.174-1.73 0-3.215 0.471-4.24 1.537s-1.531 2.654-1.531 4.704v1.711h-3.326v4.813h3.326v8.259c-5.788-1.226-10.151-6.302-10.151-12.461 0-7.077 5.723-12.8 12.8-12.8z"></path>
</symbol> -->
</defs>
</svg>
